G04 #@! TF.GenerationSoftware,KiCad,Pcbnew,(5.1.9)-1*
G04 #@! TF.CreationDate,2021-05-26T14:18:42+01:00*
G04 #@! TF.ProjectId,AutoPilotPlate,4175746f-5069-46c6-9f74-506c6174652e,rev?*
G04 #@! TF.SameCoordinates,Original*
G04 #@! TF.FileFunction,Legend,Top*
G04 #@! TF.FilePolarity,Positive*
%FSLAX46Y46*%
G04 Gerber Fmt 4.6, Leading zero omitted, Abs format (unit mm)*
G04 Created by KiCad (PCBNEW (5.1.9)-1) date 2021-05-26 14:18:42*
%MOMM*%
%LPD*%
G01*
G04 APERTURE LIST*
%ADD10C,0.150000*%
G04 APERTURE END LIST*
D10*
X109695170Y-97259400D02*
X109123741Y-97259400D01*
X109409456Y-97259400D02*
X109409456Y-96259400D01*
X109314218Y-96402258D01*
X109218980Y-96497496D01*
X109123741Y-96545115D01*
X110314218Y-96259400D02*
X110409456Y-96259400D01*
X110504694Y-96307020D01*
X110552313Y-96354639D01*
X110599932Y-96449877D01*
X110647551Y-96640353D01*
X110647551Y-96878448D01*
X110599932Y-97068924D01*
X110552313Y-97164162D01*
X110504694Y-97211781D01*
X110409456Y-97259400D01*
X110314218Y-97259400D01*
X110218980Y-97211781D01*
X110171360Y-97164162D01*
X110123741Y-97068924D01*
X110076122Y-96878448D01*
X110076122Y-96640353D01*
X110123741Y-96449877D01*
X110171360Y-96354639D01*
X110218980Y-96307020D01*
X110314218Y-96259400D01*
X111076122Y-97259400D02*
X111076122Y-96592734D01*
X111076122Y-96687972D02*
X111123741Y-96640353D01*
X111218980Y-96592734D01*
X111361837Y-96592734D01*
X111457075Y-96640353D01*
X111504694Y-96735591D01*
X111504694Y-97259400D01*
X111504694Y-96735591D02*
X111552313Y-96640353D01*
X111647551Y-96592734D01*
X111790408Y-96592734D01*
X111885646Y-96640353D01*
X111933265Y-96735591D01*
X111933265Y-97259400D01*
X112409456Y-97259400D02*
X112409456Y-96592734D01*
X112409456Y-96687972D02*
X112457075Y-96640353D01*
X112552313Y-96592734D01*
X112695170Y-96592734D01*
X112790408Y-96640353D01*
X112838027Y-96735591D01*
X112838027Y-97259400D01*
X112838027Y-96735591D02*
X112885646Y-96640353D01*
X112980884Y-96592734D01*
X113123741Y-96592734D01*
X113218980Y-96640353D01*
X113266599Y-96735591D01*
X113266599Y-97259400D01*
X101171380Y-96358460D02*
X101266619Y-96358460D01*
X101361857Y-96406080D01*
X101409476Y-96453699D01*
X101457095Y-96548937D01*
X101504714Y-96739413D01*
X101504714Y-96977508D01*
X101457095Y-97167984D01*
X101409476Y-97263222D01*
X101361857Y-97310841D01*
X101266619Y-97358460D01*
X101171380Y-97358460D01*
X101076142Y-97310841D01*
X101028523Y-97263222D01*
X100980904Y-97167984D01*
X100933285Y-96977508D01*
X100933285Y-96739413D01*
X100980904Y-96548937D01*
X101028523Y-96453699D01*
X101076142Y-96406080D01*
X101171380Y-96358460D01*
X106455815Y-96460060D02*
X105979624Y-96460060D01*
X105932005Y-96936251D01*
X105979624Y-96888632D01*
X106074862Y-96841013D01*
X106312958Y-96841013D01*
X106408196Y-96888632D01*
X106455815Y-96936251D01*
X106503434Y-97031489D01*
X106503434Y-97269584D01*
X106455815Y-97364822D01*
X106408196Y-97412441D01*
X106312958Y-97460060D01*
X106074862Y-97460060D01*
X105979624Y-97412441D01*
X105932005Y-97364822D01*
X120556115Y-96555299D02*
X120603734Y-96507680D01*
X120698972Y-96460060D01*
X120937067Y-96460060D01*
X121032305Y-96507680D01*
X121079924Y-96555299D01*
X121127543Y-96650537D01*
X121127543Y-96745775D01*
X121079924Y-96888632D01*
X120508496Y-97460060D01*
X121127543Y-97460060D01*
X121746591Y-96460060D02*
X121841829Y-96460060D01*
X121937067Y-96507680D01*
X121984686Y-96555299D01*
X122032305Y-96650537D01*
X122079924Y-96841013D01*
X122079924Y-97079108D01*
X122032305Y-97269584D01*
X121984686Y-97364822D01*
X121937067Y-97412441D01*
X121841829Y-97460060D01*
X121746591Y-97460060D01*
X121651353Y-97412441D01*
X121603734Y-97364822D01*
X121556115Y-97269584D01*
X121508496Y-97079108D01*
X121508496Y-96841013D01*
X121556115Y-96650537D01*
X121603734Y-96555299D01*
X121651353Y-96507680D01*
X121746591Y-96460060D01*
X130409416Y-96559120D02*
X131028463Y-96559120D01*
X130695130Y-96940073D01*
X130837987Y-96940073D01*
X130933225Y-96987692D01*
X130980844Y-97035311D01*
X131028463Y-97130549D01*
X131028463Y-97368644D01*
X130980844Y-97463882D01*
X130933225Y-97511501D01*
X130837987Y-97559120D01*
X130552273Y-97559120D01*
X130457035Y-97511501D01*
X130409416Y-97463882D01*
X131647511Y-96559120D02*
X131742749Y-96559120D01*
X131837987Y-96606740D01*
X131885606Y-96654359D01*
X131933225Y-96749597D01*
X131980844Y-96940073D01*
X131980844Y-97178168D01*
X131933225Y-97368644D01*
X131885606Y-97463882D01*
X131837987Y-97511501D01*
X131742749Y-97559120D01*
X131647511Y-97559120D01*
X131552273Y-97511501D01*
X131504654Y-97463882D01*
X131457035Y-97368644D01*
X131409416Y-97178168D01*
X131409416Y-96940073D01*
X131457035Y-96749597D01*
X131504654Y-96654359D01*
X131552273Y-96606740D01*
X131647511Y-96559120D01*
X140933205Y-96994054D02*
X140933205Y-97660720D01*
X140695110Y-96613101D02*
X140457015Y-97327387D01*
X141076062Y-97327387D01*
X141647491Y-96660720D02*
X141742729Y-96660720D01*
X141837967Y-96708340D01*
X141885586Y-96755959D01*
X141933205Y-96851197D01*
X141980824Y-97041673D01*
X141980824Y-97279768D01*
X141933205Y-97470244D01*
X141885586Y-97565482D01*
X141837967Y-97613101D01*
X141742729Y-97660720D01*
X141647491Y-97660720D01*
X141552253Y-97613101D01*
X141504634Y-97565482D01*
X141457015Y-97470244D01*
X141409396Y-97279768D01*
X141409396Y-97041673D01*
X141457015Y-96851197D01*
X141504634Y-96755959D01*
X141552253Y-96708340D01*
X141647491Y-96660720D01*
X149647471Y-96660720D02*
X149171280Y-96660720D01*
X149123661Y-97136911D01*
X149171280Y-97089292D01*
X149266519Y-97041673D01*
X149504614Y-97041673D01*
X149599852Y-97089292D01*
X149647471Y-97136911D01*
X149695090Y-97232149D01*
X149695090Y-97470244D01*
X149647471Y-97565482D01*
X149599852Y-97613101D01*
X149504614Y-97660720D01*
X149266519Y-97660720D01*
X149171280Y-97613101D01*
X149123661Y-97565482D01*
X150314138Y-96660720D02*
X150409376Y-96660720D01*
X150504614Y-96708340D01*
X150552233Y-96755959D01*
X150599852Y-96851197D01*
X150647471Y-97041673D01*
X150647471Y-97279768D01*
X150599852Y-97470244D01*
X150552233Y-97565482D01*
X150504614Y-97613101D01*
X150409376Y-97660720D01*
X150314138Y-97660720D01*
X150218900Y-97613101D01*
X150171280Y-97565482D01*
X150123661Y-97470244D01*
X150076042Y-97279768D01*
X150076042Y-97041673D01*
X150123661Y-96851197D01*
X150171280Y-96755959D01*
X150218900Y-96708340D01*
X150314138Y-96660720D01*
X151076042Y-97660720D02*
X151076042Y-96994054D01*
X151076042Y-97089292D02*
X151123661Y-97041673D01*
X151218900Y-96994054D01*
X151361757Y-96994054D01*
X151456995Y-97041673D01*
X151504614Y-97136911D01*
X151504614Y-97660720D01*
X151504614Y-97136911D02*
X151552233Y-97041673D01*
X151647471Y-96994054D01*
X151790328Y-96994054D01*
X151885566Y-97041673D01*
X151933185Y-97136911D01*
X151933185Y-97660720D01*
X152409376Y-97660720D02*
X152409376Y-96994054D01*
X152409376Y-97089292D02*
X152456995Y-97041673D01*
X152552233Y-96994054D01*
X152695090Y-96994054D01*
X152790328Y-97041673D01*
X152837947Y-97136911D01*
X152837947Y-97660720D01*
X152837947Y-97136911D02*
X152885566Y-97041673D01*
X152980804Y-96994054D01*
X153123661Y-96994054D01*
X153218900Y-97041673D01*
X153266519Y-97136911D01*
X153266519Y-97660720D01*
%LPC*%
M02*
