M48
; DRILL file {KiCad (5.1.9)-1} date 06/17/21 16:50:45
; FORMAT={-:-/ absolute / metric / decimal}
; #@! TF.CreationDate,2021-06-17T16:50:45+01:00
; #@! TF.GenerationSoftware,Kicad,Pcbnew,(5.1.9)-1
; #@! TF.FileFunction,Plated,1,2,PTH
FMAT,2
METRIC
T1C0.400
T2C1.016
T3C1.092
T4C1.100
T5C1.753
T6C2.286
%
G90
G05
T1
X78.74Y-72.136
X79.248Y-74.676
X79.248Y-77.216
X79.248Y-80.01
X91.186Y-89.916
X96.012Y-94.742
X100.33Y-76.962
X109.22Y-89.63
X109.22Y-93.472
X109.474Y-96.266
T2
X80.137Y-102.616
X80.137Y-105.156
X80.137Y-107.696
X80.251Y-122.428
X80.251Y-124.968
X80.251Y-127.508
X94.615Y-102.616
X94.615Y-107.696
X94.729Y-122.428
X94.729Y-127.508
X116.84Y-60.452
X116.84Y-62.992
X116.84Y-65.532
X116.84Y-68.072
T3
X80.772Y-56.896
X80.772Y-59.436
X80.772Y-61.976
X80.772Y-64.516
X80.772Y-67.056
X80.772Y-69.596
X80.772Y-72.136
X80.772Y-74.676
X80.772Y-77.216
X80.772Y-79.756
X80.772Y-82.296
X81.001Y-84.836
X83.312Y-84.836
X85.852Y-84.836
X88.392Y-84.836
X90.932Y-84.836
X93.472Y-84.836
X96.012Y-56.896
X96.012Y-59.436
X96.012Y-61.976
X96.012Y-64.516
X96.012Y-67.056
X96.012Y-69.596
X96.012Y-72.136
X96.012Y-74.676
X96.012Y-77.216
X96.012Y-79.756
X96.012Y-82.296
X96.012Y-84.836
X107.823Y-91.123
X107.823Y-110.172
X107.823Y-129.222
X110.363Y-91.123
X110.363Y-110.172
X110.363Y-129.222
X117.348Y-148.272
X119.888Y-148.272
X126.873Y-91.123
X126.873Y-110.172
X126.873Y-129.222
X129.413Y-91.123
X129.413Y-110.172
X129.413Y-129.222
X145.923Y-91.123
X145.923Y-110.172
X145.923Y-129.222
X145.923Y-148.272
X148.463Y-91.123
X148.463Y-110.172
X148.463Y-129.222
X148.463Y-148.272
X171.323Y-94.297
X171.323Y-96.837
X171.323Y-132.398
X171.323Y-134.938
T4
X103.228Y-55.952
X103.228Y-60.452
X109.728Y-55.952
X109.728Y-60.452
T5
X105.283Y-83.502
X105.283Y-102.552
X105.283Y-121.602
X111.633Y-80.962
X111.633Y-100.012
X111.633Y-119.062
X114.808Y-140.653
X121.158Y-138.112
X124.333Y-83.502
X124.333Y-102.552
X124.333Y-121.602
X130.683Y-80.962
X130.683Y-100.012
X130.683Y-119.062
X143.383Y-83.502
X143.383Y-102.552
X143.383Y-121.602
X143.383Y-140.653
X149.733Y-80.962
X149.733Y-100.012
X149.733Y-119.062
X149.733Y-138.112
X161.163Y-93.027
X161.163Y-131.127
X163.703Y-99.377
X163.703Y-137.477
T6
X87.63Y-98.552
X87.63Y-111.76
X87.744Y-118.364
X87.744Y-131.572
T0
M30
