%FSLAX45Y45*%
G04 Gerber Fmt 4.5, Leading zero omitted, Abs format (unit mm)*
G04 Created by KiCad (PCBNEW (5.1.9)-1) date 2021-06-17 16:50:48*
%MOMM*%
%LPD*%
G01*
G04 APERTURE LIST*
%TA.AperFunction,Profile*%
%ADD10C,0.150000*%
%TD*%
%ADD11C,0.200000*%
%ADD12C,0.300000*%
G04 APERTURE END LIST*
D10*
X17564100Y-5283200D02*
G75*
G02*
X17614900Y-5334000I0J-50800D01*
G01*
X17614900Y-15240000D02*
G75*
G02*
X17564100Y-15290800I-50800J0D01*
G01*
X7670800Y-15290800D02*
G75*
G02*
X7614920Y-15234920I0J55880D01*
G01*
X7614920Y-5334000D02*
G75*
G02*
X7665720Y-5283200I50800J0D01*
G01*
X7670800Y-15290800D02*
X17564100Y-15290800D01*
X17614910Y-15240000D02*
X17614910Y-5334000D01*
X17564100Y-5283200D02*
X7665720Y-5283200D01*
X7614910Y-5334000D02*
X7614910Y-15234920D01*
D11*
X10315956Y-8518906D02*
X10486644Y-8689594D01*
X10486644Y-8518906D02*
X10315956Y-8689594D01*
X10315956Y-10423906D02*
X10486644Y-10594594D01*
X10486644Y-10423906D02*
X10315956Y-10594594D01*
X10315956Y-12328906D02*
X10486644Y-12499594D01*
X10486644Y-12328906D02*
X10315956Y-12499594D01*
X11268456Y-14233906D02*
X11439144Y-14404594D01*
X11439144Y-14233906D02*
X11268456Y-14404594D01*
X11331956Y-8518906D02*
X11502644Y-8689594D01*
X11502644Y-8518906D02*
X11331956Y-8689594D01*
X11331956Y-10423906D02*
X11502644Y-10594594D01*
X11502644Y-10423906D02*
X11331956Y-10594594D01*
X11331956Y-12328906D02*
X11502644Y-12499594D01*
X11502644Y-12328906D02*
X11331956Y-12499594D01*
X12220956Y-8518906D02*
X12391644Y-8689594D01*
X12391644Y-8518906D02*
X12220956Y-8689594D01*
X12220956Y-10423906D02*
X12391644Y-10594594D01*
X12391644Y-10423906D02*
X12220956Y-10594594D01*
X12220956Y-12328906D02*
X12391644Y-12499594D01*
X12391644Y-12328906D02*
X12220956Y-12499594D01*
X12284456Y-14233906D02*
X12455144Y-14404594D01*
X12455144Y-14233906D02*
X12284456Y-14404594D01*
X13236956Y-8518906D02*
X13407644Y-8689594D01*
X13407644Y-8518906D02*
X13236956Y-8689594D01*
X13236956Y-10423906D02*
X13407644Y-10594594D01*
X13407644Y-10423906D02*
X13236956Y-10594594D01*
X13236956Y-12328906D02*
X13407644Y-12499594D01*
X13407644Y-12328906D02*
X13236956Y-12499594D01*
X14125956Y-8518906D02*
X14296644Y-8689594D01*
X14296644Y-8518906D02*
X14125956Y-8689594D01*
X14125956Y-10423906D02*
X14296644Y-10594594D01*
X14296644Y-10423906D02*
X14125956Y-10594594D01*
X14125956Y-12328906D02*
X14296644Y-12499594D01*
X14296644Y-12328906D02*
X14125956Y-12499594D01*
X14125956Y-14233906D02*
X14296644Y-14404594D01*
X14296644Y-14233906D02*
X14125956Y-14404594D01*
X15141956Y-8518906D02*
X15312644Y-8689594D01*
X15312644Y-8518906D02*
X15141956Y-8689594D01*
X15141956Y-10423906D02*
X15312644Y-10594594D01*
X15312644Y-10423906D02*
X15141956Y-10594594D01*
X15141956Y-12328906D02*
X15312644Y-12499594D01*
X15312644Y-12328906D02*
X15141956Y-12499594D01*
X15141956Y-14233906D02*
X15312644Y-14404594D01*
X15312644Y-14233906D02*
X15141956Y-14404594D01*
X16538956Y-8963406D02*
X16709644Y-9134094D01*
X16709644Y-8963406D02*
X16538956Y-9134094D01*
X16538956Y-9979406D02*
X16709644Y-10150094D01*
X16709644Y-9979406D02*
X16538956Y-10150094D01*
X16538956Y-12773406D02*
X16709644Y-12944094D01*
X16709644Y-12773406D02*
X16538956Y-12944094D01*
X16538956Y-13789406D02*
X16709644Y-13960094D01*
X16709644Y-13789406D02*
X16538956Y-13960094D01*
X10820400Y-15017750D02*
G75*
G03*
X10820400Y-15017750I-152400J0D01*
G01*
X13208000Y-15017750D02*
G75*
G03*
X13208000Y-15017750I-152400J0D01*
G01*
X17475200Y-8362950D02*
G75*
G03*
X17475200Y-8362950I-152400J0D01*
G01*
X17475200Y-10750550D02*
G75*
G03*
X17475200Y-10750550I-152400J0D01*
G01*
X17475200Y-12172950D02*
G75*
G03*
X17475200Y-12172950I-152400J0D01*
G01*
X17475200Y-14560550D02*
G75*
G03*
X17475200Y-14560550I-152400J0D01*
G01*
X8128000Y-14622800D02*
X8128000Y-14942800D01*
X7968000Y-14782800D02*
X8288000Y-14782800D01*
X11861800Y-7409200D02*
X11861800Y-7729200D01*
X11701800Y-7569200D02*
X12021800Y-7569200D01*
X11861800Y-11295400D02*
X11861800Y-11615400D01*
X11701800Y-11455400D02*
X12021800Y-11455400D01*
X12192000Y-5478800D02*
X12192000Y-5798800D01*
X12032000Y-5638800D02*
X12352000Y-5638800D01*
X17246600Y-5656600D02*
X17246600Y-5976600D01*
X17086600Y-5816600D02*
X17406600Y-5816600D01*
X8596738Y-9485738D02*
X8596738Y-9259462D01*
X8370462Y-9259462D01*
X8370462Y-9485738D01*
X8596738Y-9485738D01*
X17359738Y-11568538D02*
X17359738Y-11342262D01*
X17133462Y-11342262D01*
X17133462Y-11568538D01*
X17359738Y-11568538D01*
X10668000Y-13693140D02*
X10867390Y-13493750D01*
X10668000Y-13294360D01*
X10468610Y-13493750D01*
X10668000Y-13693140D01*
X13055600Y-13693140D02*
X13254990Y-13493750D01*
X13055600Y-13294360D01*
X12856210Y-13493750D01*
X13055600Y-13693140D01*
X15798800Y-8562340D02*
X15998190Y-8362950D01*
X15798800Y-8163560D01*
X15599410Y-8362950D01*
X15798800Y-8562340D01*
X15798800Y-10949940D02*
X15998190Y-10750550D01*
X15798800Y-10551160D01*
X15599410Y-10750550D01*
X15798800Y-10949940D01*
X15798800Y-12372340D02*
X15998190Y-12172950D01*
X15798800Y-11973560D01*
X15599410Y-12172950D01*
X15798800Y-12372340D01*
X15798800Y-14759940D02*
X15998190Y-14560550D01*
X15798800Y-14361160D01*
X15599410Y-14560550D01*
X15798800Y-14759940D01*
X10704830Y-8399780D02*
X11113770Y-8808720D01*
X11113770Y-8399780D02*
X10704830Y-8808720D01*
X11113770Y-8604250D02*
G75*
G03*
X11113770Y-8604250I-204470J0D01*
G01*
X10704830Y-10304780D02*
X11113770Y-10713720D01*
X11113770Y-10304780D02*
X10704830Y-10713720D01*
X11113770Y-10509250D02*
G75*
G03*
X11113770Y-10509250I-204470J0D01*
G01*
X10704830Y-12209780D02*
X11113770Y-12618720D01*
X11113770Y-12209780D02*
X10704830Y-12618720D01*
X11113770Y-12414250D02*
G75*
G03*
X11113770Y-12414250I-204470J0D01*
G01*
X11657330Y-14114780D02*
X12066270Y-14523720D01*
X12066270Y-14114780D02*
X11657330Y-14523720D01*
X12066270Y-14319250D02*
G75*
G03*
X12066270Y-14319250I-204470J0D01*
G01*
X12609830Y-8399780D02*
X13018770Y-8808720D01*
X13018770Y-8399780D02*
X12609830Y-8808720D01*
X13018770Y-8604250D02*
G75*
G03*
X13018770Y-8604250I-204470J0D01*
G01*
X12609830Y-10304780D02*
X13018770Y-10713720D01*
X13018770Y-10304780D02*
X12609830Y-10713720D01*
X13018770Y-10509250D02*
G75*
G03*
X13018770Y-10509250I-204470J0D01*
G01*
X12609830Y-12209780D02*
X13018770Y-12618720D01*
X13018770Y-12209780D02*
X12609830Y-12618720D01*
X13018770Y-12414250D02*
G75*
G03*
X13018770Y-12414250I-204470J0D01*
G01*
X14514830Y-8399780D02*
X14923770Y-8808720D01*
X14923770Y-8399780D02*
X14514830Y-8808720D01*
X14923770Y-8604250D02*
G75*
G03*
X14923770Y-8604250I-204470J0D01*
G01*
X14514830Y-10304780D02*
X14923770Y-10713720D01*
X14923770Y-10304780D02*
X14514830Y-10713720D01*
X14923770Y-10509250D02*
G75*
G03*
X14923770Y-10509250I-204470J0D01*
G01*
X14514830Y-12209780D02*
X14923770Y-12618720D01*
X14923770Y-12209780D02*
X14514830Y-12618720D01*
X14923770Y-12414250D02*
G75*
G03*
X14923770Y-12414250I-204470J0D01*
G01*
X14514830Y-14114780D02*
X14923770Y-14523720D01*
X14923770Y-14114780D02*
X14514830Y-14523720D01*
X14923770Y-14319250D02*
G75*
G03*
X14923770Y-14319250I-204470J0D01*
G01*
X16419830Y-9352280D02*
X16828770Y-9761220D01*
X16828770Y-9352280D02*
X16419830Y-9761220D01*
X16828770Y-9556750D02*
G75*
G03*
X16828770Y-9556750I-204470J0D01*
G01*
X16419830Y-13162280D02*
X16828770Y-13571220D01*
X16828770Y-13162280D02*
X16419830Y-13571220D01*
X16828770Y-13366750D02*
G75*
G03*
X16828770Y-13366750I-204470J0D01*
G01*
D12*
X7893838Y-15764014D02*
X7893838Y-15464014D01*
X7965267Y-15464014D01*
X8008124Y-15478300D01*
X8036696Y-15506871D01*
X8050981Y-15535443D01*
X8065267Y-15592586D01*
X8065267Y-15635443D01*
X8050981Y-15692586D01*
X8036696Y-15721157D01*
X8008124Y-15749729D01*
X7965267Y-15764014D01*
X7893838Y-15764014D01*
X8193838Y-15764014D02*
X8193838Y-15564014D01*
X8193838Y-15621157D02*
X8208124Y-15592586D01*
X8222410Y-15578300D01*
X8250981Y-15564014D01*
X8279553Y-15564014D01*
X8379553Y-15764014D02*
X8379553Y-15564014D01*
X8379553Y-15464014D02*
X8365267Y-15478300D01*
X8379553Y-15492586D01*
X8393838Y-15478300D01*
X8379553Y-15464014D01*
X8379553Y-15492586D01*
X8565267Y-15764014D02*
X8536696Y-15749729D01*
X8522410Y-15721157D01*
X8522410Y-15464014D01*
X8722410Y-15764014D02*
X8693838Y-15749729D01*
X8679553Y-15721157D01*
X8679553Y-15464014D01*
X9065267Y-15764014D02*
X9065267Y-15464014D01*
X9165267Y-15678300D01*
X9265267Y-15464014D01*
X9265267Y-15764014D01*
X9536696Y-15764014D02*
X9536696Y-15606871D01*
X9522410Y-15578300D01*
X9493838Y-15564014D01*
X9436696Y-15564014D01*
X9408124Y-15578300D01*
X9536696Y-15749729D02*
X9508124Y-15764014D01*
X9436696Y-15764014D01*
X9408124Y-15749729D01*
X9393838Y-15721157D01*
X9393838Y-15692586D01*
X9408124Y-15664014D01*
X9436696Y-15649729D01*
X9508124Y-15649729D01*
X9536696Y-15635443D01*
X9679553Y-15564014D02*
X9679553Y-15864014D01*
X9679553Y-15578300D02*
X9708124Y-15564014D01*
X9765267Y-15564014D01*
X9793838Y-15578300D01*
X9808124Y-15592586D01*
X9822410Y-15621157D01*
X9822410Y-15706871D01*
X9808124Y-15735443D01*
X9793838Y-15749729D01*
X9765267Y-15764014D01*
X9708124Y-15764014D01*
X9679553Y-15749729D01*
X9950981Y-15735443D02*
X9965267Y-15749729D01*
X9950981Y-15764014D01*
X9936696Y-15749729D01*
X9950981Y-15735443D01*
X9950981Y-15764014D01*
X9950981Y-15578300D02*
X9965267Y-15592586D01*
X9950981Y-15606871D01*
X9936696Y-15592586D01*
X9950981Y-15578300D01*
X9950981Y-15606871D01*
X7436722Y-16172956D02*
X7607410Y-16343644D01*
X7607410Y-16172956D02*
X7436722Y-16343644D01*
X8050981Y-16394014D02*
X7879553Y-16394014D01*
X7965267Y-16394014D02*
X7965267Y-16094014D01*
X7936696Y-16136871D01*
X7908124Y-16165443D01*
X7879553Y-16179729D01*
X8179553Y-16365443D02*
X8193838Y-16379729D01*
X8179553Y-16394014D01*
X8165267Y-16379729D01*
X8179553Y-16365443D01*
X8179553Y-16394014D01*
X8293838Y-16094014D02*
X8493838Y-16094014D01*
X8365267Y-16394014D01*
X8765267Y-16394014D02*
X8593838Y-16394014D01*
X8679553Y-16394014D02*
X8679553Y-16094014D01*
X8650981Y-16136871D01*
X8622410Y-16165443D01*
X8593838Y-16179729D01*
X8893838Y-16394014D02*
X8893838Y-16194014D01*
X8893838Y-16222586D02*
X8908124Y-16208300D01*
X8936696Y-16194014D01*
X8979553Y-16194014D01*
X9008124Y-16208300D01*
X9022410Y-16236871D01*
X9022410Y-16394014D01*
X9022410Y-16236871D02*
X9036696Y-16208300D01*
X9065267Y-16194014D01*
X9108124Y-16194014D01*
X9136696Y-16208300D01*
X9150981Y-16236871D01*
X9150981Y-16394014D01*
X9293838Y-16394014D02*
X9293838Y-16194014D01*
X9293838Y-16222586D02*
X9308124Y-16208300D01*
X9336696Y-16194014D01*
X9379553Y-16194014D01*
X9408124Y-16208300D01*
X9422410Y-16236871D01*
X9422410Y-16394014D01*
X9422410Y-16236871D02*
X9436696Y-16208300D01*
X9465267Y-16194014D01*
X9508124Y-16194014D01*
X9536696Y-16208300D01*
X9550981Y-16236871D01*
X9550981Y-16394014D01*
X10136696Y-16079729D02*
X9879553Y-16465443D01*
X10522410Y-16094014D02*
X10550981Y-16094014D01*
X10579553Y-16108300D01*
X10593838Y-16122586D01*
X10608124Y-16151157D01*
X10622410Y-16208300D01*
X10622410Y-16279729D01*
X10608124Y-16336871D01*
X10593838Y-16365443D01*
X10579553Y-16379729D01*
X10550981Y-16394014D01*
X10522410Y-16394014D01*
X10493838Y-16379729D01*
X10479553Y-16365443D01*
X10465267Y-16336871D01*
X10450981Y-16279729D01*
X10450981Y-16208300D01*
X10465267Y-16151157D01*
X10479553Y-16122586D01*
X10493838Y-16108300D01*
X10522410Y-16094014D01*
X10750981Y-16365443D02*
X10765267Y-16379729D01*
X10750981Y-16394014D01*
X10736696Y-16379729D01*
X10750981Y-16365443D01*
X10750981Y-16394014D01*
X10950981Y-16094014D02*
X10979553Y-16094014D01*
X11008124Y-16108300D01*
X11022410Y-16122586D01*
X11036696Y-16151157D01*
X11050981Y-16208300D01*
X11050981Y-16279729D01*
X11036696Y-16336871D01*
X11022410Y-16365443D01*
X11008124Y-16379729D01*
X10979553Y-16394014D01*
X10950981Y-16394014D01*
X10922410Y-16379729D01*
X10908124Y-16365443D01*
X10893838Y-16336871D01*
X10879553Y-16279729D01*
X10879553Y-16208300D01*
X10893838Y-16151157D01*
X10908124Y-16122586D01*
X10922410Y-16108300D01*
X10950981Y-16094014D01*
X11308124Y-16094014D02*
X11250981Y-16094014D01*
X11222410Y-16108300D01*
X11208124Y-16122586D01*
X11179553Y-16165443D01*
X11165267Y-16222586D01*
X11165267Y-16336871D01*
X11179553Y-16365443D01*
X11193838Y-16379729D01*
X11222410Y-16394014D01*
X11279553Y-16394014D01*
X11308124Y-16379729D01*
X11322410Y-16365443D01*
X11336696Y-16336871D01*
X11336696Y-16265443D01*
X11322410Y-16236871D01*
X11308124Y-16222586D01*
X11279553Y-16208300D01*
X11222410Y-16208300D01*
X11193838Y-16222586D01*
X11179553Y-16236871D01*
X11165267Y-16265443D01*
X11436696Y-16094014D02*
X11636696Y-16094014D01*
X11508124Y-16394014D01*
X11736696Y-16094014D02*
X11736696Y-16151157D01*
X11850981Y-16094014D02*
X11850981Y-16151157D01*
X12293838Y-16508300D02*
X12279553Y-16494014D01*
X12250981Y-16451157D01*
X12236696Y-16422586D01*
X12222410Y-16379729D01*
X12208124Y-16308300D01*
X12208124Y-16251157D01*
X12222410Y-16179729D01*
X12236696Y-16136871D01*
X12250981Y-16108300D01*
X12279553Y-16065443D01*
X12293838Y-16051157D01*
X12393838Y-16122586D02*
X12408124Y-16108300D01*
X12436696Y-16094014D01*
X12508124Y-16094014D01*
X12536696Y-16108300D01*
X12550981Y-16122586D01*
X12565267Y-16151157D01*
X12565267Y-16179729D01*
X12550981Y-16222586D01*
X12379553Y-16394014D01*
X12565267Y-16394014D01*
X12822410Y-16094014D02*
X12765267Y-16094014D01*
X12736696Y-16108300D01*
X12722410Y-16122586D01*
X12693838Y-16165443D01*
X12679553Y-16222586D01*
X12679553Y-16336871D01*
X12693838Y-16365443D01*
X12708124Y-16379729D01*
X12736696Y-16394014D01*
X12793838Y-16394014D01*
X12822410Y-16379729D01*
X12836696Y-16365443D01*
X12850981Y-16336871D01*
X12850981Y-16265443D01*
X12836696Y-16236871D01*
X12822410Y-16222586D01*
X12793838Y-16208300D01*
X12736696Y-16208300D01*
X12708124Y-16222586D01*
X12693838Y-16236871D01*
X12679553Y-16265443D01*
X13208124Y-16394014D02*
X13208124Y-16094014D01*
X13336696Y-16394014D02*
X13336696Y-16236871D01*
X13322410Y-16208300D01*
X13293838Y-16194014D01*
X13250981Y-16194014D01*
X13222410Y-16208300D01*
X13208124Y-16222586D01*
X13522410Y-16394014D02*
X13493838Y-16379729D01*
X13479553Y-16365443D01*
X13465267Y-16336871D01*
X13465267Y-16251157D01*
X13479553Y-16222586D01*
X13493838Y-16208300D01*
X13522410Y-16194014D01*
X13565267Y-16194014D01*
X13593838Y-16208300D01*
X13608124Y-16222586D01*
X13622410Y-16251157D01*
X13622410Y-16336871D01*
X13608124Y-16365443D01*
X13593838Y-16379729D01*
X13565267Y-16394014D01*
X13522410Y-16394014D01*
X13793838Y-16394014D02*
X13765267Y-16379729D01*
X13750981Y-16351157D01*
X13750981Y-16094014D01*
X14022410Y-16379729D02*
X13993838Y-16394014D01*
X13936696Y-16394014D01*
X13908124Y-16379729D01*
X13893838Y-16351157D01*
X13893838Y-16236871D01*
X13908124Y-16208300D01*
X13936696Y-16194014D01*
X13993838Y-16194014D01*
X14022410Y-16208300D01*
X14036696Y-16236871D01*
X14036696Y-16265443D01*
X13893838Y-16294014D01*
X14150981Y-16379729D02*
X14179553Y-16394014D01*
X14236696Y-16394014D01*
X14265267Y-16379729D01*
X14279553Y-16351157D01*
X14279553Y-16336871D01*
X14265267Y-16308300D01*
X14236696Y-16294014D01*
X14193838Y-16294014D01*
X14165267Y-16279729D01*
X14150981Y-16251157D01*
X14150981Y-16236871D01*
X14165267Y-16208300D01*
X14193838Y-16194014D01*
X14236696Y-16194014D01*
X14265267Y-16208300D01*
X14379553Y-16508300D02*
X14393838Y-16494014D01*
X14422410Y-16451157D01*
X14436696Y-16422586D01*
X14450981Y-16379729D01*
X14465267Y-16308300D01*
X14465267Y-16251157D01*
X14450981Y-16179729D01*
X14436696Y-16136871D01*
X14422410Y-16108300D01*
X14393838Y-16065443D01*
X14379553Y-16051157D01*
X14922410Y-16508300D02*
X14908124Y-16494014D01*
X14879553Y-16451157D01*
X14865267Y-16422586D01*
X14850981Y-16379729D01*
X14836696Y-16308300D01*
X14836696Y-16251157D01*
X14850981Y-16179729D01*
X14865267Y-16136871D01*
X14879553Y-16108300D01*
X14908124Y-16065443D01*
X14922410Y-16051157D01*
X15036696Y-16194014D02*
X15036696Y-16394014D01*
X15036696Y-16222586D02*
X15050981Y-16208300D01*
X15079553Y-16194014D01*
X15122410Y-16194014D01*
X15150981Y-16208300D01*
X15165267Y-16236871D01*
X15165267Y-16394014D01*
X15350981Y-16394014D02*
X15322410Y-16379729D01*
X15308124Y-16365443D01*
X15293838Y-16336871D01*
X15293838Y-16251157D01*
X15308124Y-16222586D01*
X15322410Y-16208300D01*
X15350981Y-16194014D01*
X15393838Y-16194014D01*
X15422410Y-16208300D01*
X15436696Y-16222586D01*
X15450981Y-16251157D01*
X15450981Y-16336871D01*
X15436696Y-16365443D01*
X15422410Y-16379729D01*
X15393838Y-16394014D01*
X15350981Y-16394014D01*
X15536696Y-16194014D02*
X15650981Y-16194014D01*
X15579553Y-16094014D02*
X15579553Y-16351157D01*
X15593838Y-16379729D01*
X15622410Y-16394014D01*
X15650981Y-16394014D01*
X15979553Y-16194014D02*
X15979553Y-16494014D01*
X15979553Y-16208300D02*
X16008124Y-16194014D01*
X16065267Y-16194014D01*
X16093838Y-16208300D01*
X16108124Y-16222586D01*
X16122410Y-16251157D01*
X16122410Y-16336871D01*
X16108124Y-16365443D01*
X16093838Y-16379729D01*
X16065267Y-16394014D01*
X16008124Y-16394014D01*
X15979553Y-16379729D01*
X16293838Y-16394014D02*
X16265267Y-16379729D01*
X16250981Y-16351157D01*
X16250981Y-16094014D01*
X16536696Y-16394014D02*
X16536696Y-16236871D01*
X16522410Y-16208300D01*
X16493838Y-16194014D01*
X16436696Y-16194014D01*
X16408124Y-16208300D01*
X16536696Y-16379729D02*
X16508124Y-16394014D01*
X16436696Y-16394014D01*
X16408124Y-16379729D01*
X16393838Y-16351157D01*
X16393838Y-16322586D01*
X16408124Y-16294014D01*
X16436696Y-16279729D01*
X16508124Y-16279729D01*
X16536696Y-16265443D01*
X16636696Y-16194014D02*
X16750981Y-16194014D01*
X16679553Y-16094014D02*
X16679553Y-16351157D01*
X16693838Y-16379729D01*
X16722410Y-16394014D01*
X16750981Y-16394014D01*
X16965267Y-16379729D02*
X16936696Y-16394014D01*
X16879553Y-16394014D01*
X16850981Y-16379729D01*
X16836696Y-16351157D01*
X16836696Y-16236871D01*
X16850981Y-16208300D01*
X16879553Y-16194014D01*
X16936696Y-16194014D01*
X16965267Y-16208300D01*
X16979553Y-16236871D01*
X16979553Y-16265443D01*
X16836696Y-16294014D01*
X17236696Y-16394014D02*
X17236696Y-16094014D01*
X17236696Y-16379729D02*
X17208124Y-16394014D01*
X17150981Y-16394014D01*
X17122410Y-16379729D01*
X17108124Y-16365443D01*
X17093838Y-16336871D01*
X17093838Y-16251157D01*
X17108124Y-16222586D01*
X17122410Y-16208300D01*
X17150981Y-16194014D01*
X17208124Y-16194014D01*
X17236696Y-16208300D01*
X17350981Y-16508300D02*
X17365267Y-16494014D01*
X17393838Y-16451157D01*
X17408124Y-16422586D01*
X17422410Y-16379729D01*
X17436696Y-16308300D01*
X17436696Y-16251157D01*
X17422410Y-16179729D01*
X17408124Y-16136871D01*
X17393838Y-16108300D01*
X17365267Y-16065443D01*
X17350981Y-16051157D01*
X7607410Y-16654300D02*
G75*
G03*
X7607410Y-16654300I-152400J0D01*
G01*
X7865267Y-16490014D02*
X8050981Y-16490014D01*
X7950981Y-16604300D01*
X7993838Y-16604300D01*
X8022410Y-16618586D01*
X8036696Y-16632871D01*
X8050981Y-16661443D01*
X8050981Y-16732871D01*
X8036696Y-16761443D01*
X8022410Y-16775729D01*
X7993838Y-16790014D01*
X7908124Y-16790014D01*
X7879553Y-16775729D01*
X7865267Y-16761443D01*
X8179553Y-16761443D02*
X8193838Y-16775729D01*
X8179553Y-16790014D01*
X8165267Y-16775729D01*
X8179553Y-16761443D01*
X8179553Y-16790014D01*
X8379553Y-16490014D02*
X8408124Y-16490014D01*
X8436696Y-16504300D01*
X8450981Y-16518586D01*
X8465267Y-16547157D01*
X8479553Y-16604300D01*
X8479553Y-16675729D01*
X8465267Y-16732871D01*
X8450981Y-16761443D01*
X8436696Y-16775729D01*
X8408124Y-16790014D01*
X8379553Y-16790014D01*
X8350981Y-16775729D01*
X8336696Y-16761443D01*
X8322410Y-16732871D01*
X8308124Y-16675729D01*
X8308124Y-16604300D01*
X8322410Y-16547157D01*
X8336696Y-16518586D01*
X8350981Y-16504300D01*
X8379553Y-16490014D01*
X8750981Y-16490014D02*
X8608124Y-16490014D01*
X8593838Y-16632871D01*
X8608124Y-16618586D01*
X8636696Y-16604300D01*
X8708124Y-16604300D01*
X8736696Y-16618586D01*
X8750981Y-16632871D01*
X8765267Y-16661443D01*
X8765267Y-16732871D01*
X8750981Y-16761443D01*
X8736696Y-16775729D01*
X8708124Y-16790014D01*
X8636696Y-16790014D01*
X8608124Y-16775729D01*
X8593838Y-16761443D01*
X8893838Y-16790014D02*
X8893838Y-16590014D01*
X8893838Y-16618586D02*
X8908124Y-16604300D01*
X8936696Y-16590014D01*
X8979553Y-16590014D01*
X9008124Y-16604300D01*
X9022410Y-16632871D01*
X9022410Y-16790014D01*
X9022410Y-16632871D02*
X9036696Y-16604300D01*
X9065267Y-16590014D01*
X9108124Y-16590014D01*
X9136696Y-16604300D01*
X9150981Y-16632871D01*
X9150981Y-16790014D01*
X9293838Y-16790014D02*
X9293838Y-16590014D01*
X9293838Y-16618586D02*
X9308124Y-16604300D01*
X9336696Y-16590014D01*
X9379553Y-16590014D01*
X9408124Y-16604300D01*
X9422410Y-16632871D01*
X9422410Y-16790014D01*
X9422410Y-16632871D02*
X9436696Y-16604300D01*
X9465267Y-16590014D01*
X9508124Y-16590014D01*
X9536696Y-16604300D01*
X9550981Y-16632871D01*
X9550981Y-16790014D01*
X10136696Y-16475729D02*
X9879553Y-16861443D01*
X10522410Y-16490014D02*
X10550981Y-16490014D01*
X10579553Y-16504300D01*
X10593838Y-16518586D01*
X10608124Y-16547157D01*
X10622410Y-16604300D01*
X10622410Y-16675729D01*
X10608124Y-16732871D01*
X10593838Y-16761443D01*
X10579553Y-16775729D01*
X10550981Y-16790014D01*
X10522410Y-16790014D01*
X10493838Y-16775729D01*
X10479553Y-16761443D01*
X10465267Y-16732871D01*
X10450981Y-16675729D01*
X10450981Y-16604300D01*
X10465267Y-16547157D01*
X10479553Y-16518586D01*
X10493838Y-16504300D01*
X10522410Y-16490014D01*
X10750981Y-16761443D02*
X10765267Y-16775729D01*
X10750981Y-16790014D01*
X10736696Y-16775729D01*
X10750981Y-16761443D01*
X10750981Y-16790014D01*
X11050981Y-16790014D02*
X10879553Y-16790014D01*
X10965267Y-16790014D02*
X10965267Y-16490014D01*
X10936696Y-16532871D01*
X10908124Y-16561443D01*
X10879553Y-16575729D01*
X11165267Y-16518586D02*
X11179553Y-16504300D01*
X11208124Y-16490014D01*
X11279553Y-16490014D01*
X11308124Y-16504300D01*
X11322410Y-16518586D01*
X11336696Y-16547157D01*
X11336696Y-16575729D01*
X11322410Y-16618586D01*
X11150981Y-16790014D01*
X11336696Y-16790014D01*
X11522410Y-16490014D02*
X11550981Y-16490014D01*
X11579553Y-16504300D01*
X11593838Y-16518586D01*
X11608124Y-16547157D01*
X11622410Y-16604300D01*
X11622410Y-16675729D01*
X11608124Y-16732871D01*
X11593838Y-16761443D01*
X11579553Y-16775729D01*
X11550981Y-16790014D01*
X11522410Y-16790014D01*
X11493838Y-16775729D01*
X11479553Y-16761443D01*
X11465267Y-16732871D01*
X11450981Y-16675729D01*
X11450981Y-16604300D01*
X11465267Y-16547157D01*
X11479553Y-16518586D01*
X11493838Y-16504300D01*
X11522410Y-16490014D01*
X11736696Y-16490014D02*
X11736696Y-16547157D01*
X11850981Y-16490014D02*
X11850981Y-16547157D01*
X12293838Y-16904300D02*
X12279553Y-16890014D01*
X12250981Y-16847157D01*
X12236696Y-16818586D01*
X12222410Y-16775729D01*
X12208124Y-16704300D01*
X12208124Y-16647157D01*
X12222410Y-16575729D01*
X12236696Y-16532871D01*
X12250981Y-16504300D01*
X12279553Y-16461443D01*
X12293838Y-16447157D01*
X12536696Y-16490014D02*
X12479553Y-16490014D01*
X12450981Y-16504300D01*
X12436696Y-16518586D01*
X12408124Y-16561443D01*
X12393838Y-16618586D01*
X12393838Y-16732871D01*
X12408124Y-16761443D01*
X12422410Y-16775729D01*
X12450981Y-16790014D01*
X12508124Y-16790014D01*
X12536696Y-16775729D01*
X12550981Y-16761443D01*
X12565267Y-16732871D01*
X12565267Y-16661443D01*
X12550981Y-16632871D01*
X12536696Y-16618586D01*
X12508124Y-16604300D01*
X12450981Y-16604300D01*
X12422410Y-16618586D01*
X12408124Y-16632871D01*
X12393838Y-16661443D01*
X12922410Y-16790014D02*
X12922410Y-16490014D01*
X13050981Y-16790014D02*
X13050981Y-16632871D01*
X13036696Y-16604300D01*
X13008124Y-16590014D01*
X12965267Y-16590014D01*
X12936696Y-16604300D01*
X12922410Y-16618586D01*
X13236696Y-16790014D02*
X13208124Y-16775729D01*
X13193838Y-16761443D01*
X13179553Y-16732871D01*
X13179553Y-16647157D01*
X13193838Y-16618586D01*
X13208124Y-16604300D01*
X13236696Y-16590014D01*
X13279553Y-16590014D01*
X13308124Y-16604300D01*
X13322410Y-16618586D01*
X13336696Y-16647157D01*
X13336696Y-16732871D01*
X13322410Y-16761443D01*
X13308124Y-16775729D01*
X13279553Y-16790014D01*
X13236696Y-16790014D01*
X13508124Y-16790014D02*
X13479553Y-16775729D01*
X13465267Y-16747157D01*
X13465267Y-16490014D01*
X13736696Y-16775729D02*
X13708124Y-16790014D01*
X13650981Y-16790014D01*
X13622410Y-16775729D01*
X13608124Y-16747157D01*
X13608124Y-16632871D01*
X13622410Y-16604300D01*
X13650981Y-16590014D01*
X13708124Y-16590014D01*
X13736696Y-16604300D01*
X13750981Y-16632871D01*
X13750981Y-16661443D01*
X13608124Y-16690014D01*
X13865267Y-16775729D02*
X13893838Y-16790014D01*
X13950981Y-16790014D01*
X13979553Y-16775729D01*
X13993838Y-16747157D01*
X13993838Y-16732871D01*
X13979553Y-16704300D01*
X13950981Y-16690014D01*
X13908124Y-16690014D01*
X13879553Y-16675729D01*
X13865267Y-16647157D01*
X13865267Y-16632871D01*
X13879553Y-16604300D01*
X13908124Y-16590014D01*
X13950981Y-16590014D01*
X13979553Y-16604300D01*
X14093838Y-16904300D02*
X14108124Y-16890014D01*
X14136696Y-16847157D01*
X14150981Y-16818586D01*
X14165267Y-16775729D01*
X14179553Y-16704300D01*
X14179553Y-16647157D01*
X14165267Y-16575729D01*
X14150981Y-16532871D01*
X14136696Y-16504300D01*
X14108124Y-16461443D01*
X14093838Y-16447157D01*
X14636696Y-16904300D02*
X14622410Y-16890014D01*
X14593838Y-16847157D01*
X14579553Y-16818586D01*
X14565267Y-16775729D01*
X14550981Y-16704300D01*
X14550981Y-16647157D01*
X14565267Y-16575729D01*
X14579553Y-16532871D01*
X14593838Y-16504300D01*
X14622410Y-16461443D01*
X14636696Y-16447157D01*
X14750981Y-16590014D02*
X14750981Y-16790014D01*
X14750981Y-16618586D02*
X14765267Y-16604300D01*
X14793838Y-16590014D01*
X14836696Y-16590014D01*
X14865267Y-16604300D01*
X14879553Y-16632871D01*
X14879553Y-16790014D01*
X15065267Y-16790014D02*
X15036696Y-16775729D01*
X15022410Y-16761443D01*
X15008124Y-16732871D01*
X15008124Y-16647157D01*
X15022410Y-16618586D01*
X15036696Y-16604300D01*
X15065267Y-16590014D01*
X15108124Y-16590014D01*
X15136696Y-16604300D01*
X15150981Y-16618586D01*
X15165267Y-16647157D01*
X15165267Y-16732871D01*
X15150981Y-16761443D01*
X15136696Y-16775729D01*
X15108124Y-16790014D01*
X15065267Y-16790014D01*
X15250981Y-16590014D02*
X15365267Y-16590014D01*
X15293838Y-16490014D02*
X15293838Y-16747157D01*
X15308124Y-16775729D01*
X15336696Y-16790014D01*
X15365267Y-16790014D01*
X15693838Y-16590014D02*
X15693838Y-16890014D01*
X15693838Y-16604300D02*
X15722410Y-16590014D01*
X15779553Y-16590014D01*
X15808124Y-16604300D01*
X15822410Y-16618586D01*
X15836696Y-16647157D01*
X15836696Y-16732871D01*
X15822410Y-16761443D01*
X15808124Y-16775729D01*
X15779553Y-16790014D01*
X15722410Y-16790014D01*
X15693838Y-16775729D01*
X16008124Y-16790014D02*
X15979553Y-16775729D01*
X15965267Y-16747157D01*
X15965267Y-16490014D01*
X16250981Y-16790014D02*
X16250981Y-16632871D01*
X16236696Y-16604300D01*
X16208124Y-16590014D01*
X16150981Y-16590014D01*
X16122410Y-16604300D01*
X16250981Y-16775729D02*
X16222410Y-16790014D01*
X16150981Y-16790014D01*
X16122410Y-16775729D01*
X16108124Y-16747157D01*
X16108124Y-16718586D01*
X16122410Y-16690014D01*
X16150981Y-16675729D01*
X16222410Y-16675729D01*
X16250981Y-16661443D01*
X16350981Y-16590014D02*
X16465267Y-16590014D01*
X16393838Y-16490014D02*
X16393838Y-16747157D01*
X16408124Y-16775729D01*
X16436696Y-16790014D01*
X16465267Y-16790014D01*
X16679553Y-16775729D02*
X16650981Y-16790014D01*
X16593838Y-16790014D01*
X16565267Y-16775729D01*
X16550981Y-16747157D01*
X16550981Y-16632871D01*
X16565267Y-16604300D01*
X16593838Y-16590014D01*
X16650981Y-16590014D01*
X16679553Y-16604300D01*
X16693838Y-16632871D01*
X16693838Y-16661443D01*
X16550981Y-16690014D01*
X16950981Y-16790014D02*
X16950981Y-16490014D01*
X16950981Y-16775729D02*
X16922410Y-16790014D01*
X16865267Y-16790014D01*
X16836696Y-16775729D01*
X16822410Y-16761443D01*
X16808124Y-16732871D01*
X16808124Y-16647157D01*
X16822410Y-16618586D01*
X16836696Y-16604300D01*
X16865267Y-16590014D01*
X16922410Y-16590014D01*
X16950981Y-16604300D01*
X17065267Y-16904300D02*
X17079553Y-16890014D01*
X17108124Y-16847157D01*
X17122410Y-16818586D01*
X17136696Y-16775729D01*
X17150981Y-16704300D01*
X17150981Y-16647157D01*
X17136696Y-16575729D01*
X17122410Y-16532871D01*
X17108124Y-16504300D01*
X17079553Y-16461443D01*
X17065267Y-16447157D01*
X7447410Y-16929100D02*
X7447410Y-17249100D01*
X7287410Y-17089100D02*
X7607410Y-17089100D01*
X7865267Y-16924814D02*
X8050981Y-16924814D01*
X7950981Y-17039100D01*
X7993838Y-17039100D01*
X8022410Y-17053386D01*
X8036696Y-17067672D01*
X8050981Y-17096243D01*
X8050981Y-17167672D01*
X8036696Y-17196243D01*
X8022410Y-17210529D01*
X7993838Y-17224814D01*
X7908124Y-17224814D01*
X7879553Y-17210529D01*
X7865267Y-17196243D01*
X8179553Y-17196243D02*
X8193838Y-17210529D01*
X8179553Y-17224814D01*
X8165267Y-17210529D01*
X8179553Y-17196243D01*
X8179553Y-17224814D01*
X8308124Y-16953386D02*
X8322410Y-16939100D01*
X8350981Y-16924814D01*
X8422410Y-16924814D01*
X8450981Y-16939100D01*
X8465267Y-16953386D01*
X8479553Y-16981957D01*
X8479553Y-17010529D01*
X8465267Y-17053386D01*
X8293838Y-17224814D01*
X8479553Y-17224814D01*
X8665267Y-16924814D02*
X8693838Y-16924814D01*
X8722410Y-16939100D01*
X8736696Y-16953386D01*
X8750981Y-16981957D01*
X8765267Y-17039100D01*
X8765267Y-17110529D01*
X8750981Y-17167672D01*
X8736696Y-17196243D01*
X8722410Y-17210529D01*
X8693838Y-17224814D01*
X8665267Y-17224814D01*
X8636696Y-17210529D01*
X8622410Y-17196243D01*
X8608124Y-17167672D01*
X8593838Y-17110529D01*
X8593838Y-17039100D01*
X8608124Y-16981957D01*
X8622410Y-16953386D01*
X8636696Y-16939100D01*
X8665267Y-16924814D01*
X8893838Y-17224814D02*
X8893838Y-17024814D01*
X8893838Y-17053386D02*
X8908124Y-17039100D01*
X8936696Y-17024814D01*
X8979553Y-17024814D01*
X9008124Y-17039100D01*
X9022410Y-17067672D01*
X9022410Y-17224814D01*
X9022410Y-17067672D02*
X9036696Y-17039100D01*
X9065267Y-17024814D01*
X9108124Y-17024814D01*
X9136696Y-17039100D01*
X9150981Y-17067672D01*
X9150981Y-17224814D01*
X9293838Y-17224814D02*
X9293838Y-17024814D01*
X9293838Y-17053386D02*
X9308124Y-17039100D01*
X9336696Y-17024814D01*
X9379553Y-17024814D01*
X9408124Y-17039100D01*
X9422410Y-17067672D01*
X9422410Y-17224814D01*
X9422410Y-17067672D02*
X9436696Y-17039100D01*
X9465267Y-17024814D01*
X9508124Y-17024814D01*
X9536696Y-17039100D01*
X9550981Y-17067672D01*
X9550981Y-17224814D01*
X10136696Y-16910529D02*
X9879553Y-17296243D01*
X10522410Y-16924814D02*
X10550981Y-16924814D01*
X10579553Y-16939100D01*
X10593838Y-16953386D01*
X10608124Y-16981957D01*
X10622410Y-17039100D01*
X10622410Y-17110529D01*
X10608124Y-17167672D01*
X10593838Y-17196243D01*
X10579553Y-17210529D01*
X10550981Y-17224814D01*
X10522410Y-17224814D01*
X10493838Y-17210529D01*
X10479553Y-17196243D01*
X10465267Y-17167672D01*
X10450981Y-17110529D01*
X10450981Y-17039100D01*
X10465267Y-16981957D01*
X10479553Y-16953386D01*
X10493838Y-16939100D01*
X10522410Y-16924814D01*
X10750981Y-17196243D02*
X10765267Y-17210529D01*
X10750981Y-17224814D01*
X10736696Y-17210529D01*
X10750981Y-17196243D01*
X10750981Y-17224814D01*
X11050981Y-17224814D02*
X10879553Y-17224814D01*
X10965267Y-17224814D02*
X10965267Y-16924814D01*
X10936696Y-16967672D01*
X10908124Y-16996243D01*
X10879553Y-17010529D01*
X11165267Y-16953386D02*
X11179553Y-16939100D01*
X11208124Y-16924814D01*
X11279553Y-16924814D01*
X11308124Y-16939100D01*
X11322410Y-16953386D01*
X11336696Y-16981957D01*
X11336696Y-17010529D01*
X11322410Y-17053386D01*
X11150981Y-17224814D01*
X11336696Y-17224814D01*
X11593838Y-16924814D02*
X11536696Y-16924814D01*
X11508124Y-16939100D01*
X11493838Y-16953386D01*
X11465267Y-16996243D01*
X11450981Y-17053386D01*
X11450981Y-17167672D01*
X11465267Y-17196243D01*
X11479553Y-17210529D01*
X11508124Y-17224814D01*
X11565267Y-17224814D01*
X11593838Y-17210529D01*
X11608124Y-17196243D01*
X11622410Y-17167672D01*
X11622410Y-17096243D01*
X11608124Y-17067672D01*
X11593838Y-17053386D01*
X11565267Y-17039100D01*
X11508124Y-17039100D01*
X11479553Y-17053386D01*
X11465267Y-17067672D01*
X11450981Y-17096243D01*
X11736696Y-16924814D02*
X11736696Y-16981957D01*
X11850981Y-16924814D02*
X11850981Y-16981957D01*
X12293838Y-17339100D02*
X12279553Y-17324814D01*
X12250981Y-17281957D01*
X12236696Y-17253386D01*
X12222410Y-17210529D01*
X12208124Y-17139100D01*
X12208124Y-17081957D01*
X12222410Y-17010529D01*
X12236696Y-16967672D01*
X12250981Y-16939100D01*
X12279553Y-16896243D01*
X12293838Y-16881957D01*
X12550981Y-16924814D02*
X12408124Y-16924814D01*
X12393838Y-17067672D01*
X12408124Y-17053386D01*
X12436696Y-17039100D01*
X12508124Y-17039100D01*
X12536696Y-17053386D01*
X12550981Y-17067672D01*
X12565267Y-17096243D01*
X12565267Y-17167672D01*
X12550981Y-17196243D01*
X12536696Y-17210529D01*
X12508124Y-17224814D01*
X12436696Y-17224814D01*
X12408124Y-17210529D01*
X12393838Y-17196243D01*
X12922410Y-17224814D02*
X12922410Y-16924814D01*
X13050981Y-17224814D02*
X13050981Y-17067672D01*
X13036696Y-17039100D01*
X13008124Y-17024814D01*
X12965267Y-17024814D01*
X12936696Y-17039100D01*
X12922410Y-17053386D01*
X13236696Y-17224814D02*
X13208124Y-17210529D01*
X13193838Y-17196243D01*
X13179553Y-17167672D01*
X13179553Y-17081957D01*
X13193838Y-17053386D01*
X13208124Y-17039100D01*
X13236696Y-17024814D01*
X13279553Y-17024814D01*
X13308124Y-17039100D01*
X13322410Y-17053386D01*
X13336696Y-17081957D01*
X13336696Y-17167672D01*
X13322410Y-17196243D01*
X13308124Y-17210529D01*
X13279553Y-17224814D01*
X13236696Y-17224814D01*
X13508124Y-17224814D02*
X13479553Y-17210529D01*
X13465267Y-17181957D01*
X13465267Y-16924814D01*
X13736696Y-17210529D02*
X13708124Y-17224814D01*
X13650981Y-17224814D01*
X13622410Y-17210529D01*
X13608124Y-17181957D01*
X13608124Y-17067672D01*
X13622410Y-17039100D01*
X13650981Y-17024814D01*
X13708124Y-17024814D01*
X13736696Y-17039100D01*
X13750981Y-17067672D01*
X13750981Y-17096243D01*
X13608124Y-17124814D01*
X13865267Y-17210529D02*
X13893838Y-17224814D01*
X13950981Y-17224814D01*
X13979553Y-17210529D01*
X13993838Y-17181957D01*
X13993838Y-17167672D01*
X13979553Y-17139100D01*
X13950981Y-17124814D01*
X13908124Y-17124814D01*
X13879553Y-17110529D01*
X13865267Y-17081957D01*
X13865267Y-17067672D01*
X13879553Y-17039100D01*
X13908124Y-17024814D01*
X13950981Y-17024814D01*
X13979553Y-17039100D01*
X14093838Y-17339100D02*
X14108124Y-17324814D01*
X14136696Y-17281957D01*
X14150981Y-17253386D01*
X14165267Y-17210529D01*
X14179553Y-17139100D01*
X14179553Y-17081957D01*
X14165267Y-17010529D01*
X14150981Y-16967672D01*
X14136696Y-16939100D01*
X14108124Y-16896243D01*
X14093838Y-16881957D01*
X14636696Y-17339100D02*
X14622410Y-17324814D01*
X14593838Y-17281957D01*
X14579553Y-17253386D01*
X14565267Y-17210529D01*
X14550981Y-17139100D01*
X14550981Y-17081957D01*
X14565267Y-17010529D01*
X14579553Y-16967672D01*
X14593838Y-16939100D01*
X14622410Y-16896243D01*
X14636696Y-16881957D01*
X14750981Y-17024814D02*
X14750981Y-17224814D01*
X14750981Y-17053386D02*
X14765267Y-17039100D01*
X14793838Y-17024814D01*
X14836696Y-17024814D01*
X14865267Y-17039100D01*
X14879553Y-17067672D01*
X14879553Y-17224814D01*
X15065267Y-17224814D02*
X15036696Y-17210529D01*
X15022410Y-17196243D01*
X15008124Y-17167672D01*
X15008124Y-17081957D01*
X15022410Y-17053386D01*
X15036696Y-17039100D01*
X15065267Y-17024814D01*
X15108124Y-17024814D01*
X15136696Y-17039100D01*
X15150981Y-17053386D01*
X15165267Y-17081957D01*
X15165267Y-17167672D01*
X15150981Y-17196243D01*
X15136696Y-17210529D01*
X15108124Y-17224814D01*
X15065267Y-17224814D01*
X15250981Y-17024814D02*
X15365267Y-17024814D01*
X15293838Y-16924814D02*
X15293838Y-17181957D01*
X15308124Y-17210529D01*
X15336696Y-17224814D01*
X15365267Y-17224814D01*
X15693838Y-17024814D02*
X15693838Y-17324814D01*
X15693838Y-17039100D02*
X15722410Y-17024814D01*
X15779553Y-17024814D01*
X15808124Y-17039100D01*
X15822410Y-17053386D01*
X15836696Y-17081957D01*
X15836696Y-17167672D01*
X15822410Y-17196243D01*
X15808124Y-17210529D01*
X15779553Y-17224814D01*
X15722410Y-17224814D01*
X15693838Y-17210529D01*
X16008124Y-17224814D02*
X15979553Y-17210529D01*
X15965267Y-17181957D01*
X15965267Y-16924814D01*
X16250981Y-17224814D02*
X16250981Y-17067672D01*
X16236696Y-17039100D01*
X16208124Y-17024814D01*
X16150981Y-17024814D01*
X16122410Y-17039100D01*
X16250981Y-17210529D02*
X16222410Y-17224814D01*
X16150981Y-17224814D01*
X16122410Y-17210529D01*
X16108124Y-17181957D01*
X16108124Y-17153386D01*
X16122410Y-17124814D01*
X16150981Y-17110529D01*
X16222410Y-17110529D01*
X16250981Y-17096243D01*
X16350981Y-17024814D02*
X16465267Y-17024814D01*
X16393838Y-16924814D02*
X16393838Y-17181957D01*
X16408124Y-17210529D01*
X16436696Y-17224814D01*
X16465267Y-17224814D01*
X16679553Y-17210529D02*
X16650981Y-17224814D01*
X16593838Y-17224814D01*
X16565267Y-17210529D01*
X16550981Y-17181957D01*
X16550981Y-17067672D01*
X16565267Y-17039100D01*
X16593838Y-17024814D01*
X16650981Y-17024814D01*
X16679553Y-17039100D01*
X16693838Y-17067672D01*
X16693838Y-17096243D01*
X16550981Y-17124814D01*
X16950981Y-17224814D02*
X16950981Y-16924814D01*
X16950981Y-17210529D02*
X16922410Y-17224814D01*
X16865267Y-17224814D01*
X16836696Y-17210529D01*
X16822410Y-17196243D01*
X16808124Y-17167672D01*
X16808124Y-17081957D01*
X16822410Y-17053386D01*
X16836696Y-17039100D01*
X16865267Y-17024814D01*
X16922410Y-17024814D01*
X16950981Y-17039100D01*
X17065267Y-17339100D02*
X17079553Y-17324814D01*
X17108124Y-17281957D01*
X17122410Y-17253386D01*
X17136696Y-17210529D01*
X17150981Y-17139100D01*
X17150981Y-17081957D01*
X17136696Y-17010529D01*
X17122410Y-16967672D01*
X17108124Y-16939100D01*
X17079553Y-16896243D01*
X17065267Y-16881957D01*
X7560548Y-17652238D02*
X7560548Y-17425962D01*
X7334272Y-17425962D01*
X7334272Y-17652238D01*
X7560548Y-17652238D01*
X7865267Y-17374814D02*
X8050981Y-17374814D01*
X7950981Y-17489100D01*
X7993838Y-17489100D01*
X8022410Y-17503386D01*
X8036696Y-17517672D01*
X8050981Y-17546243D01*
X8050981Y-17617672D01*
X8036696Y-17646243D01*
X8022410Y-17660529D01*
X7993838Y-17674814D01*
X7908124Y-17674814D01*
X7879553Y-17660529D01*
X7865267Y-17646243D01*
X8179553Y-17646243D02*
X8193838Y-17660529D01*
X8179553Y-17674814D01*
X8165267Y-17660529D01*
X8179553Y-17646243D01*
X8179553Y-17674814D01*
X8308124Y-17403386D02*
X8322410Y-17389100D01*
X8350981Y-17374814D01*
X8422410Y-17374814D01*
X8450981Y-17389100D01*
X8465267Y-17403386D01*
X8479553Y-17431957D01*
X8479553Y-17460529D01*
X8465267Y-17503386D01*
X8293838Y-17674814D01*
X8479553Y-17674814D01*
X8665267Y-17374814D02*
X8693838Y-17374814D01*
X8722410Y-17389100D01*
X8736696Y-17403386D01*
X8750981Y-17431957D01*
X8765267Y-17489100D01*
X8765267Y-17560529D01*
X8750981Y-17617672D01*
X8736696Y-17646243D01*
X8722410Y-17660529D01*
X8693838Y-17674814D01*
X8665267Y-17674814D01*
X8636696Y-17660529D01*
X8622410Y-17646243D01*
X8608124Y-17617672D01*
X8593838Y-17560529D01*
X8593838Y-17489100D01*
X8608124Y-17431957D01*
X8622410Y-17403386D01*
X8636696Y-17389100D01*
X8665267Y-17374814D01*
X8893838Y-17674814D02*
X8893838Y-17474814D01*
X8893838Y-17503386D02*
X8908124Y-17489100D01*
X8936696Y-17474814D01*
X8979553Y-17474814D01*
X9008124Y-17489100D01*
X9022410Y-17517672D01*
X9022410Y-17674814D01*
X9022410Y-17517672D02*
X9036696Y-17489100D01*
X9065267Y-17474814D01*
X9108124Y-17474814D01*
X9136696Y-17489100D01*
X9150981Y-17517672D01*
X9150981Y-17674814D01*
X9293838Y-17674814D02*
X9293838Y-17474814D01*
X9293838Y-17503386D02*
X9308124Y-17489100D01*
X9336696Y-17474814D01*
X9379553Y-17474814D01*
X9408124Y-17489100D01*
X9422410Y-17517672D01*
X9422410Y-17674814D01*
X9422410Y-17517672D02*
X9436696Y-17489100D01*
X9465267Y-17474814D01*
X9508124Y-17474814D01*
X9536696Y-17489100D01*
X9550981Y-17517672D01*
X9550981Y-17674814D01*
X10136696Y-17360529D02*
X9879553Y-17746243D01*
X10522410Y-17374814D02*
X10550981Y-17374814D01*
X10579553Y-17389100D01*
X10593838Y-17403386D01*
X10608124Y-17431957D01*
X10622410Y-17489100D01*
X10622410Y-17560529D01*
X10608124Y-17617672D01*
X10593838Y-17646243D01*
X10579553Y-17660529D01*
X10550981Y-17674814D01*
X10522410Y-17674814D01*
X10493838Y-17660529D01*
X10479553Y-17646243D01*
X10465267Y-17617672D01*
X10450981Y-17560529D01*
X10450981Y-17489100D01*
X10465267Y-17431957D01*
X10479553Y-17403386D01*
X10493838Y-17389100D01*
X10522410Y-17374814D01*
X10750981Y-17646243D02*
X10765267Y-17660529D01*
X10750981Y-17674814D01*
X10736696Y-17660529D01*
X10750981Y-17646243D01*
X10750981Y-17674814D01*
X11050981Y-17674814D02*
X10879553Y-17674814D01*
X10965267Y-17674814D02*
X10965267Y-17374814D01*
X10936696Y-17417672D01*
X10908124Y-17446243D01*
X10879553Y-17460529D01*
X11165267Y-17403386D02*
X11179553Y-17389100D01*
X11208124Y-17374814D01*
X11279553Y-17374814D01*
X11308124Y-17389100D01*
X11322410Y-17403386D01*
X11336696Y-17431957D01*
X11336696Y-17460529D01*
X11322410Y-17503386D01*
X11150981Y-17674814D01*
X11336696Y-17674814D01*
X11593838Y-17374814D02*
X11536696Y-17374814D01*
X11508124Y-17389100D01*
X11493838Y-17403386D01*
X11465267Y-17446243D01*
X11450981Y-17503386D01*
X11450981Y-17617672D01*
X11465267Y-17646243D01*
X11479553Y-17660529D01*
X11508124Y-17674814D01*
X11565267Y-17674814D01*
X11593838Y-17660529D01*
X11608124Y-17646243D01*
X11622410Y-17617672D01*
X11622410Y-17546243D01*
X11608124Y-17517672D01*
X11593838Y-17503386D01*
X11565267Y-17489100D01*
X11508124Y-17489100D01*
X11479553Y-17503386D01*
X11465267Y-17517672D01*
X11450981Y-17546243D01*
X11736696Y-17374814D02*
X11736696Y-17431957D01*
X11850981Y-17374814D02*
X11850981Y-17431957D01*
X12293838Y-17789100D02*
X12279553Y-17774814D01*
X12250981Y-17731957D01*
X12236696Y-17703386D01*
X12222410Y-17660529D01*
X12208124Y-17589100D01*
X12208124Y-17531957D01*
X12222410Y-17460529D01*
X12236696Y-17417672D01*
X12250981Y-17389100D01*
X12279553Y-17346243D01*
X12293838Y-17331957D01*
X12393838Y-17403386D02*
X12408124Y-17389100D01*
X12436696Y-17374814D01*
X12508124Y-17374814D01*
X12536696Y-17389100D01*
X12550981Y-17403386D01*
X12565267Y-17431957D01*
X12565267Y-17460529D01*
X12550981Y-17503386D01*
X12379553Y-17674814D01*
X12565267Y-17674814D01*
X12922410Y-17674814D02*
X12922410Y-17374814D01*
X13050981Y-17674814D02*
X13050981Y-17517672D01*
X13036696Y-17489100D01*
X13008124Y-17474814D01*
X12965267Y-17474814D01*
X12936696Y-17489100D01*
X12922410Y-17503386D01*
X13236696Y-17674814D02*
X13208124Y-17660529D01*
X13193838Y-17646243D01*
X13179553Y-17617672D01*
X13179553Y-17531957D01*
X13193838Y-17503386D01*
X13208124Y-17489100D01*
X13236696Y-17474814D01*
X13279553Y-17474814D01*
X13308124Y-17489100D01*
X13322410Y-17503386D01*
X13336696Y-17531957D01*
X13336696Y-17617672D01*
X13322410Y-17646243D01*
X13308124Y-17660529D01*
X13279553Y-17674814D01*
X13236696Y-17674814D01*
X13508124Y-17674814D02*
X13479553Y-17660529D01*
X13465267Y-17631957D01*
X13465267Y-17374814D01*
X13736696Y-17660529D02*
X13708124Y-17674814D01*
X13650981Y-17674814D01*
X13622410Y-17660529D01*
X13608124Y-17631957D01*
X13608124Y-17517672D01*
X13622410Y-17489100D01*
X13650981Y-17474814D01*
X13708124Y-17474814D01*
X13736696Y-17489100D01*
X13750981Y-17517672D01*
X13750981Y-17546243D01*
X13608124Y-17574814D01*
X13865267Y-17660529D02*
X13893838Y-17674814D01*
X13950981Y-17674814D01*
X13979553Y-17660529D01*
X13993838Y-17631957D01*
X13993838Y-17617672D01*
X13979553Y-17589100D01*
X13950981Y-17574814D01*
X13908124Y-17574814D01*
X13879553Y-17560529D01*
X13865267Y-17531957D01*
X13865267Y-17517672D01*
X13879553Y-17489100D01*
X13908124Y-17474814D01*
X13950981Y-17474814D01*
X13979553Y-17489100D01*
X14093838Y-17789100D02*
X14108124Y-17774814D01*
X14136696Y-17731957D01*
X14150981Y-17703386D01*
X14165267Y-17660529D01*
X14179553Y-17589100D01*
X14179553Y-17531957D01*
X14165267Y-17460529D01*
X14150981Y-17417672D01*
X14136696Y-17389100D01*
X14108124Y-17346243D01*
X14093838Y-17331957D01*
X14636696Y-17789100D02*
X14622410Y-17774814D01*
X14593838Y-17731957D01*
X14579553Y-17703386D01*
X14565267Y-17660529D01*
X14550981Y-17589100D01*
X14550981Y-17531957D01*
X14565267Y-17460529D01*
X14579553Y-17417672D01*
X14593838Y-17389100D01*
X14622410Y-17346243D01*
X14636696Y-17331957D01*
X14750981Y-17474814D02*
X14750981Y-17674814D01*
X14750981Y-17503386D02*
X14765267Y-17489100D01*
X14793838Y-17474814D01*
X14836696Y-17474814D01*
X14865267Y-17489100D01*
X14879553Y-17517672D01*
X14879553Y-17674814D01*
X15065267Y-17674814D02*
X15036696Y-17660529D01*
X15022410Y-17646243D01*
X15008124Y-17617672D01*
X15008124Y-17531957D01*
X15022410Y-17503386D01*
X15036696Y-17489100D01*
X15065267Y-17474814D01*
X15108124Y-17474814D01*
X15136696Y-17489100D01*
X15150981Y-17503386D01*
X15165267Y-17531957D01*
X15165267Y-17617672D01*
X15150981Y-17646243D01*
X15136696Y-17660529D01*
X15108124Y-17674814D01*
X15065267Y-17674814D01*
X15250981Y-17474814D02*
X15365267Y-17474814D01*
X15293838Y-17374814D02*
X15293838Y-17631957D01*
X15308124Y-17660529D01*
X15336696Y-17674814D01*
X15365267Y-17674814D01*
X15693838Y-17474814D02*
X15693838Y-17774814D01*
X15693838Y-17489100D02*
X15722410Y-17474814D01*
X15779553Y-17474814D01*
X15808124Y-17489100D01*
X15822410Y-17503386D01*
X15836696Y-17531957D01*
X15836696Y-17617672D01*
X15822410Y-17646243D01*
X15808124Y-17660529D01*
X15779553Y-17674814D01*
X15722410Y-17674814D01*
X15693838Y-17660529D01*
X16008124Y-17674814D02*
X15979553Y-17660529D01*
X15965267Y-17631957D01*
X15965267Y-17374814D01*
X16250981Y-17674814D02*
X16250981Y-17517672D01*
X16236696Y-17489100D01*
X16208124Y-17474814D01*
X16150981Y-17474814D01*
X16122410Y-17489100D01*
X16250981Y-17660529D02*
X16222410Y-17674814D01*
X16150981Y-17674814D01*
X16122410Y-17660529D01*
X16108124Y-17631957D01*
X16108124Y-17603386D01*
X16122410Y-17574814D01*
X16150981Y-17560529D01*
X16222410Y-17560529D01*
X16250981Y-17546243D01*
X16350981Y-17474814D02*
X16465267Y-17474814D01*
X16393838Y-17374814D02*
X16393838Y-17631957D01*
X16408124Y-17660529D01*
X16436696Y-17674814D01*
X16465267Y-17674814D01*
X16679553Y-17660529D02*
X16650981Y-17674814D01*
X16593838Y-17674814D01*
X16565267Y-17660529D01*
X16550981Y-17631957D01*
X16550981Y-17517672D01*
X16565267Y-17489100D01*
X16593838Y-17474814D01*
X16650981Y-17474814D01*
X16679553Y-17489100D01*
X16693838Y-17517672D01*
X16693838Y-17546243D01*
X16550981Y-17574814D01*
X16950981Y-17674814D02*
X16950981Y-17374814D01*
X16950981Y-17660529D02*
X16922410Y-17674814D01*
X16865267Y-17674814D01*
X16836696Y-17660529D01*
X16822410Y-17646243D01*
X16808124Y-17617672D01*
X16808124Y-17531957D01*
X16822410Y-17503386D01*
X16836696Y-17489100D01*
X16865267Y-17474814D01*
X16922410Y-17474814D01*
X16950981Y-17489100D01*
X17065267Y-17789100D02*
X17079553Y-17774814D01*
X17108124Y-17731957D01*
X17122410Y-17703386D01*
X17136696Y-17660529D01*
X17150981Y-17589100D01*
X17150981Y-17531957D01*
X17136696Y-17460529D01*
X17122410Y-17417672D01*
X17108124Y-17389100D01*
X17079553Y-17346243D01*
X17065267Y-17331957D01*
X7408020Y-18188490D02*
X7607410Y-17989100D01*
X7408020Y-17789710D01*
X7208630Y-17989100D01*
X7408020Y-18188490D01*
X7865267Y-17824814D02*
X8050981Y-17824814D01*
X7950981Y-17939100D01*
X7993838Y-17939100D01*
X8022410Y-17953386D01*
X8036696Y-17967672D01*
X8050981Y-17996243D01*
X8050981Y-18067672D01*
X8036696Y-18096243D01*
X8022410Y-18110529D01*
X7993838Y-18124814D01*
X7908124Y-18124814D01*
X7879553Y-18110529D01*
X7865267Y-18096243D01*
X8179553Y-18096243D02*
X8193838Y-18110529D01*
X8179553Y-18124814D01*
X8165267Y-18110529D01*
X8179553Y-18096243D01*
X8179553Y-18124814D01*
X8336696Y-18124814D02*
X8393838Y-18124814D01*
X8422410Y-18110529D01*
X8436696Y-18096243D01*
X8465267Y-18053386D01*
X8479553Y-17996243D01*
X8479553Y-17881957D01*
X8465267Y-17853386D01*
X8450981Y-17839100D01*
X8422410Y-17824814D01*
X8365267Y-17824814D01*
X8336696Y-17839100D01*
X8322410Y-17853386D01*
X8308124Y-17881957D01*
X8308124Y-17953386D01*
X8322410Y-17981957D01*
X8336696Y-17996243D01*
X8365267Y-18010529D01*
X8422410Y-18010529D01*
X8450981Y-17996243D01*
X8465267Y-17981957D01*
X8479553Y-17953386D01*
X8622410Y-18124814D02*
X8679553Y-18124814D01*
X8708124Y-18110529D01*
X8722410Y-18096243D01*
X8750981Y-18053386D01*
X8765267Y-17996243D01*
X8765267Y-17881957D01*
X8750981Y-17853386D01*
X8736696Y-17839100D01*
X8708124Y-17824814D01*
X8650981Y-17824814D01*
X8622410Y-17839100D01*
X8608124Y-17853386D01*
X8593838Y-17881957D01*
X8593838Y-17953386D01*
X8608124Y-17981957D01*
X8622410Y-17996243D01*
X8650981Y-18010529D01*
X8708124Y-18010529D01*
X8736696Y-17996243D01*
X8750981Y-17981957D01*
X8765267Y-17953386D01*
X8893838Y-18124814D02*
X8893838Y-17924814D01*
X8893838Y-17953386D02*
X8908124Y-17939100D01*
X8936696Y-17924814D01*
X8979553Y-17924814D01*
X9008124Y-17939100D01*
X9022410Y-17967672D01*
X9022410Y-18124814D01*
X9022410Y-17967672D02*
X9036696Y-17939100D01*
X9065267Y-17924814D01*
X9108124Y-17924814D01*
X9136696Y-17939100D01*
X9150981Y-17967672D01*
X9150981Y-18124814D01*
X9293838Y-18124814D02*
X9293838Y-17924814D01*
X9293838Y-17953386D02*
X9308124Y-17939100D01*
X9336696Y-17924814D01*
X9379553Y-17924814D01*
X9408124Y-17939100D01*
X9422410Y-17967672D01*
X9422410Y-18124814D01*
X9422410Y-17967672D02*
X9436696Y-17939100D01*
X9465267Y-17924814D01*
X9508124Y-17924814D01*
X9536696Y-17939100D01*
X9550981Y-17967672D01*
X9550981Y-18124814D01*
X10136696Y-17810529D02*
X9879553Y-18196243D01*
X10522410Y-17824814D02*
X10550981Y-17824814D01*
X10579553Y-17839100D01*
X10593838Y-17853386D01*
X10608124Y-17881957D01*
X10622410Y-17939100D01*
X10622410Y-18010529D01*
X10608124Y-18067672D01*
X10593838Y-18096243D01*
X10579553Y-18110529D01*
X10550981Y-18124814D01*
X10522410Y-18124814D01*
X10493838Y-18110529D01*
X10479553Y-18096243D01*
X10465267Y-18067672D01*
X10450981Y-18010529D01*
X10450981Y-17939100D01*
X10465267Y-17881957D01*
X10479553Y-17853386D01*
X10493838Y-17839100D01*
X10522410Y-17824814D01*
X10750981Y-18096243D02*
X10765267Y-18110529D01*
X10750981Y-18124814D01*
X10736696Y-18110529D01*
X10750981Y-18096243D01*
X10750981Y-18124814D01*
X11050981Y-18124814D02*
X10879553Y-18124814D01*
X10965267Y-18124814D02*
X10965267Y-17824814D01*
X10936696Y-17867672D01*
X10908124Y-17896243D01*
X10879553Y-17910529D01*
X11322410Y-17824814D02*
X11179553Y-17824814D01*
X11165267Y-17967672D01*
X11179553Y-17953386D01*
X11208124Y-17939100D01*
X11279553Y-17939100D01*
X11308124Y-17953386D01*
X11322410Y-17967672D01*
X11336696Y-17996243D01*
X11336696Y-18067672D01*
X11322410Y-18096243D01*
X11308124Y-18110529D01*
X11279553Y-18124814D01*
X11208124Y-18124814D01*
X11179553Y-18110529D01*
X11165267Y-18096243D01*
X11436696Y-17824814D02*
X11636696Y-17824814D01*
X11508124Y-18124814D01*
X11736696Y-17824814D02*
X11736696Y-17881957D01*
X11850981Y-17824814D02*
X11850981Y-17881957D01*
X12293838Y-18239100D02*
X12279553Y-18224814D01*
X12250981Y-18181957D01*
X12236696Y-18153386D01*
X12222410Y-18110529D01*
X12208124Y-18039100D01*
X12208124Y-17981957D01*
X12222410Y-17910529D01*
X12236696Y-17867672D01*
X12250981Y-17839100D01*
X12279553Y-17796243D01*
X12293838Y-17781957D01*
X12536696Y-17824814D02*
X12479553Y-17824814D01*
X12450981Y-17839100D01*
X12436696Y-17853386D01*
X12408124Y-17896243D01*
X12393838Y-17953386D01*
X12393838Y-18067672D01*
X12408124Y-18096243D01*
X12422410Y-18110529D01*
X12450981Y-18124814D01*
X12508124Y-18124814D01*
X12536696Y-18110529D01*
X12550981Y-18096243D01*
X12565267Y-18067672D01*
X12565267Y-17996243D01*
X12550981Y-17967672D01*
X12536696Y-17953386D01*
X12508124Y-17939100D01*
X12450981Y-17939100D01*
X12422410Y-17953386D01*
X12408124Y-17967672D01*
X12393838Y-17996243D01*
X12922410Y-18124814D02*
X12922410Y-17824814D01*
X13050981Y-18124814D02*
X13050981Y-17967672D01*
X13036696Y-17939100D01*
X13008124Y-17924814D01*
X12965267Y-17924814D01*
X12936696Y-17939100D01*
X12922410Y-17953386D01*
X13236696Y-18124814D02*
X13208124Y-18110529D01*
X13193838Y-18096243D01*
X13179553Y-18067672D01*
X13179553Y-17981957D01*
X13193838Y-17953386D01*
X13208124Y-17939100D01*
X13236696Y-17924814D01*
X13279553Y-17924814D01*
X13308124Y-17939100D01*
X13322410Y-17953386D01*
X13336696Y-17981957D01*
X13336696Y-18067672D01*
X13322410Y-18096243D01*
X13308124Y-18110529D01*
X13279553Y-18124814D01*
X13236696Y-18124814D01*
X13508124Y-18124814D02*
X13479553Y-18110529D01*
X13465267Y-18081957D01*
X13465267Y-17824814D01*
X13736696Y-18110529D02*
X13708124Y-18124814D01*
X13650981Y-18124814D01*
X13622410Y-18110529D01*
X13608124Y-18081957D01*
X13608124Y-17967672D01*
X13622410Y-17939100D01*
X13650981Y-17924814D01*
X13708124Y-17924814D01*
X13736696Y-17939100D01*
X13750981Y-17967672D01*
X13750981Y-17996243D01*
X13608124Y-18024814D01*
X13865267Y-18110529D02*
X13893838Y-18124814D01*
X13950981Y-18124814D01*
X13979553Y-18110529D01*
X13993838Y-18081957D01*
X13993838Y-18067672D01*
X13979553Y-18039100D01*
X13950981Y-18024814D01*
X13908124Y-18024814D01*
X13879553Y-18010529D01*
X13865267Y-17981957D01*
X13865267Y-17967672D01*
X13879553Y-17939100D01*
X13908124Y-17924814D01*
X13950981Y-17924814D01*
X13979553Y-17939100D01*
X14093838Y-18239100D02*
X14108124Y-18224814D01*
X14136696Y-18181957D01*
X14150981Y-18153386D01*
X14165267Y-18110529D01*
X14179553Y-18039100D01*
X14179553Y-17981957D01*
X14165267Y-17910529D01*
X14150981Y-17867672D01*
X14136696Y-17839100D01*
X14108124Y-17796243D01*
X14093838Y-17781957D01*
X14636696Y-18239100D02*
X14622410Y-18224814D01*
X14593838Y-18181957D01*
X14579553Y-18153386D01*
X14565267Y-18110529D01*
X14550981Y-18039100D01*
X14550981Y-17981957D01*
X14565267Y-17910529D01*
X14579553Y-17867672D01*
X14593838Y-17839100D01*
X14622410Y-17796243D01*
X14636696Y-17781957D01*
X14750981Y-17924814D02*
X14750981Y-18124814D01*
X14750981Y-17953386D02*
X14765267Y-17939100D01*
X14793838Y-17924814D01*
X14836696Y-17924814D01*
X14865267Y-17939100D01*
X14879553Y-17967672D01*
X14879553Y-18124814D01*
X15065267Y-18124814D02*
X15036696Y-18110529D01*
X15022410Y-18096243D01*
X15008124Y-18067672D01*
X15008124Y-17981957D01*
X15022410Y-17953386D01*
X15036696Y-17939100D01*
X15065267Y-17924814D01*
X15108124Y-17924814D01*
X15136696Y-17939100D01*
X15150981Y-17953386D01*
X15165267Y-17981957D01*
X15165267Y-18067672D01*
X15150981Y-18096243D01*
X15136696Y-18110529D01*
X15108124Y-18124814D01*
X15065267Y-18124814D01*
X15250981Y-17924814D02*
X15365267Y-17924814D01*
X15293838Y-17824814D02*
X15293838Y-18081957D01*
X15308124Y-18110529D01*
X15336696Y-18124814D01*
X15365267Y-18124814D01*
X15693838Y-17924814D02*
X15693838Y-18224814D01*
X15693838Y-17939100D02*
X15722410Y-17924814D01*
X15779553Y-17924814D01*
X15808124Y-17939100D01*
X15822410Y-17953386D01*
X15836696Y-17981957D01*
X15836696Y-18067672D01*
X15822410Y-18096243D01*
X15808124Y-18110529D01*
X15779553Y-18124814D01*
X15722410Y-18124814D01*
X15693838Y-18110529D01*
X16008124Y-18124814D02*
X15979553Y-18110529D01*
X15965267Y-18081957D01*
X15965267Y-17824814D01*
X16250981Y-18124814D02*
X16250981Y-17967672D01*
X16236696Y-17939100D01*
X16208124Y-17924814D01*
X16150981Y-17924814D01*
X16122410Y-17939100D01*
X16250981Y-18110529D02*
X16222410Y-18124814D01*
X16150981Y-18124814D01*
X16122410Y-18110529D01*
X16108124Y-18081957D01*
X16108124Y-18053386D01*
X16122410Y-18024814D01*
X16150981Y-18010529D01*
X16222410Y-18010529D01*
X16250981Y-17996243D01*
X16350981Y-17924814D02*
X16465267Y-17924814D01*
X16393838Y-17824814D02*
X16393838Y-18081957D01*
X16408124Y-18110529D01*
X16436696Y-18124814D01*
X16465267Y-18124814D01*
X16679553Y-18110529D02*
X16650981Y-18124814D01*
X16593838Y-18124814D01*
X16565267Y-18110529D01*
X16550981Y-18081957D01*
X16550981Y-17967672D01*
X16565267Y-17939100D01*
X16593838Y-17924814D01*
X16650981Y-17924814D01*
X16679553Y-17939100D01*
X16693838Y-17967672D01*
X16693838Y-17996243D01*
X16550981Y-18024814D01*
X16950981Y-18124814D02*
X16950981Y-17824814D01*
X16950981Y-18110529D02*
X16922410Y-18124814D01*
X16865267Y-18124814D01*
X16836696Y-18110529D01*
X16822410Y-18096243D01*
X16808124Y-18067672D01*
X16808124Y-17981957D01*
X16822410Y-17953386D01*
X16836696Y-17939100D01*
X16865267Y-17924814D01*
X16922410Y-17924814D01*
X16950981Y-17939100D01*
X17065267Y-18239100D02*
X17079553Y-18224814D01*
X17108124Y-18181957D01*
X17122410Y-18153386D01*
X17136696Y-18110529D01*
X17150981Y-18039100D01*
X17150981Y-17981957D01*
X17136696Y-17910529D01*
X17122410Y-17867672D01*
X17108124Y-17839100D01*
X17079553Y-17796243D01*
X17065267Y-17781957D01*
X7198470Y-18313410D02*
X7607410Y-18722350D01*
X7607410Y-18313410D02*
X7198470Y-18722350D01*
X7607410Y-18517880D02*
G75*
G03*
X7607410Y-18517880I-204470J0D01*
G01*
X8022410Y-18453594D02*
X8022410Y-18653594D01*
X7950981Y-18339309D02*
X7879553Y-18553594D01*
X8065267Y-18553594D01*
X8179553Y-18625023D02*
X8193838Y-18639309D01*
X8179553Y-18653594D01*
X8165267Y-18639309D01*
X8179553Y-18625023D01*
X8179553Y-18653594D01*
X8379553Y-18353594D02*
X8408124Y-18353594D01*
X8436696Y-18367880D01*
X8450981Y-18382166D01*
X8465267Y-18410737D01*
X8479553Y-18467880D01*
X8479553Y-18539309D01*
X8465267Y-18596452D01*
X8450981Y-18625023D01*
X8436696Y-18639309D01*
X8408124Y-18653594D01*
X8379553Y-18653594D01*
X8350981Y-18639309D01*
X8336696Y-18625023D01*
X8322410Y-18596452D01*
X8308124Y-18539309D01*
X8308124Y-18467880D01*
X8322410Y-18410737D01*
X8336696Y-18382166D01*
X8350981Y-18367880D01*
X8379553Y-18353594D01*
X8622410Y-18653594D02*
X8679553Y-18653594D01*
X8708124Y-18639309D01*
X8722410Y-18625023D01*
X8750981Y-18582166D01*
X8765267Y-18525023D01*
X8765267Y-18410737D01*
X8750981Y-18382166D01*
X8736696Y-18367880D01*
X8708124Y-18353594D01*
X8650981Y-18353594D01*
X8622410Y-18367880D01*
X8608124Y-18382166D01*
X8593838Y-18410737D01*
X8593838Y-18482166D01*
X8608124Y-18510737D01*
X8622410Y-18525023D01*
X8650981Y-18539309D01*
X8708124Y-18539309D01*
X8736696Y-18525023D01*
X8750981Y-18510737D01*
X8765267Y-18482166D01*
X8893838Y-18653594D02*
X8893838Y-18453594D01*
X8893838Y-18482166D02*
X8908124Y-18467880D01*
X8936696Y-18453594D01*
X8979553Y-18453594D01*
X9008124Y-18467880D01*
X9022410Y-18496452D01*
X9022410Y-18653594D01*
X9022410Y-18496452D02*
X9036696Y-18467880D01*
X9065267Y-18453594D01*
X9108124Y-18453594D01*
X9136696Y-18467880D01*
X9150981Y-18496452D01*
X9150981Y-18653594D01*
X9293838Y-18653594D02*
X9293838Y-18453594D01*
X9293838Y-18482166D02*
X9308124Y-18467880D01*
X9336696Y-18453594D01*
X9379553Y-18453594D01*
X9408124Y-18467880D01*
X9422410Y-18496452D01*
X9422410Y-18653594D01*
X9422410Y-18496452D02*
X9436696Y-18467880D01*
X9465267Y-18453594D01*
X9508124Y-18453594D01*
X9536696Y-18467880D01*
X9550981Y-18496452D01*
X9550981Y-18653594D01*
X10136696Y-18339309D02*
X9879553Y-18725023D01*
X10522410Y-18353594D02*
X10550981Y-18353594D01*
X10579553Y-18367880D01*
X10593838Y-18382166D01*
X10608124Y-18410737D01*
X10622410Y-18467880D01*
X10622410Y-18539309D01*
X10608124Y-18596452D01*
X10593838Y-18625023D01*
X10579553Y-18639309D01*
X10550981Y-18653594D01*
X10522410Y-18653594D01*
X10493838Y-18639309D01*
X10479553Y-18625023D01*
X10465267Y-18596452D01*
X10450981Y-18539309D01*
X10450981Y-18467880D01*
X10465267Y-18410737D01*
X10479553Y-18382166D01*
X10493838Y-18367880D01*
X10522410Y-18353594D01*
X10750981Y-18625023D02*
X10765267Y-18639309D01*
X10750981Y-18653594D01*
X10736696Y-18639309D01*
X10750981Y-18625023D01*
X10750981Y-18653594D01*
X11050981Y-18653594D02*
X10879553Y-18653594D01*
X10965267Y-18653594D02*
X10965267Y-18353594D01*
X10936696Y-18396452D01*
X10908124Y-18425023D01*
X10879553Y-18439309D01*
X11308124Y-18353594D02*
X11250981Y-18353594D01*
X11222410Y-18367880D01*
X11208124Y-18382166D01*
X11179553Y-18425023D01*
X11165267Y-18482166D01*
X11165267Y-18596452D01*
X11179553Y-18625023D01*
X11193838Y-18639309D01*
X11222410Y-18653594D01*
X11279553Y-18653594D01*
X11308124Y-18639309D01*
X11322410Y-18625023D01*
X11336696Y-18596452D01*
X11336696Y-18525023D01*
X11322410Y-18496452D01*
X11308124Y-18482166D01*
X11279553Y-18467880D01*
X11222410Y-18467880D01*
X11193838Y-18482166D01*
X11179553Y-18496452D01*
X11165267Y-18525023D01*
X11622410Y-18653594D02*
X11450981Y-18653594D01*
X11536696Y-18653594D02*
X11536696Y-18353594D01*
X11508124Y-18396452D01*
X11479553Y-18425023D01*
X11450981Y-18439309D01*
X11736696Y-18353594D02*
X11736696Y-18410737D01*
X11850981Y-18353594D02*
X11850981Y-18410737D01*
X12293838Y-18767880D02*
X12279553Y-18753594D01*
X12250981Y-18710737D01*
X12236696Y-18682166D01*
X12222410Y-18639309D01*
X12208124Y-18567880D01*
X12208124Y-18510737D01*
X12222410Y-18439309D01*
X12236696Y-18396452D01*
X12250981Y-18367880D01*
X12279553Y-18325023D01*
X12293838Y-18310737D01*
X12565267Y-18653594D02*
X12393838Y-18653594D01*
X12479553Y-18653594D02*
X12479553Y-18353594D01*
X12450981Y-18396452D01*
X12422410Y-18425023D01*
X12393838Y-18439309D01*
X12665267Y-18353594D02*
X12850981Y-18353594D01*
X12750981Y-18467880D01*
X12793838Y-18467880D01*
X12822410Y-18482166D01*
X12836696Y-18496452D01*
X12850981Y-18525023D01*
X12850981Y-18596452D01*
X12836696Y-18625023D01*
X12822410Y-18639309D01*
X12793838Y-18653594D01*
X12708124Y-18653594D01*
X12679553Y-18639309D01*
X12665267Y-18625023D01*
X13208124Y-18653594D02*
X13208124Y-18353594D01*
X13336696Y-18653594D02*
X13336696Y-18496452D01*
X13322410Y-18467880D01*
X13293838Y-18453594D01*
X13250981Y-18453594D01*
X13222410Y-18467880D01*
X13208124Y-18482166D01*
X13522410Y-18653594D02*
X13493838Y-18639309D01*
X13479553Y-18625023D01*
X13465267Y-18596452D01*
X13465267Y-18510737D01*
X13479553Y-18482166D01*
X13493838Y-18467880D01*
X13522410Y-18453594D01*
X13565267Y-18453594D01*
X13593838Y-18467880D01*
X13608124Y-18482166D01*
X13622410Y-18510737D01*
X13622410Y-18596452D01*
X13608124Y-18625023D01*
X13593838Y-18639309D01*
X13565267Y-18653594D01*
X13522410Y-18653594D01*
X13793838Y-18653594D02*
X13765267Y-18639309D01*
X13750981Y-18610737D01*
X13750981Y-18353594D01*
X14022410Y-18639309D02*
X13993838Y-18653594D01*
X13936696Y-18653594D01*
X13908124Y-18639309D01*
X13893838Y-18610737D01*
X13893838Y-18496452D01*
X13908124Y-18467880D01*
X13936696Y-18453594D01*
X13993838Y-18453594D01*
X14022410Y-18467880D01*
X14036696Y-18496452D01*
X14036696Y-18525023D01*
X13893838Y-18553594D01*
X14150981Y-18639309D02*
X14179553Y-18653594D01*
X14236696Y-18653594D01*
X14265267Y-18639309D01*
X14279553Y-18610737D01*
X14279553Y-18596452D01*
X14265267Y-18567880D01*
X14236696Y-18553594D01*
X14193838Y-18553594D01*
X14165267Y-18539309D01*
X14150981Y-18510737D01*
X14150981Y-18496452D01*
X14165267Y-18467880D01*
X14193838Y-18453594D01*
X14236696Y-18453594D01*
X14265267Y-18467880D01*
X14379553Y-18767880D02*
X14393838Y-18753594D01*
X14422410Y-18710737D01*
X14436696Y-18682166D01*
X14450981Y-18639309D01*
X14465267Y-18567880D01*
X14465267Y-18510737D01*
X14450981Y-18439309D01*
X14436696Y-18396452D01*
X14422410Y-18367880D01*
X14393838Y-18325023D01*
X14379553Y-18310737D01*
X14922410Y-18767880D02*
X14908124Y-18753594D01*
X14879553Y-18710737D01*
X14865267Y-18682166D01*
X14850981Y-18639309D01*
X14836696Y-18567880D01*
X14836696Y-18510737D01*
X14850981Y-18439309D01*
X14865267Y-18396452D01*
X14879553Y-18367880D01*
X14908124Y-18325023D01*
X14922410Y-18310737D01*
X15036696Y-18453594D02*
X15036696Y-18653594D01*
X15036696Y-18482166D02*
X15050981Y-18467880D01*
X15079553Y-18453594D01*
X15122410Y-18453594D01*
X15150981Y-18467880D01*
X15165267Y-18496452D01*
X15165267Y-18653594D01*
X15350981Y-18653594D02*
X15322410Y-18639309D01*
X15308124Y-18625023D01*
X15293838Y-18596452D01*
X15293838Y-18510737D01*
X15308124Y-18482166D01*
X15322410Y-18467880D01*
X15350981Y-18453594D01*
X15393838Y-18453594D01*
X15422410Y-18467880D01*
X15436696Y-18482166D01*
X15450981Y-18510737D01*
X15450981Y-18596452D01*
X15436696Y-18625023D01*
X15422410Y-18639309D01*
X15393838Y-18653594D01*
X15350981Y-18653594D01*
X15536696Y-18453594D02*
X15650981Y-18453594D01*
X15579553Y-18353594D02*
X15579553Y-18610737D01*
X15593838Y-18639309D01*
X15622410Y-18653594D01*
X15650981Y-18653594D01*
X15979553Y-18453594D02*
X15979553Y-18753594D01*
X15979553Y-18467880D02*
X16008124Y-18453594D01*
X16065267Y-18453594D01*
X16093838Y-18467880D01*
X16108124Y-18482166D01*
X16122410Y-18510737D01*
X16122410Y-18596452D01*
X16108124Y-18625023D01*
X16093838Y-18639309D01*
X16065267Y-18653594D01*
X16008124Y-18653594D01*
X15979553Y-18639309D01*
X16293838Y-18653594D02*
X16265267Y-18639309D01*
X16250981Y-18610737D01*
X16250981Y-18353594D01*
X16536696Y-18653594D02*
X16536696Y-18496452D01*
X16522410Y-18467880D01*
X16493838Y-18453594D01*
X16436696Y-18453594D01*
X16408124Y-18467880D01*
X16536696Y-18639309D02*
X16508124Y-18653594D01*
X16436696Y-18653594D01*
X16408124Y-18639309D01*
X16393838Y-18610737D01*
X16393838Y-18582166D01*
X16408124Y-18553594D01*
X16436696Y-18539309D01*
X16508124Y-18539309D01*
X16536696Y-18525023D01*
X16636696Y-18453594D02*
X16750981Y-18453594D01*
X16679553Y-18353594D02*
X16679553Y-18610737D01*
X16693838Y-18639309D01*
X16722410Y-18653594D01*
X16750981Y-18653594D01*
X16965267Y-18639309D02*
X16936696Y-18653594D01*
X16879553Y-18653594D01*
X16850981Y-18639309D01*
X16836696Y-18610737D01*
X16836696Y-18496452D01*
X16850981Y-18467880D01*
X16879553Y-18453594D01*
X16936696Y-18453594D01*
X16965267Y-18467880D01*
X16979553Y-18496452D01*
X16979553Y-18525023D01*
X16836696Y-18553594D01*
X17236696Y-18653594D02*
X17236696Y-18353594D01*
X17236696Y-18639309D02*
X17208124Y-18653594D01*
X17150981Y-18653594D01*
X17122410Y-18639309D01*
X17108124Y-18625023D01*
X17093838Y-18596452D01*
X17093838Y-18510737D01*
X17108124Y-18482166D01*
X17122410Y-18467880D01*
X17150981Y-18453594D01*
X17208124Y-18453594D01*
X17236696Y-18467880D01*
X17350981Y-18767880D02*
X17365267Y-18753594D01*
X17393838Y-18710737D01*
X17408124Y-18682166D01*
X17422410Y-18639309D01*
X17436696Y-18567880D01*
X17436696Y-18510737D01*
X17422410Y-18439309D01*
X17408124Y-18396452D01*
X17393838Y-18367880D01*
X17365267Y-18325023D01*
X17350981Y-18310737D01*
M02*
