G04 #@! TF.GenerationSoftware,KiCad,Pcbnew,(5.1.9)-1*
G04 #@! TF.CreationDate,2021-06-17T16:50:29+01:00*
G04 #@! TF.ProjectId,AutoPilot,4175746f-5069-46c6-9f74-2e6b69636164,0.3*
G04 #@! TF.SameCoordinates,Original*
G04 #@! TF.FileFunction,Soldermask,Top*
G04 #@! TF.FilePolarity,Negative*
%FSLAX46Y46*%
G04 Gerber Fmt 4.6, Leading zero omitted, Abs format (unit mm)*
G04 Created by KiCad (PCBNEW (5.1.9)-1) date 2021-06-17 16:50:29*
%MOMM*%
%LPD*%
G01*
G04 APERTURE LIST*
%ADD10C,1.727200*%
%ADD11C,3.505200*%
%ADD12C,3.200001*%
%ADD13C,3.987800*%
%ADD14C,3.048000*%
%ADD15C,4.089400*%
%ADD16C,1.706881*%
%ADD17C,2.235200*%
%ADD18C,3.429000*%
%ADD19C,3.200000*%
%ADD20R,2.000000X3.250000*%
%ADD21R,3.250000X2.000000*%
%ADD22C,1.752600*%
%ADD23R,1.752600X1.752600*%
%ADD24C,2.000000*%
%ADD25O,3.251200X1.727200*%
G04 APERTURE END LIST*
D10*
X80137000Y-102616000D03*
X80137000Y-107696000D03*
X94615000Y-102616000D03*
D11*
X87630000Y-98552000D03*
X87630000Y-111760000D03*
D10*
X94615000Y-107696000D03*
X80137000Y-105156000D03*
D12*
X84836000Y-93726000D03*
D13*
X157988000Y-83629500D03*
X157988000Y-107505500D03*
D14*
X173228000Y-107505500D03*
X173228000Y-83629500D03*
D15*
X166243000Y-95567500D03*
D16*
X166243000Y-100647500D03*
X166243000Y-90487500D03*
D17*
X171323000Y-96837500D03*
X171323000Y-94297500D03*
D18*
X163703000Y-99377500D03*
X161163000Y-93027500D03*
D13*
X157988000Y-121729500D03*
X157988000Y-145605500D03*
D14*
X173228000Y-145605500D03*
X173228000Y-121729500D03*
D15*
X166243000Y-133667500D03*
D16*
X166243000Y-138747500D03*
X166243000Y-128587500D03*
D17*
X171323000Y-134937500D03*
X171323000Y-132397500D03*
D18*
X163703000Y-137477500D03*
X161163000Y-131127500D03*
D13*
X106680000Y-134937500D03*
X130556000Y-134937500D03*
D14*
X130556000Y-150177500D03*
X106680000Y-150177500D03*
D18*
X121158000Y-138112500D03*
X114808000Y-140652500D03*
D17*
X119888000Y-148272500D03*
X117348000Y-148272500D03*
D16*
X123698000Y-143192500D03*
X113538000Y-143192500D03*
D15*
X118618000Y-143192500D03*
D19*
X118618000Y-114554000D03*
D20*
X93472000Y-86741000D03*
X90932000Y-86741000D03*
X88392000Y-86741000D03*
X85852000Y-86741000D03*
X83312000Y-86741000D03*
D21*
X97790000Y-56896000D03*
X97790000Y-59436000D03*
X97790000Y-61976000D03*
X97790000Y-64516000D03*
X97790000Y-67056000D03*
X97790000Y-69596000D03*
X97790000Y-72136000D03*
X97790000Y-74676000D03*
X97790000Y-77216000D03*
X97790000Y-79756000D03*
X97790000Y-82296000D03*
X97790000Y-84836000D03*
X78994000Y-84836000D03*
X78994000Y-82296000D03*
X78994000Y-79756000D03*
X78994000Y-77216000D03*
X78994000Y-74676000D03*
X78994000Y-72136000D03*
X78994000Y-69596000D03*
X78994000Y-67056000D03*
X78994000Y-64516000D03*
X78994000Y-61976000D03*
X78994000Y-59436000D03*
X78994000Y-56896000D03*
D22*
X83312000Y-84836000D03*
X85852000Y-84836000D03*
X88392000Y-84836000D03*
X90932000Y-84836000D03*
X93472000Y-84836000D03*
X96012000Y-56896000D03*
X81000600Y-84836000D03*
X96012000Y-59436000D03*
X96012000Y-61976000D03*
X96012000Y-64516000D03*
X96012000Y-67056000D03*
X96012000Y-69596000D03*
X96012000Y-72136000D03*
X96012000Y-74676000D03*
X96012000Y-77216000D03*
X96012000Y-79756000D03*
X96012000Y-82296000D03*
X96012000Y-84836000D03*
X80772000Y-82296000D03*
X80772000Y-79756000D03*
X80772000Y-77216000D03*
X80772000Y-74676000D03*
X80772000Y-72136000D03*
X80772000Y-69596000D03*
X80772000Y-67056000D03*
X80772000Y-64516000D03*
X80772000Y-61976000D03*
X80772000Y-59436000D03*
D23*
X80772000Y-56896000D03*
D19*
X118618000Y-75692000D03*
X121920000Y-56388000D03*
X172466000Y-58166000D03*
X81280000Y-147828000D03*
D12*
X172466000Y-114554000D03*
D18*
X111633000Y-100012500D03*
X105283000Y-102552500D03*
D17*
X110363000Y-110172500D03*
X107823000Y-110172500D03*
D16*
X114173000Y-105092500D03*
X104013000Y-105092500D03*
D15*
X109093000Y-105092500D03*
D24*
X103228000Y-60452000D03*
X103228000Y-55952000D03*
X109728000Y-60452000D03*
X109728000Y-55952000D03*
D25*
X116840000Y-68072000D03*
X116840000Y-65532000D03*
X116840000Y-62992000D03*
X116840000Y-60452000D03*
D18*
X149733000Y-138112500D03*
X143383000Y-140652500D03*
D17*
X148463000Y-148272500D03*
X145923000Y-148272500D03*
D16*
X152273000Y-143192500D03*
X142113000Y-143192500D03*
D15*
X147193000Y-143192500D03*
D18*
X130683000Y-80962500D03*
X124333000Y-83502500D03*
D17*
X129413000Y-91122500D03*
X126873000Y-91122500D03*
D16*
X133223000Y-86042500D03*
X123063000Y-86042500D03*
D15*
X128143000Y-86042500D03*
D10*
X80251300Y-122428000D03*
X80251300Y-127508000D03*
X94729300Y-122428000D03*
D11*
X87744300Y-118364000D03*
X87744300Y-131572000D03*
D10*
X94729300Y-127508000D03*
X80251300Y-124968000D03*
D18*
X149733000Y-80962500D03*
X143383000Y-83502500D03*
D17*
X148463000Y-91122500D03*
X145923000Y-91122500D03*
D16*
X152273000Y-86042500D03*
X142113000Y-86042500D03*
D15*
X147193000Y-86042500D03*
D18*
X130683000Y-100012500D03*
X124333000Y-102552500D03*
D17*
X129413000Y-110172500D03*
X126873000Y-110172500D03*
D16*
X133223000Y-105092500D03*
X123063000Y-105092500D03*
D15*
X128143000Y-105092500D03*
D18*
X149733000Y-100012500D03*
X143383000Y-102552500D03*
D17*
X148463000Y-110172500D03*
X145923000Y-110172500D03*
D16*
X152273000Y-105092500D03*
X142113000Y-105092500D03*
D15*
X147193000Y-105092500D03*
D18*
X111633000Y-119062500D03*
X105283000Y-121602500D03*
D17*
X110363000Y-129222500D03*
X107823000Y-129222500D03*
D16*
X114173000Y-124142500D03*
X104013000Y-124142500D03*
D15*
X109093000Y-124142500D03*
D18*
X130683000Y-119062500D03*
X124333000Y-121602500D03*
D17*
X129413000Y-129222500D03*
X126873000Y-129222500D03*
D16*
X133223000Y-124142500D03*
X123063000Y-124142500D03*
D15*
X128143000Y-124142500D03*
D18*
X149733000Y-119062500D03*
X143383000Y-121602500D03*
D17*
X148463000Y-129222500D03*
X145923000Y-129222500D03*
D16*
X152273000Y-124142500D03*
X142113000Y-124142500D03*
D15*
X147193000Y-124142500D03*
D18*
X111633000Y-80962500D03*
X105283000Y-83502500D03*
D17*
X110363000Y-91122500D03*
X107823000Y-91122500D03*
D16*
X114173000Y-86042500D03*
X104013000Y-86042500D03*
D15*
X109093000Y-86042500D03*
M02*
