M48
; DRILL file {KiCad (5.1.9)-1} date 06/17/21 16:50:45
; FORMAT={-:-/ absolute / metric / decimal}
; #@! TF.CreationDate,2021-06-17T16:50:45+01:00
; #@! TF.GenerationSoftware,Kicad,Pcbnew,(5.1.9)-1
; #@! TF.FileFunction,NonPlated,1,2,NPTH
FMAT,2
METRIC
T1C1.707
T2C3.048
T3C3.200
T4C3.200
T5C3.988
T6C4.089
%
G90
G05
T1
X104.013Y-86.042
X104.013Y-105.093
X104.013Y-124.142
X113.538Y-143.192
X114.173Y-86.042
X114.173Y-105.093
X114.173Y-124.142
X123.063Y-86.042
X123.063Y-105.093
X123.063Y-124.142
X123.698Y-143.192
X133.223Y-86.042
X133.223Y-105.093
X133.223Y-124.142
X142.113Y-86.042
X142.113Y-105.093
X142.113Y-124.142
X142.113Y-143.192
X152.273Y-86.042
X152.273Y-105.093
X152.273Y-124.142
X152.273Y-143.192
X166.243Y-90.487
X166.243Y-100.647
X166.243Y-128.588
X166.243Y-138.748
T2
X106.68Y-150.177
X130.556Y-150.177
X173.228Y-83.629
X173.228Y-107.505
X173.228Y-121.73
X173.228Y-145.606
T3
X81.28Y-147.828
X118.618Y-75.692
X118.618Y-114.554
X121.92Y-56.388
X172.466Y-58.166
T4
X84.836Y-93.726
X172.466Y-114.554
T5
X106.68Y-134.938
X130.556Y-134.938
X157.988Y-83.629
X157.988Y-107.505
X157.988Y-121.73
X157.988Y-145.606
T6
X109.093Y-86.042
X109.093Y-105.093
X109.093Y-124.142
X118.618Y-143.192
X128.143Y-86.042
X128.143Y-105.093
X128.143Y-124.142
X147.193Y-86.042
X147.193Y-105.093
X147.193Y-124.142
X147.193Y-143.192
X166.243Y-95.567
X166.243Y-133.667
T0
M30
