G04 #@! TF.GenerationSoftware,KiCad,Pcbnew,(5.1.9)-1*
G04 #@! TF.CreationDate,2021-06-17T16:50:29+01:00*
G04 #@! TF.ProjectId,AutoPilot,4175746f-5069-46c6-9f74-2e6b69636164,0.3*
G04 #@! TF.SameCoordinates,Original*
G04 #@! TF.FileFunction,Soldermask,Bot*
G04 #@! TF.FilePolarity,Negative*
%FSLAX46Y46*%
G04 Gerber Fmt 4.6, Leading zero omitted, Abs format (unit mm)*
G04 Created by KiCad (PCBNEW (5.1.9)-1) date 2021-06-17 16:50:29*
%MOMM*%
%LPD*%
G01*
G04 APERTURE LIST*
%ADD10C,1.727200*%
%ADD11C,3.505200*%
%ADD12C,3.200001*%
%ADD13C,3.987800*%
%ADD14C,3.048000*%
%ADD15C,4.089400*%
%ADD16C,1.706881*%
%ADD17C,2.235200*%
%ADD18C,3.429000*%
%ADD19R,1.200000X0.900000*%
%ADD20C,3.200000*%
%ADD21C,1.752600*%
%ADD22R,1.752600X1.752600*%
%ADD23C,2.000000*%
%ADD24O,3.251200X1.727200*%
G04 APERTURE END LIST*
D10*
X80137000Y-102616000D03*
X80137000Y-107696000D03*
X94615000Y-102616000D03*
D11*
X87630000Y-98552000D03*
X87630000Y-111760000D03*
D10*
X94615000Y-107696000D03*
X80137000Y-105156000D03*
G36*
G01*
X124656002Y-64116000D02*
X123755998Y-64116000D01*
G75*
G02*
X123506000Y-63866002I0J249998D01*
G01*
X123506000Y-63340998D01*
G75*
G02*
X123755998Y-63091000I249998J0D01*
G01*
X124656002Y-63091000D01*
G75*
G02*
X124906000Y-63340998I0J-249998D01*
G01*
X124906000Y-63866002D01*
G75*
G02*
X124656002Y-64116000I-249998J0D01*
G01*
G37*
G36*
G01*
X124656002Y-65941000D02*
X123755998Y-65941000D01*
G75*
G02*
X123506000Y-65691002I0J249998D01*
G01*
X123506000Y-65165998D01*
G75*
G02*
X123755998Y-64916000I249998J0D01*
G01*
X124656002Y-64916000D01*
G75*
G02*
X124906000Y-65165998I0J-249998D01*
G01*
X124906000Y-65691002D01*
G75*
G02*
X124656002Y-65941000I-249998J0D01*
G01*
G37*
G36*
G01*
X121608002Y-64116000D02*
X120707998Y-64116000D01*
G75*
G02*
X120458000Y-63866002I0J249998D01*
G01*
X120458000Y-63340998D01*
G75*
G02*
X120707998Y-63091000I249998J0D01*
G01*
X121608002Y-63091000D01*
G75*
G02*
X121858000Y-63340998I0J-249998D01*
G01*
X121858000Y-63866002D01*
G75*
G02*
X121608002Y-64116000I-249998J0D01*
G01*
G37*
G36*
G01*
X121608002Y-65941000D02*
X120707998Y-65941000D01*
G75*
G02*
X120458000Y-65691002I0J249998D01*
G01*
X120458000Y-65165998D01*
G75*
G02*
X120707998Y-64916000I249998J0D01*
G01*
X121608002Y-64916000D01*
G75*
G02*
X121858000Y-65165998I0J-249998D01*
G01*
X121858000Y-65691002D01*
G75*
G02*
X121608002Y-65941000I-249998J0D01*
G01*
G37*
D12*
X84836000Y-93726000D03*
D13*
X157988000Y-83629500D03*
X157988000Y-107505500D03*
D14*
X173228000Y-107505500D03*
X173228000Y-83629500D03*
D15*
X166243000Y-95567500D03*
D16*
X166243000Y-100647500D03*
X166243000Y-90487500D03*
D17*
X171323000Y-96837500D03*
X171323000Y-94297500D03*
D18*
X163703000Y-99377500D03*
X161163000Y-93027500D03*
D13*
X157988000Y-121729500D03*
X157988000Y-145605500D03*
D14*
X173228000Y-145605500D03*
X173228000Y-121729500D03*
D15*
X166243000Y-133667500D03*
D16*
X166243000Y-138747500D03*
X166243000Y-128587500D03*
D17*
X171323000Y-134937500D03*
X171323000Y-132397500D03*
D18*
X163703000Y-137477500D03*
X161163000Y-131127500D03*
D13*
X106680000Y-134937500D03*
X130556000Y-134937500D03*
D14*
X130556000Y-150177500D03*
X106680000Y-150177500D03*
D18*
X121158000Y-138112500D03*
X114808000Y-140652500D03*
D17*
X119888000Y-148272500D03*
X117348000Y-148272500D03*
D16*
X123698000Y-143192500D03*
X113538000Y-143192500D03*
D15*
X118618000Y-143192500D03*
D19*
X98552000Y-116966000D03*
X98552000Y-113666000D03*
X98552000Y-97916000D03*
X98552000Y-94616000D03*
X155702000Y-136016000D03*
X155702000Y-132716000D03*
X162306000Y-77342000D03*
X162306000Y-74042000D03*
X143256000Y-136016000D03*
X143256000Y-132716000D03*
X111506000Y-136016000D03*
X111506000Y-132716000D03*
X143256000Y-116966000D03*
X143256000Y-113666000D03*
X124206000Y-116966000D03*
X124206000Y-113666000D03*
X105156000Y-116966000D03*
X105156000Y-113666000D03*
X143256000Y-97916000D03*
X143256000Y-94616000D03*
X124206000Y-97916000D03*
X124206000Y-94616000D03*
X105156000Y-97916000D03*
X105156000Y-94616000D03*
X143256000Y-77342000D03*
X143256000Y-74042000D03*
X124206000Y-77342000D03*
X124206000Y-74042000D03*
X105156000Y-77342000D03*
X105156000Y-74042000D03*
D20*
X118618000Y-114554000D03*
D21*
X83312000Y-84836000D03*
X85852000Y-84836000D03*
X88392000Y-84836000D03*
X90932000Y-84836000D03*
X93472000Y-84836000D03*
X96012000Y-56896000D03*
X81000600Y-84836000D03*
X96012000Y-59436000D03*
X96012000Y-61976000D03*
X96012000Y-64516000D03*
X96012000Y-67056000D03*
X96012000Y-69596000D03*
X96012000Y-72136000D03*
X96012000Y-74676000D03*
X96012000Y-77216000D03*
X96012000Y-79756000D03*
X96012000Y-82296000D03*
X96012000Y-84836000D03*
X80772000Y-82296000D03*
X80772000Y-79756000D03*
X80772000Y-77216000D03*
X80772000Y-74676000D03*
X80772000Y-72136000D03*
X80772000Y-69596000D03*
X80772000Y-67056000D03*
X80772000Y-64516000D03*
X80772000Y-61976000D03*
X80772000Y-59436000D03*
D22*
X80772000Y-56896000D03*
D20*
X118618000Y-75692000D03*
X121920000Y-56388000D03*
X172466000Y-58166000D03*
X81280000Y-147828000D03*
D12*
X172466000Y-114554000D03*
G36*
G01*
X115716000Y-129736001D02*
X115716000Y-128835999D01*
G75*
G02*
X115965999Y-128586000I249999J0D01*
G01*
X116666001Y-128586000D01*
G75*
G02*
X116916000Y-128835999I0J-249999D01*
G01*
X116916000Y-129736001D01*
G75*
G02*
X116666001Y-129986000I-249999J0D01*
G01*
X115965999Y-129986000D01*
G75*
G02*
X115716000Y-129736001I0J249999D01*
G01*
G37*
G36*
G01*
X113716000Y-129736001D02*
X113716000Y-128835999D01*
G75*
G02*
X113965999Y-128586000I249999J0D01*
G01*
X114666001Y-128586000D01*
G75*
G02*
X114916000Y-128835999I0J-249999D01*
G01*
X114916000Y-129736001D01*
G75*
G02*
X114666001Y-129986000I-249999J0D01*
G01*
X113965999Y-129986000D01*
G75*
G02*
X113716000Y-129736001I0J249999D01*
G01*
G37*
D18*
X111633000Y-100012500D03*
X105283000Y-102552500D03*
D17*
X110363000Y-110172500D03*
X107823000Y-110172500D03*
D16*
X114173000Y-105092500D03*
X104013000Y-105092500D03*
D15*
X109093000Y-105092500D03*
G36*
G01*
X135274000Y-110686001D02*
X135274000Y-109785999D01*
G75*
G02*
X135523999Y-109536000I249999J0D01*
G01*
X136224001Y-109536000D01*
G75*
G02*
X136474000Y-109785999I0J-249999D01*
G01*
X136474000Y-110686001D01*
G75*
G02*
X136224001Y-110936000I-249999J0D01*
G01*
X135523999Y-110936000D01*
G75*
G02*
X135274000Y-110686001I0J249999D01*
G01*
G37*
G36*
G01*
X133274000Y-110686001D02*
X133274000Y-109785999D01*
G75*
G02*
X133523999Y-109536000I249999J0D01*
G01*
X134224001Y-109536000D01*
G75*
G02*
X134474000Y-109785999I0J-249999D01*
G01*
X134474000Y-110686001D01*
G75*
G02*
X134224001Y-110936000I-249999J0D01*
G01*
X133523999Y-110936000D01*
G75*
G02*
X133274000Y-110686001I0J249999D01*
G01*
G37*
G36*
G01*
X125584000Y-147885999D02*
X125584000Y-148786001D01*
G75*
G02*
X125334001Y-149036000I-249999J0D01*
G01*
X124633999Y-149036000D01*
G75*
G02*
X124384000Y-148786001I0J249999D01*
G01*
X124384000Y-147885999D01*
G75*
G02*
X124633999Y-147636000I249999J0D01*
G01*
X125334001Y-147636000D01*
G75*
G02*
X125584000Y-147885999I0J-249999D01*
G01*
G37*
G36*
G01*
X127584000Y-147885999D02*
X127584000Y-148786001D01*
G75*
G02*
X127334001Y-149036000I-249999J0D01*
G01*
X126633999Y-149036000D01*
G75*
G02*
X126384000Y-148786001I0J249999D01*
G01*
X126384000Y-147885999D01*
G75*
G02*
X126633999Y-147636000I249999J0D01*
G01*
X127334001Y-147636000D01*
G75*
G02*
X127584000Y-147885999I0J-249999D01*
G01*
G37*
G36*
G01*
X153524000Y-109785999D02*
X153524000Y-110686001D01*
G75*
G02*
X153274001Y-110936000I-249999J0D01*
G01*
X152573999Y-110936000D01*
G75*
G02*
X152324000Y-110686001I0J249999D01*
G01*
X152324000Y-109785999D01*
G75*
G02*
X152573999Y-109536000I249999J0D01*
G01*
X153274001Y-109536000D01*
G75*
G02*
X153524000Y-109785999I0J-249999D01*
G01*
G37*
G36*
G01*
X155524000Y-109785999D02*
X155524000Y-110686001D01*
G75*
G02*
X155274001Y-110936000I-249999J0D01*
G01*
X154573999Y-110936000D01*
G75*
G02*
X154324000Y-110686001I0J249999D01*
G01*
X154324000Y-109785999D01*
G75*
G02*
X154573999Y-109536000I249999J0D01*
G01*
X155274001Y-109536000D01*
G75*
G02*
X155524000Y-109785999I0J-249999D01*
G01*
G37*
G36*
G01*
X154324000Y-91636001D02*
X154324000Y-90735999D01*
G75*
G02*
X154573999Y-90486000I249999J0D01*
G01*
X155274001Y-90486000D01*
G75*
G02*
X155524000Y-90735999I0J-249999D01*
G01*
X155524000Y-91636001D01*
G75*
G02*
X155274001Y-91886000I-249999J0D01*
G01*
X154573999Y-91886000D01*
G75*
G02*
X154324000Y-91636001I0J249999D01*
G01*
G37*
G36*
G01*
X152324000Y-91636001D02*
X152324000Y-90735999D01*
G75*
G02*
X152573999Y-90486000I249999J0D01*
G01*
X153274001Y-90486000D01*
G75*
G02*
X153524000Y-90735999I0J-249999D01*
G01*
X153524000Y-91636001D01*
G75*
G02*
X153274001Y-91886000I-249999J0D01*
G01*
X152573999Y-91886000D01*
G75*
G02*
X152324000Y-91636001I0J249999D01*
G01*
G37*
G36*
G01*
X134474000Y-90735999D02*
X134474000Y-91636001D01*
G75*
G02*
X134224001Y-91886000I-249999J0D01*
G01*
X133523999Y-91886000D01*
G75*
G02*
X133274000Y-91636001I0J249999D01*
G01*
X133274000Y-90735999D01*
G75*
G02*
X133523999Y-90486000I249999J0D01*
G01*
X134224001Y-90486000D01*
G75*
G02*
X134474000Y-90735999I0J-249999D01*
G01*
G37*
G36*
G01*
X136474000Y-90735999D02*
X136474000Y-91636001D01*
G75*
G02*
X136224001Y-91886000I-249999J0D01*
G01*
X135523999Y-91886000D01*
G75*
G02*
X135274000Y-91636001I0J249999D01*
G01*
X135274000Y-90735999D01*
G75*
G02*
X135523999Y-90486000I249999J0D01*
G01*
X136224001Y-90486000D01*
G75*
G02*
X136474000Y-90735999I0J-249999D01*
G01*
G37*
G36*
G01*
X115678000Y-90735999D02*
X115678000Y-91636001D01*
G75*
G02*
X115428001Y-91886000I-249999J0D01*
G01*
X114727999Y-91886000D01*
G75*
G02*
X114478000Y-91636001I0J249999D01*
G01*
X114478000Y-90735999D01*
G75*
G02*
X114727999Y-90486000I249999J0D01*
G01*
X115428001Y-90486000D01*
G75*
G02*
X115678000Y-90735999I0J-249999D01*
G01*
G37*
G36*
G01*
X117678000Y-90735999D02*
X117678000Y-91636001D01*
G75*
G02*
X117428001Y-91886000I-249999J0D01*
G01*
X116727999Y-91886000D01*
G75*
G02*
X116478000Y-91636001I0J249999D01*
G01*
X116478000Y-90735999D01*
G75*
G02*
X116727999Y-90486000I249999J0D01*
G01*
X117428001Y-90486000D01*
G75*
G02*
X117678000Y-90735999I0J-249999D01*
G01*
G37*
D23*
X103228000Y-60452000D03*
X103228000Y-55952000D03*
X109728000Y-60452000D03*
X109728000Y-55952000D03*
D24*
X116840000Y-68072000D03*
X116840000Y-65532000D03*
X116840000Y-62992000D03*
X116840000Y-60452000D03*
D18*
X149733000Y-138112500D03*
X143383000Y-140652500D03*
D17*
X148463000Y-148272500D03*
X145923000Y-148272500D03*
D16*
X152273000Y-143192500D03*
X142113000Y-143192500D03*
D15*
X147193000Y-143192500D03*
D18*
X130683000Y-80962500D03*
X124333000Y-83502500D03*
D17*
X129413000Y-91122500D03*
X126873000Y-91122500D03*
D16*
X133223000Y-86042500D03*
X123063000Y-86042500D03*
D15*
X128143000Y-86042500D03*
D10*
X80251300Y-122428000D03*
X80251300Y-127508000D03*
X94729300Y-122428000D03*
D11*
X87744300Y-118364000D03*
X87744300Y-131572000D03*
D10*
X94729300Y-127508000D03*
X80251300Y-124968000D03*
D18*
X149733000Y-80962500D03*
X143383000Y-83502500D03*
D17*
X148463000Y-91122500D03*
X145923000Y-91122500D03*
D16*
X152273000Y-86042500D03*
X142113000Y-86042500D03*
D15*
X147193000Y-86042500D03*
D18*
X130683000Y-100012500D03*
X124333000Y-102552500D03*
D17*
X129413000Y-110172500D03*
X126873000Y-110172500D03*
D16*
X133223000Y-105092500D03*
X123063000Y-105092500D03*
D15*
X128143000Y-105092500D03*
D18*
X149733000Y-100012500D03*
X143383000Y-102552500D03*
D17*
X148463000Y-110172500D03*
X145923000Y-110172500D03*
D16*
X152273000Y-105092500D03*
X142113000Y-105092500D03*
D15*
X147193000Y-105092500D03*
D18*
X111633000Y-119062500D03*
X105283000Y-121602500D03*
D17*
X110363000Y-129222500D03*
X107823000Y-129222500D03*
D16*
X114173000Y-124142500D03*
X104013000Y-124142500D03*
D15*
X109093000Y-124142500D03*
D18*
X130683000Y-119062500D03*
X124333000Y-121602500D03*
D17*
X129413000Y-129222500D03*
X126873000Y-129222500D03*
D16*
X133223000Y-124142500D03*
X123063000Y-124142500D03*
D15*
X128143000Y-124142500D03*
D18*
X149733000Y-119062500D03*
X143383000Y-121602500D03*
D17*
X148463000Y-129222500D03*
X145923000Y-129222500D03*
D16*
X152273000Y-124142500D03*
X142113000Y-124142500D03*
D15*
X147193000Y-124142500D03*
D18*
X111633000Y-80962500D03*
X105283000Y-83502500D03*
D17*
X110363000Y-91122500D03*
X107823000Y-91122500D03*
D16*
X114173000Y-86042500D03*
X104013000Y-86042500D03*
D15*
X109093000Y-86042500D03*
M02*
