%FSLAX45Y45*%
G04 Gerber Fmt 4.5, Leading zero omitted, Abs format (unit mm)*
G04 Created by KiCad (PCBNEW (5.1.9)-1) date 2021-06-17 16:50:48*
%MOMM*%
%LPD*%
G01*
G04 APERTURE LIST*
%TA.AperFunction,Profile*%
%ADD10C,0.150000*%
%TD*%
%ADD11C,0.200000*%
%ADD12C,0.300000*%
G04 APERTURE END LIST*
D10*
X17564100Y-5283200D02*
G75*
G02*
X17614900Y-5334000I0J-50800D01*
G01*
X17614900Y-15240000D02*
G75*
G02*
X17564100Y-15290800I-50800J0D01*
G01*
X7670800Y-15290800D02*
G75*
G02*
X7614920Y-15234920I0J55880D01*
G01*
X7614920Y-5334000D02*
G75*
G02*
X7665720Y-5283200I50800J0D01*
G01*
X7670800Y-15290800D02*
X17564100Y-15290800D01*
X17614910Y-15240000D02*
X17614910Y-5334000D01*
X17564100Y-5283200D02*
X7665720Y-5283200D01*
X7614910Y-5334000D02*
X7614910Y-15234920D01*
D11*
X7854000Y-7193600D02*
X7894000Y-7233600D01*
X7894000Y-7193600D02*
X7854000Y-7233600D01*
X7904800Y-7447600D02*
X7944800Y-7487600D01*
X7944800Y-7447600D02*
X7904800Y-7487600D01*
X7904800Y-7701600D02*
X7944800Y-7741600D01*
X7944800Y-7701600D02*
X7904800Y-7741600D01*
X7904800Y-7981000D02*
X7944800Y-8021000D01*
X7944800Y-7981000D02*
X7904800Y-8021000D01*
X9098600Y-8971600D02*
X9138600Y-9011600D01*
X9138600Y-8971600D02*
X9098600Y-9011600D01*
X9581200Y-9454200D02*
X9621200Y-9494200D01*
X9621200Y-9454200D02*
X9581200Y-9494200D01*
X10013000Y-7676200D02*
X10053000Y-7716200D01*
X10053000Y-7676200D02*
X10013000Y-7716200D01*
X10902000Y-8943020D02*
X10942000Y-8983020D01*
X10942000Y-8943020D02*
X10902000Y-8983020D01*
X10902000Y-9327200D02*
X10942000Y-9367200D01*
X10942000Y-9327200D02*
X10902000Y-9367200D01*
X10927400Y-9606600D02*
X10967400Y-9646600D01*
X10967400Y-9606600D02*
X10927400Y-9646600D01*
X8064500Y-10261600D02*
G75*
G03*
X8064500Y-10261600I-50800J0D01*
G01*
X8064500Y-10515600D02*
G75*
G03*
X8064500Y-10515600I-50800J0D01*
G01*
X8064500Y-10769600D02*
G75*
G03*
X8064500Y-10769600I-50800J0D01*
G01*
X8075930Y-12242800D02*
G75*
G03*
X8075930Y-12242800I-50800J0D01*
G01*
X8075930Y-12496800D02*
G75*
G03*
X8075930Y-12496800I-50800J0D01*
G01*
X8075930Y-12750800D02*
G75*
G03*
X8075930Y-12750800I-50800J0D01*
G01*
X9512300Y-10261600D02*
G75*
G03*
X9512300Y-10261600I-50800J0D01*
G01*
X9512300Y-10769600D02*
G75*
G03*
X9512300Y-10769600I-50800J0D01*
G01*
X9523730Y-12242800D02*
G75*
G03*
X9523730Y-12242800I-50800J0D01*
G01*
X9523730Y-12750800D02*
G75*
G03*
X9523730Y-12750800I-50800J0D01*
G01*
X11734800Y-6045200D02*
G75*
G03*
X11734800Y-6045200I-50800J0D01*
G01*
X11734800Y-6299200D02*
G75*
G03*
X11734800Y-6299200I-50800J0D01*
G01*
X11734800Y-6553200D02*
G75*
G03*
X11734800Y-6553200I-50800J0D01*
G01*
X11734800Y-6807200D02*
G75*
G03*
X11734800Y-6807200I-50800J0D01*
G01*
X8077200Y-5634990D02*
X8077200Y-5744210D01*
X8022590Y-5689600D02*
X8131810Y-5689600D01*
X8077200Y-5888990D02*
X8077200Y-5998210D01*
X8022590Y-5943600D02*
X8131810Y-5943600D01*
X8077200Y-6142990D02*
X8077200Y-6252210D01*
X8022590Y-6197600D02*
X8131810Y-6197600D01*
X8077200Y-6396990D02*
X8077200Y-6506210D01*
X8022590Y-6451600D02*
X8131810Y-6451600D01*
X8077200Y-6650990D02*
X8077200Y-6760210D01*
X8022590Y-6705600D02*
X8131810Y-6705600D01*
X8077200Y-6904990D02*
X8077200Y-7014210D01*
X8022590Y-6959600D02*
X8131810Y-6959600D01*
X8077200Y-7158990D02*
X8077200Y-7268210D01*
X8022590Y-7213600D02*
X8131810Y-7213600D01*
X8077200Y-7412990D02*
X8077200Y-7522210D01*
X8022590Y-7467600D02*
X8131810Y-7467600D01*
X8077200Y-7666990D02*
X8077200Y-7776210D01*
X8022590Y-7721600D02*
X8131810Y-7721600D01*
X8077200Y-7920990D02*
X8077200Y-8030210D01*
X8022590Y-7975600D02*
X8131810Y-7975600D01*
X8077200Y-8174990D02*
X8077200Y-8284210D01*
X8022590Y-8229600D02*
X8131810Y-8229600D01*
X8100060Y-8428990D02*
X8100060Y-8538210D01*
X8045450Y-8483600D02*
X8154670Y-8483600D01*
X8331200Y-8428990D02*
X8331200Y-8538210D01*
X8276590Y-8483600D02*
X8385810Y-8483600D01*
X8585200Y-8428990D02*
X8585200Y-8538210D01*
X8530590Y-8483600D02*
X8639810Y-8483600D01*
X8839200Y-8428990D02*
X8839200Y-8538210D01*
X8784590Y-8483600D02*
X8893810Y-8483600D01*
X9093200Y-8428990D02*
X9093200Y-8538210D01*
X9038590Y-8483600D02*
X9147810Y-8483600D01*
X9347200Y-8428990D02*
X9347200Y-8538210D01*
X9292590Y-8483600D02*
X9401810Y-8483600D01*
X9601200Y-5634990D02*
X9601200Y-5744210D01*
X9546590Y-5689600D02*
X9655810Y-5689600D01*
X9601200Y-5888990D02*
X9601200Y-5998210D01*
X9546590Y-5943600D02*
X9655810Y-5943600D01*
X9601200Y-6142990D02*
X9601200Y-6252210D01*
X9546590Y-6197600D02*
X9655810Y-6197600D01*
X9601200Y-6396990D02*
X9601200Y-6506210D01*
X9546590Y-6451600D02*
X9655810Y-6451600D01*
X9601200Y-6650990D02*
X9601200Y-6760210D01*
X9546590Y-6705600D02*
X9655810Y-6705600D01*
X9601200Y-6904990D02*
X9601200Y-7014210D01*
X9546590Y-6959600D02*
X9655810Y-6959600D01*
X9601200Y-7158990D02*
X9601200Y-7268210D01*
X9546590Y-7213600D02*
X9655810Y-7213600D01*
X9601200Y-7412990D02*
X9601200Y-7522210D01*
X9546590Y-7467600D02*
X9655810Y-7467600D01*
X9601200Y-7666990D02*
X9601200Y-7776210D01*
X9546590Y-7721600D02*
X9655810Y-7721600D01*
X9601200Y-7920990D02*
X9601200Y-8030210D01*
X9546590Y-7975600D02*
X9655810Y-7975600D01*
X9601200Y-8174990D02*
X9601200Y-8284210D01*
X9546590Y-8229600D02*
X9655810Y-8229600D01*
X9601200Y-8428990D02*
X9601200Y-8538210D01*
X9546590Y-8483600D02*
X9655810Y-8483600D01*
X10782300Y-9057640D02*
X10782300Y-9166860D01*
X10727690Y-9112250D02*
X10836910Y-9112250D01*
X10782300Y-10962640D02*
X10782300Y-11071860D01*
X10727690Y-11017250D02*
X10836910Y-11017250D01*
X10782300Y-12867640D02*
X10782300Y-12976860D01*
X10727690Y-12922250D02*
X10836910Y-12922250D01*
X11036300Y-9057640D02*
X11036300Y-9166860D01*
X10981690Y-9112250D02*
X11090910Y-9112250D01*
X11036300Y-10962640D02*
X11036300Y-11071860D01*
X10981690Y-11017250D02*
X11090910Y-11017250D01*
X11036300Y-12867640D02*
X11036300Y-12976860D01*
X10981690Y-12922250D02*
X11090910Y-12922250D01*
X11734800Y-14772640D02*
X11734800Y-14881860D01*
X11680190Y-14827250D02*
X11789410Y-14827250D01*
X11988800Y-14772640D02*
X11988800Y-14881860D01*
X11934190Y-14827250D02*
X12043410Y-14827250D01*
X12687300Y-9057640D02*
X12687300Y-9166860D01*
X12632690Y-9112250D02*
X12741910Y-9112250D01*
X12687300Y-10962640D02*
X12687300Y-11071860D01*
X12632690Y-11017250D02*
X12741910Y-11017250D01*
X12687300Y-12867640D02*
X12687300Y-12976860D01*
X12632690Y-12922250D02*
X12741910Y-12922250D01*
X12941300Y-9057640D02*
X12941300Y-9166860D01*
X12886690Y-9112250D02*
X12995910Y-9112250D01*
X12941300Y-10962640D02*
X12941300Y-11071860D01*
X12886690Y-11017250D02*
X12995910Y-11017250D01*
X12941300Y-12867640D02*
X12941300Y-12976860D01*
X12886690Y-12922250D02*
X12995910Y-12922250D01*
X14592300Y-9057640D02*
X14592300Y-9166860D01*
X14537690Y-9112250D02*
X14646910Y-9112250D01*
X14592300Y-10962640D02*
X14592300Y-11071860D01*
X14537690Y-11017250D02*
X14646910Y-11017250D01*
X14592300Y-12867640D02*
X14592300Y-12976860D01*
X14537690Y-12922250D02*
X14646910Y-12922250D01*
X14592300Y-14772640D02*
X14592300Y-14881860D01*
X14537690Y-14827250D02*
X14646910Y-14827250D01*
X14846300Y-9057640D02*
X14846300Y-9166860D01*
X14791690Y-9112250D02*
X14900910Y-9112250D01*
X14846300Y-10962640D02*
X14846300Y-11071860D01*
X14791690Y-11017250D02*
X14900910Y-11017250D01*
X14846300Y-12867640D02*
X14846300Y-12976860D01*
X14791690Y-12922250D02*
X14900910Y-12922250D01*
X14846300Y-14772640D02*
X14846300Y-14881860D01*
X14791690Y-14827250D02*
X14900910Y-14827250D01*
X17132300Y-9375140D02*
X17132300Y-9484360D01*
X17077690Y-9429750D02*
X17186910Y-9429750D01*
X17132300Y-9629140D02*
X17132300Y-9738360D01*
X17077690Y-9683750D02*
X17186910Y-9683750D01*
X17132300Y-13185140D02*
X17132300Y-13294360D01*
X17077690Y-13239750D02*
X17186910Y-13239750D01*
X17132300Y-13439140D02*
X17132300Y-13548360D01*
X17077690Y-13493750D02*
X17186910Y-13493750D01*
X10361691Y-5634091D02*
X10361691Y-5556309D01*
X10283909Y-5556309D01*
X10283909Y-5634091D01*
X10361691Y-5634091D01*
X10361691Y-6084091D02*
X10361691Y-6006309D01*
X10283909Y-6006309D01*
X10283909Y-6084091D01*
X10361691Y-6084091D01*
X11011691Y-5634091D02*
X11011691Y-5556309D01*
X10933909Y-5556309D01*
X10933909Y-5634091D01*
X11011691Y-5634091D01*
X11011691Y-6084091D02*
X11011691Y-6006309D01*
X10933909Y-6006309D01*
X10933909Y-6084091D01*
X11011691Y-6084091D01*
X10528300Y-8437880D02*
X10615930Y-8350250D01*
X10528300Y-8262620D01*
X10440670Y-8350250D01*
X10528300Y-8437880D01*
X10528300Y-10342880D02*
X10615930Y-10255250D01*
X10528300Y-10167620D01*
X10440670Y-10255250D01*
X10528300Y-10342880D01*
X10528300Y-12247880D02*
X10615930Y-12160250D01*
X10528300Y-12072620D01*
X10440670Y-12160250D01*
X10528300Y-12247880D01*
X11163300Y-8183880D02*
X11250930Y-8096250D01*
X11163300Y-8008620D01*
X11075670Y-8096250D01*
X11163300Y-8183880D01*
X11163300Y-10088880D02*
X11250930Y-10001250D01*
X11163300Y-9913620D01*
X11075670Y-10001250D01*
X11163300Y-10088880D01*
X11163300Y-11993880D02*
X11250930Y-11906250D01*
X11163300Y-11818620D01*
X11075670Y-11906250D01*
X11163300Y-11993880D01*
X11480800Y-14152880D02*
X11568430Y-14065250D01*
X11480800Y-13977620D01*
X11393170Y-14065250D01*
X11480800Y-14152880D01*
X12115800Y-13898880D02*
X12203430Y-13811250D01*
X12115800Y-13723620D01*
X12028170Y-13811250D01*
X12115800Y-13898880D01*
X12433300Y-8437880D02*
X12520930Y-8350250D01*
X12433300Y-8262620D01*
X12345670Y-8350250D01*
X12433300Y-8437880D01*
X12433300Y-10342880D02*
X12520930Y-10255250D01*
X12433300Y-10167620D01*
X12345670Y-10255250D01*
X12433300Y-10342880D01*
X12433300Y-12247880D02*
X12520930Y-12160250D01*
X12433300Y-12072620D01*
X12345670Y-12160250D01*
X12433300Y-12247880D01*
X13068300Y-8183880D02*
X13155930Y-8096250D01*
X13068300Y-8008620D01*
X12980670Y-8096250D01*
X13068300Y-8183880D01*
X13068300Y-10088880D02*
X13155930Y-10001250D01*
X13068300Y-9913620D01*
X12980670Y-10001250D01*
X13068300Y-10088880D01*
X13068300Y-11993880D02*
X13155930Y-11906250D01*
X13068300Y-11818620D01*
X12980670Y-11906250D01*
X13068300Y-11993880D01*
X14338300Y-8437880D02*
X14425930Y-8350250D01*
X14338300Y-8262620D01*
X14250670Y-8350250D01*
X14338300Y-8437880D01*
X14338300Y-10342880D02*
X14425930Y-10255250D01*
X14338300Y-10167620D01*
X14250670Y-10255250D01*
X14338300Y-10342880D01*
X14338300Y-12247880D02*
X14425930Y-12160250D01*
X14338300Y-12072620D01*
X14250670Y-12160250D01*
X14338300Y-12247880D01*
X14338300Y-14152880D02*
X14425930Y-14065250D01*
X14338300Y-13977620D01*
X14250670Y-14065250D01*
X14338300Y-14152880D01*
X14973300Y-8183880D02*
X15060930Y-8096250D01*
X14973300Y-8008620D01*
X14885670Y-8096250D01*
X14973300Y-8183880D01*
X14973300Y-10088880D02*
X15060930Y-10001250D01*
X14973300Y-9913620D01*
X14885670Y-10001250D01*
X14973300Y-10088880D01*
X14973300Y-11993880D02*
X15060930Y-11906250D01*
X14973300Y-11818620D01*
X14885670Y-11906250D01*
X14973300Y-11993880D01*
X14973300Y-13898880D02*
X15060930Y-13811250D01*
X14973300Y-13723620D01*
X14885670Y-13811250D01*
X14973300Y-13898880D01*
X16116300Y-9390380D02*
X16203930Y-9302750D01*
X16116300Y-9215120D01*
X16028670Y-9302750D01*
X16116300Y-9390380D01*
X16116300Y-13200380D02*
X16203930Y-13112750D01*
X16116300Y-13025120D01*
X16028670Y-13112750D01*
X16116300Y-13200380D01*
X16370300Y-10025380D02*
X16457930Y-9937750D01*
X16370300Y-9850120D01*
X16282670Y-9937750D01*
X16370300Y-10025380D01*
X16370300Y-13835380D02*
X16457930Y-13747750D01*
X16370300Y-13660120D01*
X16282670Y-13747750D01*
X16370300Y-13835380D01*
X8648700Y-9740900D02*
X8877300Y-9969500D01*
X8877300Y-9740900D02*
X8648700Y-9969500D01*
X8877300Y-9855200D02*
G75*
G03*
X8877300Y-9855200I-114300J0D01*
G01*
X8648700Y-11061700D02*
X8877300Y-11290300D01*
X8877300Y-11061700D02*
X8648700Y-11290300D01*
X8877300Y-11176000D02*
G75*
G03*
X8877300Y-11176000I-114300J0D01*
G01*
X8660130Y-11722100D02*
X8888730Y-11950700D01*
X8888730Y-11722100D02*
X8660130Y-11950700D01*
X8888730Y-11836400D02*
G75*
G03*
X8888730Y-11836400I-114300J0D01*
G01*
X8660130Y-13042900D02*
X8888730Y-13271500D01*
X8888730Y-13042900D02*
X8660130Y-13271500D01*
X8888730Y-13157200D02*
G75*
G03*
X8888730Y-13157200I-114300J0D01*
G01*
D12*
X7893838Y-15764014D02*
X7893838Y-15464014D01*
X7965267Y-15464014D01*
X8008124Y-15478300D01*
X8036696Y-15506871D01*
X8050981Y-15535443D01*
X8065267Y-15592586D01*
X8065267Y-15635443D01*
X8050981Y-15692586D01*
X8036696Y-15721157D01*
X8008124Y-15749729D01*
X7965267Y-15764014D01*
X7893838Y-15764014D01*
X8193838Y-15764014D02*
X8193838Y-15564014D01*
X8193838Y-15621157D02*
X8208124Y-15592586D01*
X8222410Y-15578300D01*
X8250981Y-15564014D01*
X8279553Y-15564014D01*
X8379553Y-15764014D02*
X8379553Y-15564014D01*
X8379553Y-15464014D02*
X8365267Y-15478300D01*
X8379553Y-15492586D01*
X8393838Y-15478300D01*
X8379553Y-15464014D01*
X8379553Y-15492586D01*
X8565267Y-15764014D02*
X8536696Y-15749729D01*
X8522410Y-15721157D01*
X8522410Y-15464014D01*
X8722410Y-15764014D02*
X8693838Y-15749729D01*
X8679553Y-15721157D01*
X8679553Y-15464014D01*
X9065267Y-15764014D02*
X9065267Y-15464014D01*
X9165267Y-15678300D01*
X9265267Y-15464014D01*
X9265267Y-15764014D01*
X9536696Y-15764014D02*
X9536696Y-15606871D01*
X9522410Y-15578300D01*
X9493838Y-15564014D01*
X9436696Y-15564014D01*
X9408124Y-15578300D01*
X9536696Y-15749729D02*
X9508124Y-15764014D01*
X9436696Y-15764014D01*
X9408124Y-15749729D01*
X9393838Y-15721157D01*
X9393838Y-15692586D01*
X9408124Y-15664014D01*
X9436696Y-15649729D01*
X9508124Y-15649729D01*
X9536696Y-15635443D01*
X9679553Y-15564014D02*
X9679553Y-15864014D01*
X9679553Y-15578300D02*
X9708124Y-15564014D01*
X9765267Y-15564014D01*
X9793838Y-15578300D01*
X9808124Y-15592586D01*
X9822410Y-15621157D01*
X9822410Y-15706871D01*
X9808124Y-15735443D01*
X9793838Y-15749729D01*
X9765267Y-15764014D01*
X9708124Y-15764014D01*
X9679553Y-15749729D01*
X9950981Y-15735443D02*
X9965267Y-15749729D01*
X9950981Y-15764014D01*
X9936696Y-15749729D01*
X9950981Y-15735443D01*
X9950981Y-15764014D01*
X9950981Y-15578300D02*
X9965267Y-15592586D01*
X9950981Y-15606871D01*
X9936696Y-15592586D01*
X9950981Y-15578300D01*
X9950981Y-15606871D01*
X7567410Y-16238300D02*
X7607410Y-16278300D01*
X7607410Y-16238300D02*
X7567410Y-16278300D01*
X7950981Y-16094014D02*
X7979553Y-16094014D01*
X8008124Y-16108300D01*
X8022410Y-16122586D01*
X8036696Y-16151157D01*
X8050981Y-16208300D01*
X8050981Y-16279729D01*
X8036696Y-16336871D01*
X8022410Y-16365443D01*
X8008124Y-16379729D01*
X7979553Y-16394014D01*
X7950981Y-16394014D01*
X7922410Y-16379729D01*
X7908124Y-16365443D01*
X7893838Y-16336871D01*
X7879553Y-16279729D01*
X7879553Y-16208300D01*
X7893838Y-16151157D01*
X7908124Y-16122586D01*
X7922410Y-16108300D01*
X7950981Y-16094014D01*
X8179553Y-16365443D02*
X8193838Y-16379729D01*
X8179553Y-16394014D01*
X8165267Y-16379729D01*
X8179553Y-16365443D01*
X8179553Y-16394014D01*
X8450981Y-16194014D02*
X8450981Y-16394014D01*
X8379553Y-16079729D02*
X8308124Y-16294014D01*
X8493838Y-16294014D01*
X8665267Y-16094014D02*
X8693838Y-16094014D01*
X8722410Y-16108300D01*
X8736696Y-16122586D01*
X8750981Y-16151157D01*
X8765267Y-16208300D01*
X8765267Y-16279729D01*
X8750981Y-16336871D01*
X8736696Y-16365443D01*
X8722410Y-16379729D01*
X8693838Y-16394014D01*
X8665267Y-16394014D01*
X8636696Y-16379729D01*
X8622410Y-16365443D01*
X8608124Y-16336871D01*
X8593838Y-16279729D01*
X8593838Y-16208300D01*
X8608124Y-16151157D01*
X8622410Y-16122586D01*
X8636696Y-16108300D01*
X8665267Y-16094014D01*
X8893838Y-16394014D02*
X8893838Y-16194014D01*
X8893838Y-16222586D02*
X8908124Y-16208300D01*
X8936696Y-16194014D01*
X8979553Y-16194014D01*
X9008124Y-16208300D01*
X9022410Y-16236871D01*
X9022410Y-16394014D01*
X9022410Y-16236871D02*
X9036696Y-16208300D01*
X9065267Y-16194014D01*
X9108124Y-16194014D01*
X9136696Y-16208300D01*
X9150981Y-16236871D01*
X9150981Y-16394014D01*
X9293838Y-16394014D02*
X9293838Y-16194014D01*
X9293838Y-16222586D02*
X9308124Y-16208300D01*
X9336696Y-16194014D01*
X9379553Y-16194014D01*
X9408124Y-16208300D01*
X9422410Y-16236871D01*
X9422410Y-16394014D01*
X9422410Y-16236871D02*
X9436696Y-16208300D01*
X9465267Y-16194014D01*
X9508124Y-16194014D01*
X9536696Y-16208300D01*
X9550981Y-16236871D01*
X9550981Y-16394014D01*
X10136696Y-16079729D02*
X9879553Y-16465443D01*
X10522410Y-16094014D02*
X10550981Y-16094014D01*
X10579553Y-16108300D01*
X10593838Y-16122586D01*
X10608124Y-16151157D01*
X10622410Y-16208300D01*
X10622410Y-16279729D01*
X10608124Y-16336871D01*
X10593838Y-16365443D01*
X10579553Y-16379729D01*
X10550981Y-16394014D01*
X10522410Y-16394014D01*
X10493838Y-16379729D01*
X10479553Y-16365443D01*
X10465267Y-16336871D01*
X10450981Y-16279729D01*
X10450981Y-16208300D01*
X10465267Y-16151157D01*
X10479553Y-16122586D01*
X10493838Y-16108300D01*
X10522410Y-16094014D01*
X10750981Y-16365443D02*
X10765267Y-16379729D01*
X10750981Y-16394014D01*
X10736696Y-16379729D01*
X10750981Y-16365443D01*
X10750981Y-16394014D01*
X10950981Y-16094014D02*
X10979553Y-16094014D01*
X11008124Y-16108300D01*
X11022410Y-16122586D01*
X11036696Y-16151157D01*
X11050981Y-16208300D01*
X11050981Y-16279729D01*
X11036696Y-16336871D01*
X11022410Y-16365443D01*
X11008124Y-16379729D01*
X10979553Y-16394014D01*
X10950981Y-16394014D01*
X10922410Y-16379729D01*
X10908124Y-16365443D01*
X10893838Y-16336871D01*
X10879553Y-16279729D01*
X10879553Y-16208300D01*
X10893838Y-16151157D01*
X10908124Y-16122586D01*
X10922410Y-16108300D01*
X10950981Y-16094014D01*
X11336696Y-16394014D02*
X11165267Y-16394014D01*
X11250981Y-16394014D02*
X11250981Y-16094014D01*
X11222410Y-16136871D01*
X11193838Y-16165443D01*
X11165267Y-16179729D01*
X11593838Y-16094014D02*
X11536696Y-16094014D01*
X11508124Y-16108300D01*
X11493838Y-16122586D01*
X11465267Y-16165443D01*
X11450981Y-16222586D01*
X11450981Y-16336871D01*
X11465267Y-16365443D01*
X11479553Y-16379729D01*
X11508124Y-16394014D01*
X11565267Y-16394014D01*
X11593838Y-16379729D01*
X11608124Y-16365443D01*
X11622410Y-16336871D01*
X11622410Y-16265443D01*
X11608124Y-16236871D01*
X11593838Y-16222586D01*
X11565267Y-16208300D01*
X11508124Y-16208300D01*
X11479553Y-16222586D01*
X11465267Y-16236871D01*
X11450981Y-16265443D01*
X11736696Y-16094014D02*
X11736696Y-16151157D01*
X11850981Y-16094014D02*
X11850981Y-16151157D01*
X12293838Y-16508300D02*
X12279553Y-16494014D01*
X12250981Y-16451157D01*
X12236696Y-16422586D01*
X12222410Y-16379729D01*
X12208124Y-16308300D01*
X12208124Y-16251157D01*
X12222410Y-16179729D01*
X12236696Y-16136871D01*
X12250981Y-16108300D01*
X12279553Y-16065443D01*
X12293838Y-16051157D01*
X12565267Y-16394014D02*
X12393838Y-16394014D01*
X12479553Y-16394014D02*
X12479553Y-16094014D01*
X12450981Y-16136871D01*
X12422410Y-16165443D01*
X12393838Y-16179729D01*
X12750981Y-16094014D02*
X12779553Y-16094014D01*
X12808124Y-16108300D01*
X12822410Y-16122586D01*
X12836696Y-16151157D01*
X12850981Y-16208300D01*
X12850981Y-16279729D01*
X12836696Y-16336871D01*
X12822410Y-16365443D01*
X12808124Y-16379729D01*
X12779553Y-16394014D01*
X12750981Y-16394014D01*
X12722410Y-16379729D01*
X12708124Y-16365443D01*
X12693838Y-16336871D01*
X12679553Y-16279729D01*
X12679553Y-16208300D01*
X12693838Y-16151157D01*
X12708124Y-16122586D01*
X12722410Y-16108300D01*
X12750981Y-16094014D01*
X13208124Y-16394014D02*
X13208124Y-16094014D01*
X13336696Y-16394014D02*
X13336696Y-16236871D01*
X13322410Y-16208300D01*
X13293838Y-16194014D01*
X13250981Y-16194014D01*
X13222410Y-16208300D01*
X13208124Y-16222586D01*
X13522410Y-16394014D02*
X13493838Y-16379729D01*
X13479553Y-16365443D01*
X13465267Y-16336871D01*
X13465267Y-16251157D01*
X13479553Y-16222586D01*
X13493838Y-16208300D01*
X13522410Y-16194014D01*
X13565267Y-16194014D01*
X13593838Y-16208300D01*
X13608124Y-16222586D01*
X13622410Y-16251157D01*
X13622410Y-16336871D01*
X13608124Y-16365443D01*
X13593838Y-16379729D01*
X13565267Y-16394014D01*
X13522410Y-16394014D01*
X13793838Y-16394014D02*
X13765267Y-16379729D01*
X13750981Y-16351157D01*
X13750981Y-16094014D01*
X14022410Y-16379729D02*
X13993838Y-16394014D01*
X13936696Y-16394014D01*
X13908124Y-16379729D01*
X13893838Y-16351157D01*
X13893838Y-16236871D01*
X13908124Y-16208300D01*
X13936696Y-16194014D01*
X13993838Y-16194014D01*
X14022410Y-16208300D01*
X14036696Y-16236871D01*
X14036696Y-16265443D01*
X13893838Y-16294014D01*
X14150981Y-16379729D02*
X14179553Y-16394014D01*
X14236696Y-16394014D01*
X14265267Y-16379729D01*
X14279553Y-16351157D01*
X14279553Y-16336871D01*
X14265267Y-16308300D01*
X14236696Y-16294014D01*
X14193838Y-16294014D01*
X14165267Y-16279729D01*
X14150981Y-16251157D01*
X14150981Y-16236871D01*
X14165267Y-16208300D01*
X14193838Y-16194014D01*
X14236696Y-16194014D01*
X14265267Y-16208300D01*
X14379553Y-16508300D02*
X14393838Y-16494014D01*
X14422410Y-16451157D01*
X14436696Y-16422586D01*
X14450981Y-16379729D01*
X14465267Y-16308300D01*
X14465267Y-16251157D01*
X14450981Y-16179729D01*
X14436696Y-16136871D01*
X14422410Y-16108300D01*
X14393838Y-16065443D01*
X14379553Y-16051157D01*
X7607410Y-16654300D02*
G75*
G03*
X7607410Y-16654300I-50800J0D01*
G01*
X8050981Y-16790014D02*
X7879553Y-16790014D01*
X7965267Y-16790014D02*
X7965267Y-16490014D01*
X7936696Y-16532871D01*
X7908124Y-16561443D01*
X7879553Y-16575729D01*
X8179553Y-16761443D02*
X8193838Y-16775729D01*
X8179553Y-16790014D01*
X8165267Y-16775729D01*
X8179553Y-16761443D01*
X8179553Y-16790014D01*
X8379553Y-16490014D02*
X8408124Y-16490014D01*
X8436696Y-16504300D01*
X8450981Y-16518586D01*
X8465267Y-16547157D01*
X8479553Y-16604300D01*
X8479553Y-16675729D01*
X8465267Y-16732871D01*
X8450981Y-16761443D01*
X8436696Y-16775729D01*
X8408124Y-16790014D01*
X8379553Y-16790014D01*
X8350981Y-16775729D01*
X8336696Y-16761443D01*
X8322410Y-16732871D01*
X8308124Y-16675729D01*
X8308124Y-16604300D01*
X8322410Y-16547157D01*
X8336696Y-16518586D01*
X8350981Y-16504300D01*
X8379553Y-16490014D01*
X8593838Y-16518586D02*
X8608124Y-16504300D01*
X8636696Y-16490014D01*
X8708124Y-16490014D01*
X8736696Y-16504300D01*
X8750981Y-16518586D01*
X8765267Y-16547157D01*
X8765267Y-16575729D01*
X8750981Y-16618586D01*
X8579553Y-16790014D01*
X8765267Y-16790014D01*
X8893838Y-16790014D02*
X8893838Y-16590014D01*
X8893838Y-16618586D02*
X8908124Y-16604300D01*
X8936696Y-16590014D01*
X8979553Y-16590014D01*
X9008124Y-16604300D01*
X9022410Y-16632871D01*
X9022410Y-16790014D01*
X9022410Y-16632871D02*
X9036696Y-16604300D01*
X9065267Y-16590014D01*
X9108124Y-16590014D01*
X9136696Y-16604300D01*
X9150981Y-16632871D01*
X9150981Y-16790014D01*
X9293838Y-16790014D02*
X9293838Y-16590014D01*
X9293838Y-16618586D02*
X9308124Y-16604300D01*
X9336696Y-16590014D01*
X9379553Y-16590014D01*
X9408124Y-16604300D01*
X9422410Y-16632871D01*
X9422410Y-16790014D01*
X9422410Y-16632871D02*
X9436696Y-16604300D01*
X9465267Y-16590014D01*
X9508124Y-16590014D01*
X9536696Y-16604300D01*
X9550981Y-16632871D01*
X9550981Y-16790014D01*
X10136696Y-16475729D02*
X9879553Y-16861443D01*
X10522410Y-16490014D02*
X10550981Y-16490014D01*
X10579553Y-16504300D01*
X10593838Y-16518586D01*
X10608124Y-16547157D01*
X10622410Y-16604300D01*
X10622410Y-16675729D01*
X10608124Y-16732871D01*
X10593838Y-16761443D01*
X10579553Y-16775729D01*
X10550981Y-16790014D01*
X10522410Y-16790014D01*
X10493838Y-16775729D01*
X10479553Y-16761443D01*
X10465267Y-16732871D01*
X10450981Y-16675729D01*
X10450981Y-16604300D01*
X10465267Y-16547157D01*
X10479553Y-16518586D01*
X10493838Y-16504300D01*
X10522410Y-16490014D01*
X10750981Y-16761443D02*
X10765267Y-16775729D01*
X10750981Y-16790014D01*
X10736696Y-16775729D01*
X10750981Y-16761443D01*
X10750981Y-16790014D01*
X10950981Y-16490014D02*
X10979553Y-16490014D01*
X11008124Y-16504300D01*
X11022410Y-16518586D01*
X11036696Y-16547157D01*
X11050981Y-16604300D01*
X11050981Y-16675729D01*
X11036696Y-16732871D01*
X11022410Y-16761443D01*
X11008124Y-16775729D01*
X10979553Y-16790014D01*
X10950981Y-16790014D01*
X10922410Y-16775729D01*
X10908124Y-16761443D01*
X10893838Y-16732871D01*
X10879553Y-16675729D01*
X10879553Y-16604300D01*
X10893838Y-16547157D01*
X10908124Y-16518586D01*
X10922410Y-16504300D01*
X10950981Y-16490014D01*
X11308124Y-16590014D02*
X11308124Y-16790014D01*
X11236696Y-16475729D02*
X11165267Y-16690014D01*
X11350981Y-16690014D01*
X11522410Y-16490014D02*
X11550981Y-16490014D01*
X11579553Y-16504300D01*
X11593838Y-16518586D01*
X11608124Y-16547157D01*
X11622410Y-16604300D01*
X11622410Y-16675729D01*
X11608124Y-16732871D01*
X11593838Y-16761443D01*
X11579553Y-16775729D01*
X11550981Y-16790014D01*
X11522410Y-16790014D01*
X11493838Y-16775729D01*
X11479553Y-16761443D01*
X11465267Y-16732871D01*
X11450981Y-16675729D01*
X11450981Y-16604300D01*
X11465267Y-16547157D01*
X11479553Y-16518586D01*
X11493838Y-16504300D01*
X11522410Y-16490014D01*
X11736696Y-16490014D02*
X11736696Y-16547157D01*
X11850981Y-16490014D02*
X11850981Y-16547157D01*
X12293838Y-16904300D02*
X12279553Y-16890014D01*
X12250981Y-16847157D01*
X12236696Y-16818586D01*
X12222410Y-16775729D01*
X12208124Y-16704300D01*
X12208124Y-16647157D01*
X12222410Y-16575729D01*
X12236696Y-16532871D01*
X12250981Y-16504300D01*
X12279553Y-16461443D01*
X12293838Y-16447157D01*
X12565267Y-16790014D02*
X12393838Y-16790014D01*
X12479553Y-16790014D02*
X12479553Y-16490014D01*
X12450981Y-16532871D01*
X12422410Y-16561443D01*
X12393838Y-16575729D01*
X12822410Y-16590014D02*
X12822410Y-16790014D01*
X12750981Y-16475729D02*
X12679553Y-16690014D01*
X12865267Y-16690014D01*
X13208124Y-16790014D02*
X13208124Y-16490014D01*
X13336696Y-16790014D02*
X13336696Y-16632871D01*
X13322410Y-16604300D01*
X13293838Y-16590014D01*
X13250981Y-16590014D01*
X13222410Y-16604300D01*
X13208124Y-16618586D01*
X13522410Y-16790014D02*
X13493838Y-16775729D01*
X13479553Y-16761443D01*
X13465267Y-16732871D01*
X13465267Y-16647157D01*
X13479553Y-16618586D01*
X13493838Y-16604300D01*
X13522410Y-16590014D01*
X13565267Y-16590014D01*
X13593838Y-16604300D01*
X13608124Y-16618586D01*
X13622410Y-16647157D01*
X13622410Y-16732871D01*
X13608124Y-16761443D01*
X13593838Y-16775729D01*
X13565267Y-16790014D01*
X13522410Y-16790014D01*
X13793838Y-16790014D02*
X13765267Y-16775729D01*
X13750981Y-16747157D01*
X13750981Y-16490014D01*
X14022410Y-16775729D02*
X13993838Y-16790014D01*
X13936696Y-16790014D01*
X13908124Y-16775729D01*
X13893838Y-16747157D01*
X13893838Y-16632871D01*
X13908124Y-16604300D01*
X13936696Y-16590014D01*
X13993838Y-16590014D01*
X14022410Y-16604300D01*
X14036696Y-16632871D01*
X14036696Y-16661443D01*
X13893838Y-16690014D01*
X14150981Y-16775729D02*
X14179553Y-16790014D01*
X14236696Y-16790014D01*
X14265267Y-16775729D01*
X14279553Y-16747157D01*
X14279553Y-16732871D01*
X14265267Y-16704300D01*
X14236696Y-16690014D01*
X14193838Y-16690014D01*
X14165267Y-16675729D01*
X14150981Y-16647157D01*
X14150981Y-16632871D01*
X14165267Y-16604300D01*
X14193838Y-16590014D01*
X14236696Y-16590014D01*
X14265267Y-16604300D01*
X14379553Y-16904300D02*
X14393838Y-16890014D01*
X14422410Y-16847157D01*
X14436696Y-16818586D01*
X14450981Y-16775729D01*
X14465267Y-16704300D01*
X14465267Y-16647157D01*
X14450981Y-16575729D01*
X14436696Y-16532871D01*
X14422410Y-16504300D01*
X14393838Y-16461443D01*
X14379553Y-16447157D01*
X7552800Y-16995690D02*
X7552800Y-17104910D01*
X7498190Y-17050300D02*
X7607410Y-17050300D01*
X8050981Y-17186014D02*
X7879553Y-17186014D01*
X7965267Y-17186014D02*
X7965267Y-16886014D01*
X7936696Y-16928872D01*
X7908124Y-16957443D01*
X7879553Y-16971729D01*
X8179553Y-17157443D02*
X8193838Y-17171729D01*
X8179553Y-17186014D01*
X8165267Y-17171729D01*
X8179553Y-17157443D01*
X8179553Y-17186014D01*
X8379553Y-16886014D02*
X8408124Y-16886014D01*
X8436696Y-16900300D01*
X8450981Y-16914586D01*
X8465267Y-16943157D01*
X8479553Y-17000300D01*
X8479553Y-17071729D01*
X8465267Y-17128872D01*
X8450981Y-17157443D01*
X8436696Y-17171729D01*
X8408124Y-17186014D01*
X8379553Y-17186014D01*
X8350981Y-17171729D01*
X8336696Y-17157443D01*
X8322410Y-17128872D01*
X8308124Y-17071729D01*
X8308124Y-17000300D01*
X8322410Y-16943157D01*
X8336696Y-16914586D01*
X8350981Y-16900300D01*
X8379553Y-16886014D01*
X8622410Y-17186014D02*
X8679553Y-17186014D01*
X8708124Y-17171729D01*
X8722410Y-17157443D01*
X8750981Y-17114586D01*
X8765267Y-17057443D01*
X8765267Y-16943157D01*
X8750981Y-16914586D01*
X8736696Y-16900300D01*
X8708124Y-16886014D01*
X8650981Y-16886014D01*
X8622410Y-16900300D01*
X8608124Y-16914586D01*
X8593838Y-16943157D01*
X8593838Y-17014586D01*
X8608124Y-17043157D01*
X8622410Y-17057443D01*
X8650981Y-17071729D01*
X8708124Y-17071729D01*
X8736696Y-17057443D01*
X8750981Y-17043157D01*
X8765267Y-17014586D01*
X8893838Y-17186014D02*
X8893838Y-16986014D01*
X8893838Y-17014586D02*
X8908124Y-17000300D01*
X8936696Y-16986014D01*
X8979553Y-16986014D01*
X9008124Y-17000300D01*
X9022410Y-17028872D01*
X9022410Y-17186014D01*
X9022410Y-17028872D02*
X9036696Y-17000300D01*
X9065267Y-16986014D01*
X9108124Y-16986014D01*
X9136696Y-17000300D01*
X9150981Y-17028872D01*
X9150981Y-17186014D01*
X9293838Y-17186014D02*
X9293838Y-16986014D01*
X9293838Y-17014586D02*
X9308124Y-17000300D01*
X9336696Y-16986014D01*
X9379553Y-16986014D01*
X9408124Y-17000300D01*
X9422410Y-17028872D01*
X9422410Y-17186014D01*
X9422410Y-17028872D02*
X9436696Y-17000300D01*
X9465267Y-16986014D01*
X9508124Y-16986014D01*
X9536696Y-17000300D01*
X9550981Y-17028872D01*
X9550981Y-17186014D01*
X10136696Y-16871729D02*
X9879553Y-17257443D01*
X10522410Y-16886014D02*
X10550981Y-16886014D01*
X10579553Y-16900300D01*
X10593838Y-16914586D01*
X10608124Y-16943157D01*
X10622410Y-17000300D01*
X10622410Y-17071729D01*
X10608124Y-17128872D01*
X10593838Y-17157443D01*
X10579553Y-17171729D01*
X10550981Y-17186014D01*
X10522410Y-17186014D01*
X10493838Y-17171729D01*
X10479553Y-17157443D01*
X10465267Y-17128872D01*
X10450981Y-17071729D01*
X10450981Y-17000300D01*
X10465267Y-16943157D01*
X10479553Y-16914586D01*
X10493838Y-16900300D01*
X10522410Y-16886014D01*
X10750981Y-17157443D02*
X10765267Y-17171729D01*
X10750981Y-17186014D01*
X10736696Y-17171729D01*
X10750981Y-17157443D01*
X10750981Y-17186014D01*
X10950981Y-16886014D02*
X10979553Y-16886014D01*
X11008124Y-16900300D01*
X11022410Y-16914586D01*
X11036696Y-16943157D01*
X11050981Y-17000300D01*
X11050981Y-17071729D01*
X11036696Y-17128872D01*
X11022410Y-17157443D01*
X11008124Y-17171729D01*
X10979553Y-17186014D01*
X10950981Y-17186014D01*
X10922410Y-17171729D01*
X10908124Y-17157443D01*
X10893838Y-17128872D01*
X10879553Y-17071729D01*
X10879553Y-17000300D01*
X10893838Y-16943157D01*
X10908124Y-16914586D01*
X10922410Y-16900300D01*
X10950981Y-16886014D01*
X11308124Y-16986014D02*
X11308124Y-17186014D01*
X11236696Y-16871729D02*
X11165267Y-17086014D01*
X11350981Y-17086014D01*
X11436696Y-16886014D02*
X11622410Y-16886014D01*
X11522410Y-17000300D01*
X11565267Y-17000300D01*
X11593838Y-17014586D01*
X11608124Y-17028872D01*
X11622410Y-17057443D01*
X11622410Y-17128872D01*
X11608124Y-17157443D01*
X11593838Y-17171729D01*
X11565267Y-17186014D01*
X11479553Y-17186014D01*
X11450981Y-17171729D01*
X11436696Y-17157443D01*
X11736696Y-16886014D02*
X11736696Y-16943157D01*
X11850981Y-16886014D02*
X11850981Y-16943157D01*
X12293838Y-17300300D02*
X12279553Y-17286014D01*
X12250981Y-17243157D01*
X12236696Y-17214586D01*
X12222410Y-17171729D01*
X12208124Y-17100300D01*
X12208124Y-17043157D01*
X12222410Y-16971729D01*
X12236696Y-16928872D01*
X12250981Y-16900300D01*
X12279553Y-16857443D01*
X12293838Y-16843157D01*
X12550981Y-16886014D02*
X12408124Y-16886014D01*
X12393838Y-17028872D01*
X12408124Y-17014586D01*
X12436696Y-17000300D01*
X12508124Y-17000300D01*
X12536696Y-17014586D01*
X12550981Y-17028872D01*
X12565267Y-17057443D01*
X12565267Y-17128872D01*
X12550981Y-17157443D01*
X12536696Y-17171729D01*
X12508124Y-17186014D01*
X12436696Y-17186014D01*
X12408124Y-17171729D01*
X12393838Y-17157443D01*
X12836696Y-16886014D02*
X12693838Y-16886014D01*
X12679553Y-17028872D01*
X12693838Y-17014586D01*
X12722410Y-17000300D01*
X12793838Y-17000300D01*
X12822410Y-17014586D01*
X12836696Y-17028872D01*
X12850981Y-17057443D01*
X12850981Y-17128872D01*
X12836696Y-17157443D01*
X12822410Y-17171729D01*
X12793838Y-17186014D01*
X12722410Y-17186014D01*
X12693838Y-17171729D01*
X12679553Y-17157443D01*
X13208124Y-17186014D02*
X13208124Y-16886014D01*
X13336696Y-17186014D02*
X13336696Y-17028872D01*
X13322410Y-17000300D01*
X13293838Y-16986014D01*
X13250981Y-16986014D01*
X13222410Y-17000300D01*
X13208124Y-17014586D01*
X13522410Y-17186014D02*
X13493838Y-17171729D01*
X13479553Y-17157443D01*
X13465267Y-17128872D01*
X13465267Y-17043157D01*
X13479553Y-17014586D01*
X13493838Y-17000300D01*
X13522410Y-16986014D01*
X13565267Y-16986014D01*
X13593838Y-17000300D01*
X13608124Y-17014586D01*
X13622410Y-17043157D01*
X13622410Y-17128872D01*
X13608124Y-17157443D01*
X13593838Y-17171729D01*
X13565267Y-17186014D01*
X13522410Y-17186014D01*
X13793838Y-17186014D02*
X13765267Y-17171729D01*
X13750981Y-17143157D01*
X13750981Y-16886014D01*
X14022410Y-17171729D02*
X13993838Y-17186014D01*
X13936696Y-17186014D01*
X13908124Y-17171729D01*
X13893838Y-17143157D01*
X13893838Y-17028872D01*
X13908124Y-17000300D01*
X13936696Y-16986014D01*
X13993838Y-16986014D01*
X14022410Y-17000300D01*
X14036696Y-17028872D01*
X14036696Y-17057443D01*
X13893838Y-17086014D01*
X14150981Y-17171729D02*
X14179553Y-17186014D01*
X14236696Y-17186014D01*
X14265267Y-17171729D01*
X14279553Y-17143157D01*
X14279553Y-17128872D01*
X14265267Y-17100300D01*
X14236696Y-17086014D01*
X14193838Y-17086014D01*
X14165267Y-17071729D01*
X14150981Y-17043157D01*
X14150981Y-17028872D01*
X14165267Y-17000300D01*
X14193838Y-16986014D01*
X14236696Y-16986014D01*
X14265267Y-17000300D01*
X14379553Y-17300300D02*
X14393838Y-17286014D01*
X14422410Y-17243157D01*
X14436696Y-17214586D01*
X14450981Y-17171729D01*
X14465267Y-17100300D01*
X14465267Y-17043157D01*
X14450981Y-16971729D01*
X14436696Y-16928872D01*
X14422410Y-16900300D01*
X14393838Y-16857443D01*
X14379553Y-16843157D01*
X7591301Y-17485191D02*
X7591301Y-17407409D01*
X7513519Y-17407409D01*
X7513519Y-17485191D01*
X7591301Y-17485191D01*
X8050981Y-17582014D02*
X7879553Y-17582014D01*
X7965267Y-17582014D02*
X7965267Y-17282014D01*
X7936696Y-17324872D01*
X7908124Y-17353443D01*
X7879553Y-17367729D01*
X8179553Y-17553443D02*
X8193838Y-17567729D01*
X8179553Y-17582014D01*
X8165267Y-17567729D01*
X8179553Y-17553443D01*
X8179553Y-17582014D01*
X8479553Y-17582014D02*
X8308124Y-17582014D01*
X8393838Y-17582014D02*
X8393838Y-17282014D01*
X8365267Y-17324872D01*
X8336696Y-17353443D01*
X8308124Y-17367729D01*
X8665267Y-17282014D02*
X8693838Y-17282014D01*
X8722410Y-17296300D01*
X8736696Y-17310586D01*
X8750981Y-17339157D01*
X8765267Y-17396300D01*
X8765267Y-17467729D01*
X8750981Y-17524872D01*
X8736696Y-17553443D01*
X8722410Y-17567729D01*
X8693838Y-17582014D01*
X8665267Y-17582014D01*
X8636696Y-17567729D01*
X8622410Y-17553443D01*
X8608124Y-17524872D01*
X8593838Y-17467729D01*
X8593838Y-17396300D01*
X8608124Y-17339157D01*
X8622410Y-17310586D01*
X8636696Y-17296300D01*
X8665267Y-17282014D01*
X8893838Y-17582014D02*
X8893838Y-17382014D01*
X8893838Y-17410586D02*
X8908124Y-17396300D01*
X8936696Y-17382014D01*
X8979553Y-17382014D01*
X9008124Y-17396300D01*
X9022410Y-17424872D01*
X9022410Y-17582014D01*
X9022410Y-17424872D02*
X9036696Y-17396300D01*
X9065267Y-17382014D01*
X9108124Y-17382014D01*
X9136696Y-17396300D01*
X9150981Y-17424872D01*
X9150981Y-17582014D01*
X9293838Y-17582014D02*
X9293838Y-17382014D01*
X9293838Y-17410586D02*
X9308124Y-17396300D01*
X9336696Y-17382014D01*
X9379553Y-17382014D01*
X9408124Y-17396300D01*
X9422410Y-17424872D01*
X9422410Y-17582014D01*
X9422410Y-17424872D02*
X9436696Y-17396300D01*
X9465267Y-17382014D01*
X9508124Y-17382014D01*
X9536696Y-17396300D01*
X9550981Y-17424872D01*
X9550981Y-17582014D01*
X10136696Y-17267729D02*
X9879553Y-17653443D01*
X10522410Y-17282014D02*
X10550981Y-17282014D01*
X10579553Y-17296300D01*
X10593838Y-17310586D01*
X10608124Y-17339157D01*
X10622410Y-17396300D01*
X10622410Y-17467729D01*
X10608124Y-17524872D01*
X10593838Y-17553443D01*
X10579553Y-17567729D01*
X10550981Y-17582014D01*
X10522410Y-17582014D01*
X10493838Y-17567729D01*
X10479553Y-17553443D01*
X10465267Y-17524872D01*
X10450981Y-17467729D01*
X10450981Y-17396300D01*
X10465267Y-17339157D01*
X10479553Y-17310586D01*
X10493838Y-17296300D01*
X10522410Y-17282014D01*
X10750981Y-17553443D02*
X10765267Y-17567729D01*
X10750981Y-17582014D01*
X10736696Y-17567729D01*
X10750981Y-17553443D01*
X10750981Y-17582014D01*
X10950981Y-17282014D02*
X10979553Y-17282014D01*
X11008124Y-17296300D01*
X11022410Y-17310586D01*
X11036696Y-17339157D01*
X11050981Y-17396300D01*
X11050981Y-17467729D01*
X11036696Y-17524872D01*
X11022410Y-17553443D01*
X11008124Y-17567729D01*
X10979553Y-17582014D01*
X10950981Y-17582014D01*
X10922410Y-17567729D01*
X10908124Y-17553443D01*
X10893838Y-17524872D01*
X10879553Y-17467729D01*
X10879553Y-17396300D01*
X10893838Y-17339157D01*
X10908124Y-17310586D01*
X10922410Y-17296300D01*
X10950981Y-17282014D01*
X11308124Y-17382014D02*
X11308124Y-17582014D01*
X11236696Y-17267729D02*
X11165267Y-17482014D01*
X11350981Y-17482014D01*
X11436696Y-17282014D02*
X11622410Y-17282014D01*
X11522410Y-17396300D01*
X11565267Y-17396300D01*
X11593838Y-17410586D01*
X11608124Y-17424872D01*
X11622410Y-17453443D01*
X11622410Y-17524872D01*
X11608124Y-17553443D01*
X11593838Y-17567729D01*
X11565267Y-17582014D01*
X11479553Y-17582014D01*
X11450981Y-17567729D01*
X11436696Y-17553443D01*
X11736696Y-17282014D02*
X11736696Y-17339157D01*
X11850981Y-17282014D02*
X11850981Y-17339157D01*
X12293838Y-17696300D02*
X12279553Y-17682014D01*
X12250981Y-17639157D01*
X12236696Y-17610586D01*
X12222410Y-17567729D01*
X12208124Y-17496300D01*
X12208124Y-17439157D01*
X12222410Y-17367729D01*
X12236696Y-17324872D01*
X12250981Y-17296300D01*
X12279553Y-17253443D01*
X12293838Y-17239157D01*
X12536696Y-17382014D02*
X12536696Y-17582014D01*
X12465267Y-17267729D02*
X12393838Y-17482014D01*
X12579553Y-17482014D01*
X12922410Y-17582014D02*
X12922410Y-17282014D01*
X13050981Y-17582014D02*
X13050981Y-17424872D01*
X13036696Y-17396300D01*
X13008124Y-17382014D01*
X12965267Y-17382014D01*
X12936696Y-17396300D01*
X12922410Y-17410586D01*
X13236696Y-17582014D02*
X13208124Y-17567729D01*
X13193838Y-17553443D01*
X13179553Y-17524872D01*
X13179553Y-17439157D01*
X13193838Y-17410586D01*
X13208124Y-17396300D01*
X13236696Y-17382014D01*
X13279553Y-17382014D01*
X13308124Y-17396300D01*
X13322410Y-17410586D01*
X13336696Y-17439157D01*
X13336696Y-17524872D01*
X13322410Y-17553443D01*
X13308124Y-17567729D01*
X13279553Y-17582014D01*
X13236696Y-17582014D01*
X13508124Y-17582014D02*
X13479553Y-17567729D01*
X13465267Y-17539157D01*
X13465267Y-17282014D01*
X13736696Y-17567729D02*
X13708124Y-17582014D01*
X13650981Y-17582014D01*
X13622410Y-17567729D01*
X13608124Y-17539157D01*
X13608124Y-17424872D01*
X13622410Y-17396300D01*
X13650981Y-17382014D01*
X13708124Y-17382014D01*
X13736696Y-17396300D01*
X13750981Y-17424872D01*
X13750981Y-17453443D01*
X13608124Y-17482014D01*
X13865267Y-17567729D02*
X13893838Y-17582014D01*
X13950981Y-17582014D01*
X13979553Y-17567729D01*
X13993838Y-17539157D01*
X13993838Y-17524872D01*
X13979553Y-17496300D01*
X13950981Y-17482014D01*
X13908124Y-17482014D01*
X13879553Y-17467729D01*
X13865267Y-17439157D01*
X13865267Y-17424872D01*
X13879553Y-17396300D01*
X13908124Y-17382014D01*
X13950981Y-17382014D01*
X13979553Y-17396300D01*
X14093838Y-17696300D02*
X14108124Y-17682014D01*
X14136696Y-17639157D01*
X14150981Y-17610586D01*
X14165267Y-17567729D01*
X14179553Y-17496300D01*
X14179553Y-17439157D01*
X14165267Y-17367729D01*
X14150981Y-17324872D01*
X14136696Y-17296300D01*
X14108124Y-17253443D01*
X14093838Y-17239157D01*
X7519780Y-17929930D02*
X7607410Y-17842300D01*
X7519780Y-17754670D01*
X7432150Y-17842300D01*
X7519780Y-17929930D01*
X8050981Y-17978014D02*
X7879553Y-17978014D01*
X7965267Y-17978014D02*
X7965267Y-17678014D01*
X7936696Y-17720872D01*
X7908124Y-17749443D01*
X7879553Y-17763729D01*
X8179553Y-17949443D02*
X8193838Y-17963729D01*
X8179553Y-17978014D01*
X8165267Y-17963729D01*
X8179553Y-17949443D01*
X8179553Y-17978014D01*
X8293838Y-17678014D02*
X8493838Y-17678014D01*
X8365267Y-17978014D01*
X8750981Y-17678014D02*
X8608124Y-17678014D01*
X8593838Y-17820872D01*
X8608124Y-17806586D01*
X8636696Y-17792300D01*
X8708124Y-17792300D01*
X8736696Y-17806586D01*
X8750981Y-17820872D01*
X8765267Y-17849443D01*
X8765267Y-17920872D01*
X8750981Y-17949443D01*
X8736696Y-17963729D01*
X8708124Y-17978014D01*
X8636696Y-17978014D01*
X8608124Y-17963729D01*
X8593838Y-17949443D01*
X8893838Y-17978014D02*
X8893838Y-17778014D01*
X8893838Y-17806586D02*
X8908124Y-17792300D01*
X8936696Y-17778014D01*
X8979553Y-17778014D01*
X9008124Y-17792300D01*
X9022410Y-17820872D01*
X9022410Y-17978014D01*
X9022410Y-17820872D02*
X9036696Y-17792300D01*
X9065267Y-17778014D01*
X9108124Y-17778014D01*
X9136696Y-17792300D01*
X9150981Y-17820872D01*
X9150981Y-17978014D01*
X9293838Y-17978014D02*
X9293838Y-17778014D01*
X9293838Y-17806586D02*
X9308124Y-17792300D01*
X9336696Y-17778014D01*
X9379553Y-17778014D01*
X9408124Y-17792300D01*
X9422410Y-17820872D01*
X9422410Y-17978014D01*
X9422410Y-17820872D02*
X9436696Y-17792300D01*
X9465267Y-17778014D01*
X9508124Y-17778014D01*
X9536696Y-17792300D01*
X9550981Y-17820872D01*
X9550981Y-17978014D01*
X10136696Y-17663729D02*
X9879553Y-18049443D01*
X10522410Y-17678014D02*
X10550981Y-17678014D01*
X10579553Y-17692300D01*
X10593838Y-17706586D01*
X10608124Y-17735157D01*
X10622410Y-17792300D01*
X10622410Y-17863729D01*
X10608124Y-17920872D01*
X10593838Y-17949443D01*
X10579553Y-17963729D01*
X10550981Y-17978014D01*
X10522410Y-17978014D01*
X10493838Y-17963729D01*
X10479553Y-17949443D01*
X10465267Y-17920872D01*
X10450981Y-17863729D01*
X10450981Y-17792300D01*
X10465267Y-17735157D01*
X10479553Y-17706586D01*
X10493838Y-17692300D01*
X10522410Y-17678014D01*
X10750981Y-17949443D02*
X10765267Y-17963729D01*
X10750981Y-17978014D01*
X10736696Y-17963729D01*
X10750981Y-17949443D01*
X10750981Y-17978014D01*
X10950981Y-17678014D02*
X10979553Y-17678014D01*
X11008124Y-17692300D01*
X11022410Y-17706586D01*
X11036696Y-17735157D01*
X11050981Y-17792300D01*
X11050981Y-17863729D01*
X11036696Y-17920872D01*
X11022410Y-17949443D01*
X11008124Y-17963729D01*
X10979553Y-17978014D01*
X10950981Y-17978014D01*
X10922410Y-17963729D01*
X10908124Y-17949443D01*
X10893838Y-17920872D01*
X10879553Y-17863729D01*
X10879553Y-17792300D01*
X10893838Y-17735157D01*
X10908124Y-17706586D01*
X10922410Y-17692300D01*
X10950981Y-17678014D01*
X11308124Y-17678014D02*
X11250981Y-17678014D01*
X11222410Y-17692300D01*
X11208124Y-17706586D01*
X11179553Y-17749443D01*
X11165267Y-17806586D01*
X11165267Y-17920872D01*
X11179553Y-17949443D01*
X11193838Y-17963729D01*
X11222410Y-17978014D01*
X11279553Y-17978014D01*
X11308124Y-17963729D01*
X11322410Y-17949443D01*
X11336696Y-17920872D01*
X11336696Y-17849443D01*
X11322410Y-17820872D01*
X11308124Y-17806586D01*
X11279553Y-17792300D01*
X11222410Y-17792300D01*
X11193838Y-17806586D01*
X11179553Y-17820872D01*
X11165267Y-17849443D01*
X11479553Y-17978014D02*
X11536696Y-17978014D01*
X11565267Y-17963729D01*
X11579553Y-17949443D01*
X11608124Y-17906586D01*
X11622410Y-17849443D01*
X11622410Y-17735157D01*
X11608124Y-17706586D01*
X11593838Y-17692300D01*
X11565267Y-17678014D01*
X11508124Y-17678014D01*
X11479553Y-17692300D01*
X11465267Y-17706586D01*
X11450981Y-17735157D01*
X11450981Y-17806586D01*
X11465267Y-17835157D01*
X11479553Y-17849443D01*
X11508124Y-17863729D01*
X11565267Y-17863729D01*
X11593838Y-17849443D01*
X11608124Y-17835157D01*
X11622410Y-17806586D01*
X11736696Y-17678014D02*
X11736696Y-17735157D01*
X11850981Y-17678014D02*
X11850981Y-17735157D01*
X12293838Y-18092300D02*
X12279553Y-18078014D01*
X12250981Y-18035157D01*
X12236696Y-18006586D01*
X12222410Y-17963729D01*
X12208124Y-17892300D01*
X12208124Y-17835157D01*
X12222410Y-17763729D01*
X12236696Y-17720872D01*
X12250981Y-17692300D01*
X12279553Y-17649443D01*
X12293838Y-17635157D01*
X12393838Y-17706586D02*
X12408124Y-17692300D01*
X12436696Y-17678014D01*
X12508124Y-17678014D01*
X12536696Y-17692300D01*
X12550981Y-17706586D01*
X12565267Y-17735157D01*
X12565267Y-17763729D01*
X12550981Y-17806586D01*
X12379553Y-17978014D01*
X12565267Y-17978014D01*
X12822410Y-17678014D02*
X12765267Y-17678014D01*
X12736696Y-17692300D01*
X12722410Y-17706586D01*
X12693838Y-17749443D01*
X12679553Y-17806586D01*
X12679553Y-17920872D01*
X12693838Y-17949443D01*
X12708124Y-17963729D01*
X12736696Y-17978014D01*
X12793838Y-17978014D01*
X12822410Y-17963729D01*
X12836696Y-17949443D01*
X12850981Y-17920872D01*
X12850981Y-17849443D01*
X12836696Y-17820872D01*
X12822410Y-17806586D01*
X12793838Y-17792300D01*
X12736696Y-17792300D01*
X12708124Y-17806586D01*
X12693838Y-17820872D01*
X12679553Y-17849443D01*
X13208124Y-17978014D02*
X13208124Y-17678014D01*
X13336696Y-17978014D02*
X13336696Y-17820872D01*
X13322410Y-17792300D01*
X13293838Y-17778014D01*
X13250981Y-17778014D01*
X13222410Y-17792300D01*
X13208124Y-17806586D01*
X13522410Y-17978014D02*
X13493838Y-17963729D01*
X13479553Y-17949443D01*
X13465267Y-17920872D01*
X13465267Y-17835157D01*
X13479553Y-17806586D01*
X13493838Y-17792300D01*
X13522410Y-17778014D01*
X13565267Y-17778014D01*
X13593838Y-17792300D01*
X13608124Y-17806586D01*
X13622410Y-17835157D01*
X13622410Y-17920872D01*
X13608124Y-17949443D01*
X13593838Y-17963729D01*
X13565267Y-17978014D01*
X13522410Y-17978014D01*
X13793838Y-17978014D02*
X13765267Y-17963729D01*
X13750981Y-17935157D01*
X13750981Y-17678014D01*
X14022410Y-17963729D02*
X13993838Y-17978014D01*
X13936696Y-17978014D01*
X13908124Y-17963729D01*
X13893838Y-17935157D01*
X13893838Y-17820872D01*
X13908124Y-17792300D01*
X13936696Y-17778014D01*
X13993838Y-17778014D01*
X14022410Y-17792300D01*
X14036696Y-17820872D01*
X14036696Y-17849443D01*
X13893838Y-17878014D01*
X14150981Y-17963729D02*
X14179553Y-17978014D01*
X14236696Y-17978014D01*
X14265267Y-17963729D01*
X14279553Y-17935157D01*
X14279553Y-17920872D01*
X14265267Y-17892300D01*
X14236696Y-17878014D01*
X14193838Y-17878014D01*
X14165267Y-17863729D01*
X14150981Y-17835157D01*
X14150981Y-17820872D01*
X14165267Y-17792300D01*
X14193838Y-17778014D01*
X14236696Y-17778014D01*
X14265267Y-17792300D01*
X14379553Y-18092300D02*
X14393838Y-18078014D01*
X14422410Y-18035157D01*
X14436696Y-18006586D01*
X14450981Y-17963729D01*
X14465267Y-17892300D01*
X14465267Y-17835157D01*
X14450981Y-17763729D01*
X14436696Y-17720872D01*
X14422410Y-17692300D01*
X14393838Y-17649443D01*
X14379553Y-17635157D01*
X7378810Y-18124000D02*
X7607410Y-18352600D01*
X7607410Y-18124000D02*
X7378810Y-18352600D01*
X7607410Y-18238300D02*
G75*
G03*
X7607410Y-18238300I-114300J0D01*
G01*
X7879553Y-18102586D02*
X7893838Y-18088300D01*
X7922410Y-18074014D01*
X7993838Y-18074014D01*
X8022410Y-18088300D01*
X8036696Y-18102586D01*
X8050981Y-18131157D01*
X8050981Y-18159729D01*
X8036696Y-18202586D01*
X7865267Y-18374014D01*
X8050981Y-18374014D01*
X8179553Y-18345443D02*
X8193838Y-18359729D01*
X8179553Y-18374014D01*
X8165267Y-18359729D01*
X8179553Y-18345443D01*
X8179553Y-18374014D01*
X8308124Y-18102586D02*
X8322410Y-18088300D01*
X8350981Y-18074014D01*
X8422410Y-18074014D01*
X8450981Y-18088300D01*
X8465267Y-18102586D01*
X8479553Y-18131157D01*
X8479553Y-18159729D01*
X8465267Y-18202586D01*
X8293838Y-18374014D01*
X8479553Y-18374014D01*
X8622410Y-18374014D02*
X8679553Y-18374014D01*
X8708124Y-18359729D01*
X8722410Y-18345443D01*
X8750981Y-18302586D01*
X8765267Y-18245443D01*
X8765267Y-18131157D01*
X8750981Y-18102586D01*
X8736696Y-18088300D01*
X8708124Y-18074014D01*
X8650981Y-18074014D01*
X8622410Y-18088300D01*
X8608124Y-18102586D01*
X8593838Y-18131157D01*
X8593838Y-18202586D01*
X8608124Y-18231157D01*
X8622410Y-18245443D01*
X8650981Y-18259729D01*
X8708124Y-18259729D01*
X8736696Y-18245443D01*
X8750981Y-18231157D01*
X8765267Y-18202586D01*
X8893838Y-18374014D02*
X8893838Y-18174014D01*
X8893838Y-18202586D02*
X8908124Y-18188300D01*
X8936696Y-18174014D01*
X8979553Y-18174014D01*
X9008124Y-18188300D01*
X9022410Y-18216872D01*
X9022410Y-18374014D01*
X9022410Y-18216872D02*
X9036696Y-18188300D01*
X9065267Y-18174014D01*
X9108124Y-18174014D01*
X9136696Y-18188300D01*
X9150981Y-18216872D01*
X9150981Y-18374014D01*
X9293838Y-18374014D02*
X9293838Y-18174014D01*
X9293838Y-18202586D02*
X9308124Y-18188300D01*
X9336696Y-18174014D01*
X9379553Y-18174014D01*
X9408124Y-18188300D01*
X9422410Y-18216872D01*
X9422410Y-18374014D01*
X9422410Y-18216872D02*
X9436696Y-18188300D01*
X9465267Y-18174014D01*
X9508124Y-18174014D01*
X9536696Y-18188300D01*
X9550981Y-18216872D01*
X9550981Y-18374014D01*
X10136696Y-18059729D02*
X9879553Y-18445443D01*
X10522410Y-18074014D02*
X10550981Y-18074014D01*
X10579553Y-18088300D01*
X10593838Y-18102586D01*
X10608124Y-18131157D01*
X10622410Y-18188300D01*
X10622410Y-18259729D01*
X10608124Y-18316872D01*
X10593838Y-18345443D01*
X10579553Y-18359729D01*
X10550981Y-18374014D01*
X10522410Y-18374014D01*
X10493838Y-18359729D01*
X10479553Y-18345443D01*
X10465267Y-18316872D01*
X10450981Y-18259729D01*
X10450981Y-18188300D01*
X10465267Y-18131157D01*
X10479553Y-18102586D01*
X10493838Y-18088300D01*
X10522410Y-18074014D01*
X10750981Y-18345443D02*
X10765267Y-18359729D01*
X10750981Y-18374014D01*
X10736696Y-18359729D01*
X10750981Y-18345443D01*
X10750981Y-18374014D01*
X10950981Y-18074014D02*
X10979553Y-18074014D01*
X11008124Y-18088300D01*
X11022410Y-18102586D01*
X11036696Y-18131157D01*
X11050981Y-18188300D01*
X11050981Y-18259729D01*
X11036696Y-18316872D01*
X11022410Y-18345443D01*
X11008124Y-18359729D01*
X10979553Y-18374014D01*
X10950981Y-18374014D01*
X10922410Y-18359729D01*
X10908124Y-18345443D01*
X10893838Y-18316872D01*
X10879553Y-18259729D01*
X10879553Y-18188300D01*
X10893838Y-18131157D01*
X10908124Y-18102586D01*
X10922410Y-18088300D01*
X10950981Y-18074014D01*
X11193838Y-18374014D02*
X11250981Y-18374014D01*
X11279553Y-18359729D01*
X11293838Y-18345443D01*
X11322410Y-18302586D01*
X11336696Y-18245443D01*
X11336696Y-18131157D01*
X11322410Y-18102586D01*
X11308124Y-18088300D01*
X11279553Y-18074014D01*
X11222410Y-18074014D01*
X11193838Y-18088300D01*
X11179553Y-18102586D01*
X11165267Y-18131157D01*
X11165267Y-18202586D01*
X11179553Y-18231157D01*
X11193838Y-18245443D01*
X11222410Y-18259729D01*
X11279553Y-18259729D01*
X11308124Y-18245443D01*
X11322410Y-18231157D01*
X11336696Y-18202586D01*
X11522410Y-18074014D02*
X11550981Y-18074014D01*
X11579553Y-18088300D01*
X11593838Y-18102586D01*
X11608124Y-18131157D01*
X11622410Y-18188300D01*
X11622410Y-18259729D01*
X11608124Y-18316872D01*
X11593838Y-18345443D01*
X11579553Y-18359729D01*
X11550981Y-18374014D01*
X11522410Y-18374014D01*
X11493838Y-18359729D01*
X11479553Y-18345443D01*
X11465267Y-18316872D01*
X11450981Y-18259729D01*
X11450981Y-18188300D01*
X11465267Y-18131157D01*
X11479553Y-18102586D01*
X11493838Y-18088300D01*
X11522410Y-18074014D01*
X11736696Y-18074014D02*
X11736696Y-18131157D01*
X11850981Y-18074014D02*
X11850981Y-18131157D01*
X12293838Y-18488300D02*
X12279553Y-18474014D01*
X12250981Y-18431157D01*
X12236696Y-18402586D01*
X12222410Y-18359729D01*
X12208124Y-18288300D01*
X12208124Y-18231157D01*
X12222410Y-18159729D01*
X12236696Y-18116872D01*
X12250981Y-18088300D01*
X12279553Y-18045443D01*
X12293838Y-18031157D01*
X12536696Y-18174014D02*
X12536696Y-18374014D01*
X12465267Y-18059729D02*
X12393838Y-18274014D01*
X12579553Y-18274014D01*
X12922410Y-18374014D02*
X12922410Y-18074014D01*
X13050981Y-18374014D02*
X13050981Y-18216872D01*
X13036696Y-18188300D01*
X13008124Y-18174014D01*
X12965267Y-18174014D01*
X12936696Y-18188300D01*
X12922410Y-18202586D01*
X13236696Y-18374014D02*
X13208124Y-18359729D01*
X13193838Y-18345443D01*
X13179553Y-18316872D01*
X13179553Y-18231157D01*
X13193838Y-18202586D01*
X13208124Y-18188300D01*
X13236696Y-18174014D01*
X13279553Y-18174014D01*
X13308124Y-18188300D01*
X13322410Y-18202586D01*
X13336696Y-18231157D01*
X13336696Y-18316872D01*
X13322410Y-18345443D01*
X13308124Y-18359729D01*
X13279553Y-18374014D01*
X13236696Y-18374014D01*
X13508124Y-18374014D02*
X13479553Y-18359729D01*
X13465267Y-18331157D01*
X13465267Y-18074014D01*
X13736696Y-18359729D02*
X13708124Y-18374014D01*
X13650981Y-18374014D01*
X13622410Y-18359729D01*
X13608124Y-18331157D01*
X13608124Y-18216872D01*
X13622410Y-18188300D01*
X13650981Y-18174014D01*
X13708124Y-18174014D01*
X13736696Y-18188300D01*
X13750981Y-18216872D01*
X13750981Y-18245443D01*
X13608124Y-18274014D01*
X13865267Y-18359729D02*
X13893838Y-18374014D01*
X13950981Y-18374014D01*
X13979553Y-18359729D01*
X13993838Y-18331157D01*
X13993838Y-18316872D01*
X13979553Y-18288300D01*
X13950981Y-18274014D01*
X13908124Y-18274014D01*
X13879553Y-18259729D01*
X13865267Y-18231157D01*
X13865267Y-18216872D01*
X13879553Y-18188300D01*
X13908124Y-18174014D01*
X13950981Y-18174014D01*
X13979553Y-18188300D01*
X14093838Y-18488300D02*
X14108124Y-18474014D01*
X14136696Y-18431157D01*
X14150981Y-18402586D01*
X14165267Y-18359729D01*
X14179553Y-18288300D01*
X14179553Y-18231157D01*
X14165267Y-18159729D01*
X14150981Y-18116872D01*
X14136696Y-18088300D01*
X14108124Y-18045443D01*
X14093838Y-18031157D01*
M02*
