G04 #@! TF.GenerationSoftware,KiCad,Pcbnew,(5.1.9)-1*
G04 #@! TF.CreationDate,2021-06-17T16:50:29+01:00*
G04 #@! TF.ProjectId,AutoPilot,4175746f-5069-46c6-9f74-2e6b69636164,0.3*
G04 #@! TF.SameCoordinates,Original*
G04 #@! TF.FileFunction,Legend,Bot*
G04 #@! TF.FilePolarity,Positive*
%FSLAX46Y46*%
G04 Gerber Fmt 4.6, Leading zero omitted, Abs format (unit mm)*
G04 Created by KiCad (PCBNEW (5.1.9)-1) date 2021-06-17 16:50:29*
%MOMM*%
%LPD*%
G01*
G04 APERTURE LIST*
%ADD10C,0.300000*%
%ADD11C,0.120000*%
%ADD12C,0.152400*%
%ADD13C,0.381000*%
%ADD14C,0.150000*%
%ADD15C,0.154940*%
%ADD16C,1.727200*%
%ADD17C,3.505200*%
%ADD18C,3.200001*%
%ADD19C,3.987800*%
%ADD20C,3.048000*%
%ADD21C,4.089400*%
%ADD22C,1.706881*%
%ADD23C,2.235200*%
%ADD24C,3.429000*%
%ADD25R,1.200000X0.900000*%
%ADD26C,3.200000*%
%ADD27C,1.752600*%
%ADD28R,1.752600X1.752600*%
%ADD29C,2.000000*%
%ADD30O,3.251200X1.727200*%
G04 APERTURE END LIST*
D10*
X91439428Y-142156571D02*
X92296571Y-142156571D01*
X91868000Y-142156571D02*
X91868000Y-140656571D01*
X92010857Y-140870857D01*
X92153714Y-141013714D01*
X92296571Y-141085142D01*
X90939428Y-140656571D02*
X89939428Y-140656571D01*
X90582285Y-142156571D01*
X89082285Y-140656571D02*
X88939428Y-140656571D01*
X88796571Y-140728000D01*
X88725142Y-140799428D01*
X88653714Y-140942285D01*
X88582285Y-141228000D01*
X88582285Y-141585142D01*
X88653714Y-141870857D01*
X88725142Y-142013714D01*
X88796571Y-142085142D01*
X88939428Y-142156571D01*
X89082285Y-142156571D01*
X89225142Y-142085142D01*
X89296571Y-142013714D01*
X89368000Y-141870857D01*
X89439428Y-141585142D01*
X89439428Y-141228000D01*
X89368000Y-140942285D01*
X89296571Y-140799428D01*
X89225142Y-140728000D01*
X89082285Y-140656571D01*
X87296571Y-140656571D02*
X87582285Y-140656571D01*
X87725142Y-140728000D01*
X87796571Y-140799428D01*
X87939428Y-141013714D01*
X88010857Y-141299428D01*
X88010857Y-141870857D01*
X87939428Y-142013714D01*
X87868000Y-142085142D01*
X87725142Y-142156571D01*
X87439428Y-142156571D01*
X87296571Y-142085142D01*
X87225142Y-142013714D01*
X87153714Y-141870857D01*
X87153714Y-141513714D01*
X87225142Y-141370857D01*
X87296571Y-141299428D01*
X87439428Y-141228000D01*
X87725142Y-141228000D01*
X87868000Y-141299428D01*
X87939428Y-141370857D01*
X88010857Y-141513714D01*
X86582285Y-140799428D02*
X86510857Y-140728000D01*
X86368000Y-140656571D01*
X86010857Y-140656571D01*
X85868000Y-140728000D01*
X85796571Y-140799428D01*
X85725142Y-140942285D01*
X85725142Y-141085142D01*
X85796571Y-141299428D01*
X86653714Y-142156571D01*
X85725142Y-142156571D01*
X84796571Y-140656571D02*
X84653714Y-140656571D01*
X84510857Y-140728000D01*
X84439428Y-140799428D01*
X84368000Y-140942285D01*
X84296571Y-141228000D01*
X84296571Y-141585142D01*
X84368000Y-141870857D01*
X84439428Y-142013714D01*
X84510857Y-142085142D01*
X84653714Y-142156571D01*
X84796571Y-142156571D01*
X84939428Y-142085142D01*
X85010857Y-142013714D01*
X85082285Y-141870857D01*
X85153714Y-141585142D01*
X85153714Y-141228000D01*
X85082285Y-140942285D01*
X85010857Y-140799428D01*
X84939428Y-140728000D01*
X84796571Y-140656571D01*
X83725142Y-140799428D02*
X83653714Y-140728000D01*
X83510857Y-140656571D01*
X83153714Y-140656571D01*
X83010857Y-140728000D01*
X82939428Y-140799428D01*
X82868000Y-140942285D01*
X82868000Y-141085142D01*
X82939428Y-141299428D01*
X83796571Y-142156571D01*
X82868000Y-142156571D01*
X81439428Y-142156571D02*
X82296571Y-142156571D01*
X81868000Y-142156571D02*
X81868000Y-140656571D01*
X82010857Y-140870857D01*
X82153714Y-141013714D01*
X82296571Y-141085142D01*
X95470500Y-135378000D02*
X94756214Y-135378000D01*
X95666928Y-135806571D02*
X94979428Y-134306571D01*
X94666928Y-135806571D01*
X93979428Y-134306571D02*
X94131214Y-135520857D01*
X94077642Y-135663714D01*
X94015142Y-135735142D01*
X93881214Y-135806571D01*
X93595500Y-135806571D01*
X93443714Y-135735142D01*
X93363357Y-135663714D01*
X93274071Y-135520857D01*
X93122285Y-134306571D01*
X92622285Y-134306571D02*
X91765142Y-134306571D01*
X92381214Y-135806571D02*
X92193714Y-134306571D01*
X90979428Y-134306571D02*
X90693714Y-134306571D01*
X90559785Y-134378000D01*
X90434785Y-134520857D01*
X90399071Y-134806571D01*
X90461571Y-135306571D01*
X90568714Y-135592285D01*
X90729428Y-135735142D01*
X90881214Y-135806571D01*
X91166928Y-135806571D01*
X91300857Y-135735142D01*
X91425857Y-135592285D01*
X91461571Y-135306571D01*
X91399071Y-134806571D01*
X91291928Y-134520857D01*
X91131214Y-134378000D01*
X90979428Y-134306571D01*
X88738357Y-135806571D02*
X88550857Y-134306571D01*
X87979428Y-134306571D01*
X87845500Y-134378000D01*
X87783000Y-134449428D01*
X87729428Y-134592285D01*
X87756214Y-134806571D01*
X87845500Y-134949428D01*
X87925857Y-135020857D01*
X88077642Y-135092285D01*
X88649071Y-135092285D01*
X87238357Y-135806571D02*
X87050857Y-134306571D01*
X85809785Y-135806571D02*
X86524071Y-135806571D01*
X86336571Y-134306571D01*
X84836571Y-134306571D02*
X84550857Y-134306571D01*
X84416928Y-134378000D01*
X84291928Y-134520857D01*
X84256214Y-134806571D01*
X84318714Y-135306571D01*
X84425857Y-135592285D01*
X84586571Y-135735142D01*
X84738357Y-135806571D01*
X85024071Y-135806571D01*
X85158000Y-135735142D01*
X85283000Y-135592285D01*
X85318714Y-135306571D01*
X85256214Y-134806571D01*
X85149071Y-134520857D01*
X84988357Y-134378000D01*
X84836571Y-134306571D01*
X83765142Y-134306571D02*
X82908000Y-134306571D01*
X83524071Y-135806571D02*
X83336571Y-134306571D01*
X80979428Y-134306571D02*
X80836571Y-134306571D01*
X80702642Y-134378000D01*
X80640142Y-134449428D01*
X80586571Y-134592285D01*
X80550857Y-134878000D01*
X80595500Y-135235142D01*
X80702642Y-135520857D01*
X80791928Y-135663714D01*
X80872285Y-135735142D01*
X81024071Y-135806571D01*
X81166928Y-135806571D01*
X81300857Y-135735142D01*
X81363357Y-135663714D01*
X81416928Y-135520857D01*
X81452642Y-135235142D01*
X81408000Y-134878000D01*
X81300857Y-134592285D01*
X81211571Y-134449428D01*
X81131214Y-134378000D01*
X80979428Y-134306571D01*
X80006214Y-135663714D02*
X79943714Y-135735142D01*
X80024071Y-135806571D01*
X80086571Y-135735142D01*
X80006214Y-135663714D01*
X80024071Y-135806571D01*
X79265142Y-134306571D02*
X78336571Y-134306571D01*
X78908000Y-134878000D01*
X78693714Y-134878000D01*
X78559785Y-134949428D01*
X78497285Y-135020857D01*
X78443714Y-135163714D01*
X78488357Y-135520857D01*
X78577642Y-135663714D01*
X78658000Y-135735142D01*
X78809785Y-135806571D01*
X79238357Y-135806571D01*
X79372285Y-135735142D01*
X79434785Y-135663714D01*
X95082285Y-138426000D02*
X94368000Y-138426000D01*
X95225142Y-138854571D02*
X94725142Y-137354571D01*
X94225142Y-138854571D01*
X93725142Y-137854571D02*
X93725142Y-138854571D01*
X93725142Y-137997428D02*
X93653714Y-137926000D01*
X93510857Y-137854571D01*
X93296571Y-137854571D01*
X93153714Y-137926000D01*
X93082285Y-138068857D01*
X93082285Y-138854571D01*
X91725142Y-138854571D02*
X91725142Y-137354571D01*
X91725142Y-138783142D02*
X91868000Y-138854571D01*
X92153714Y-138854571D01*
X92296571Y-138783142D01*
X92368000Y-138711714D01*
X92439428Y-138568857D01*
X92439428Y-138140285D01*
X92368000Y-137997428D01*
X92296571Y-137926000D01*
X92153714Y-137854571D01*
X91868000Y-137854571D01*
X91725142Y-137926000D01*
X91010857Y-138854571D02*
X91010857Y-137854571D01*
X91010857Y-138140285D02*
X90939428Y-137997428D01*
X90868000Y-137926000D01*
X90725142Y-137854571D01*
X90582285Y-137854571D01*
X89510857Y-138783142D02*
X89653714Y-138854571D01*
X89939428Y-138854571D01*
X90082285Y-138783142D01*
X90153714Y-138640285D01*
X90153714Y-138068857D01*
X90082285Y-137926000D01*
X89939428Y-137854571D01*
X89653714Y-137854571D01*
X89510857Y-137926000D01*
X89439428Y-138068857D01*
X89439428Y-138211714D01*
X90153714Y-138354571D01*
X88939428Y-137854571D02*
X88653714Y-138854571D01*
X88368000Y-138140285D01*
X88082285Y-138854571D01*
X87796571Y-137854571D01*
X85582285Y-138068857D02*
X86082285Y-138068857D01*
X86082285Y-138854571D02*
X86082285Y-137354571D01*
X85368000Y-137354571D01*
X84796571Y-138854571D02*
X84796571Y-137854571D01*
X84796571Y-137354571D02*
X84868000Y-137426000D01*
X84796571Y-137497428D01*
X84725142Y-137426000D01*
X84796571Y-137354571D01*
X84796571Y-137497428D01*
X84153714Y-138783142D02*
X84010857Y-138854571D01*
X83725142Y-138854571D01*
X83582285Y-138783142D01*
X83510857Y-138640285D01*
X83510857Y-138568857D01*
X83582285Y-138426000D01*
X83725142Y-138354571D01*
X83939428Y-138354571D01*
X84082285Y-138283142D01*
X84153714Y-138140285D01*
X84153714Y-138068857D01*
X84082285Y-137926000D01*
X83939428Y-137854571D01*
X83725142Y-137854571D01*
X83582285Y-137926000D01*
X82225142Y-138783142D02*
X82368000Y-138854571D01*
X82653714Y-138854571D01*
X82796571Y-138783142D01*
X82868000Y-138711714D01*
X82939428Y-138568857D01*
X82939428Y-138140285D01*
X82868000Y-137997428D01*
X82796571Y-137926000D01*
X82653714Y-137854571D01*
X82368000Y-137854571D01*
X82225142Y-137926000D01*
X81582285Y-138854571D02*
X81582285Y-137354571D01*
X80939428Y-138854571D02*
X80939428Y-138068857D01*
X81010857Y-137926000D01*
X81153714Y-137854571D01*
X81368000Y-137854571D01*
X81510857Y-137926000D01*
X81582285Y-137997428D01*
X79653714Y-138783142D02*
X79796571Y-138854571D01*
X80082285Y-138854571D01*
X80225142Y-138783142D01*
X80296571Y-138640285D01*
X80296571Y-138068857D01*
X80225142Y-137926000D01*
X80082285Y-137854571D01*
X79796571Y-137854571D01*
X79653714Y-137926000D01*
X79582285Y-138068857D01*
X79582285Y-138211714D01*
X80296571Y-138354571D01*
X78939428Y-138854571D02*
X78939428Y-137854571D01*
X78939428Y-138140285D02*
X78868000Y-137997428D01*
X78796571Y-137926000D01*
X78653714Y-137854571D01*
X78510857Y-137854571D01*
D11*
X123471000Y-64743064D02*
X123471000Y-64288936D01*
X124941000Y-64743064D02*
X124941000Y-64288936D01*
X120423000Y-64743064D02*
X120423000Y-64288936D01*
X121893000Y-64743064D02*
X121893000Y-64288936D01*
D12*
X97552000Y-113066000D02*
X97552000Y-116966000D01*
X99552000Y-113066000D02*
X99552000Y-116966000D01*
X97552000Y-113066000D02*
X99552000Y-113066000D01*
X97552000Y-94016000D02*
X97552000Y-97916000D01*
X99552000Y-94016000D02*
X99552000Y-97916000D01*
X97552000Y-94016000D02*
X99552000Y-94016000D01*
X154702000Y-132116000D02*
X154702000Y-136016000D01*
X156702000Y-132116000D02*
X156702000Y-136016000D01*
X154702000Y-132116000D02*
X156702000Y-132116000D01*
X161306000Y-73442000D02*
X161306000Y-77342000D01*
X163306000Y-73442000D02*
X163306000Y-77342000D01*
X161306000Y-73442000D02*
X163306000Y-73442000D01*
X142256000Y-132116000D02*
X142256000Y-136016000D01*
X144256000Y-132116000D02*
X144256000Y-136016000D01*
X142256000Y-132116000D02*
X144256000Y-132116000D01*
X110506000Y-132116000D02*
X110506000Y-136016000D01*
X112506000Y-132116000D02*
X112506000Y-136016000D01*
X110506000Y-132116000D02*
X112506000Y-132116000D01*
X142256000Y-113066000D02*
X142256000Y-116966000D01*
X144256000Y-113066000D02*
X144256000Y-116966000D01*
X142256000Y-113066000D02*
X144256000Y-113066000D01*
X123206000Y-113066000D02*
X123206000Y-116966000D01*
X125206000Y-113066000D02*
X125206000Y-116966000D01*
X123206000Y-113066000D02*
X125206000Y-113066000D01*
X104156000Y-113066000D02*
X104156000Y-116966000D01*
X106156000Y-113066000D02*
X106156000Y-116966000D01*
X104156000Y-113066000D02*
X106156000Y-113066000D01*
X142256000Y-94016000D02*
X142256000Y-97916000D01*
X144256000Y-94016000D02*
X144256000Y-97916000D01*
X142256000Y-94016000D02*
X144256000Y-94016000D01*
X123206000Y-94016000D02*
X123206000Y-97916000D01*
X125206000Y-94016000D02*
X125206000Y-97916000D01*
X123206000Y-94016000D02*
X125206000Y-94016000D01*
X104156000Y-94016000D02*
X104156000Y-97916000D01*
X106156000Y-94016000D02*
X106156000Y-97916000D01*
X104156000Y-94016000D02*
X106156000Y-94016000D01*
X142256000Y-73442000D02*
X142256000Y-77342000D01*
X144256000Y-73442000D02*
X144256000Y-77342000D01*
X142256000Y-73442000D02*
X144256000Y-73442000D01*
X123206000Y-73442000D02*
X123206000Y-77342000D01*
X125206000Y-73442000D02*
X125206000Y-77342000D01*
X123206000Y-73442000D02*
X125206000Y-73442000D01*
X104156000Y-73442000D02*
X104156000Y-77342000D01*
X106156000Y-73442000D02*
X106156000Y-77342000D01*
X104156000Y-73442000D02*
X106156000Y-73442000D01*
D13*
X82042000Y-58166000D02*
X79502000Y-58166000D01*
X82042000Y-55626000D02*
X82042000Y-58166000D01*
D14*
G36*
X94436635Y-61915030D02*
G01*
X94436635Y-62015030D01*
X94536635Y-62015030D01*
X94536635Y-61915030D01*
X94436635Y-61915030D01*
G37*
X94436635Y-61915030D02*
X94436635Y-62015030D01*
X94536635Y-62015030D01*
X94536635Y-61915030D01*
X94436635Y-61915030D01*
G36*
X94636635Y-61515030D02*
G01*
X94636635Y-62315030D01*
X94736635Y-62315030D01*
X94736635Y-61515030D01*
X94636635Y-61515030D01*
G37*
X94636635Y-61515030D02*
X94636635Y-62315030D01*
X94736635Y-62315030D01*
X94736635Y-61515030D01*
X94636635Y-61515030D01*
G36*
X94236635Y-62115030D02*
G01*
X94236635Y-62315030D01*
X94336635Y-62315030D01*
X94336635Y-62115030D01*
X94236635Y-62115030D01*
G37*
X94236635Y-62115030D02*
X94236635Y-62315030D01*
X94336635Y-62315030D01*
X94336635Y-62115030D01*
X94236635Y-62115030D01*
G36*
X94236635Y-61515030D02*
G01*
X94236635Y-61815030D01*
X94336635Y-61815030D01*
X94336635Y-61515030D01*
X94236635Y-61515030D01*
G37*
X94236635Y-61515030D02*
X94236635Y-61815030D01*
X94336635Y-61815030D01*
X94336635Y-61515030D01*
X94236635Y-61515030D01*
G36*
X94236635Y-61515030D02*
G01*
X94236635Y-61615030D01*
X94736635Y-61615030D01*
X94736635Y-61515030D01*
X94236635Y-61515030D01*
G37*
X94236635Y-61515030D02*
X94236635Y-61615030D01*
X94736635Y-61615030D01*
X94736635Y-61515030D01*
X94236635Y-61515030D01*
D13*
X97282000Y-86106000D02*
X97282000Y-53086000D01*
X79502000Y-86106000D02*
X97282000Y-86106000D01*
X79502000Y-53086000D02*
X79502000Y-86106000D01*
X97282000Y-53086000D02*
X79502000Y-53086000D01*
X82042000Y-55626000D02*
X79502000Y-55626000D01*
D11*
X115088936Y-128551000D02*
X115543064Y-128551000D01*
X115088936Y-130021000D02*
X115543064Y-130021000D01*
X134646936Y-109501000D02*
X135101064Y-109501000D01*
X134646936Y-110971000D02*
X135101064Y-110971000D01*
X126211064Y-149071000D02*
X125756936Y-149071000D01*
X126211064Y-147601000D02*
X125756936Y-147601000D01*
X154151064Y-110971000D02*
X153696936Y-110971000D01*
X154151064Y-109501000D02*
X153696936Y-109501000D01*
X153696936Y-90451000D02*
X154151064Y-90451000D01*
X153696936Y-91921000D02*
X154151064Y-91921000D01*
X135101064Y-91921000D02*
X134646936Y-91921000D01*
X135101064Y-90451000D02*
X134646936Y-90451000D01*
X116305064Y-91921000D02*
X115850936Y-91921000D01*
X116305064Y-90451000D02*
X115850936Y-90451000D01*
D14*
X124658380Y-67143333D02*
X124182190Y-66810000D01*
X124658380Y-66571904D02*
X123658380Y-66571904D01*
X123658380Y-66952857D01*
X123706000Y-67048095D01*
X123753619Y-67095714D01*
X123848857Y-67143333D01*
X123991714Y-67143333D01*
X124086952Y-67095714D01*
X124134571Y-67048095D01*
X124182190Y-66952857D01*
X124182190Y-66571904D01*
X124658380Y-67619523D02*
X124658380Y-67810000D01*
X124610761Y-67905238D01*
X124563142Y-67952857D01*
X124420285Y-68048095D01*
X124229809Y-68095714D01*
X123848857Y-68095714D01*
X123753619Y-68048095D01*
X123706000Y-68000476D01*
X123658380Y-67905238D01*
X123658380Y-67714761D01*
X123706000Y-67619523D01*
X123753619Y-67571904D01*
X123848857Y-67524285D01*
X124086952Y-67524285D01*
X124182190Y-67571904D01*
X124229809Y-67619523D01*
X124277428Y-67714761D01*
X124277428Y-67905238D01*
X124229809Y-68000476D01*
X124182190Y-68048095D01*
X124086952Y-68095714D01*
X121610380Y-67143333D02*
X121134190Y-66810000D01*
X121610380Y-66571904D02*
X120610380Y-66571904D01*
X120610380Y-66952857D01*
X120658000Y-67048095D01*
X120705619Y-67095714D01*
X120800857Y-67143333D01*
X120943714Y-67143333D01*
X121038952Y-67095714D01*
X121086571Y-67048095D01*
X121134190Y-66952857D01*
X121134190Y-66571904D01*
X121038952Y-67714761D02*
X120991333Y-67619523D01*
X120943714Y-67571904D01*
X120848476Y-67524285D01*
X120800857Y-67524285D01*
X120705619Y-67571904D01*
X120658000Y-67619523D01*
X120610380Y-67714761D01*
X120610380Y-67905238D01*
X120658000Y-68000476D01*
X120705619Y-68048095D01*
X120800857Y-68095714D01*
X120848476Y-68095714D01*
X120943714Y-68048095D01*
X120991333Y-68000476D01*
X121038952Y-67905238D01*
X121038952Y-67714761D01*
X121086571Y-67619523D01*
X121134190Y-67571904D01*
X121229428Y-67524285D01*
X121419904Y-67524285D01*
X121515142Y-67571904D01*
X121562761Y-67619523D01*
X121610380Y-67714761D01*
X121610380Y-67905238D01*
X121562761Y-68000476D01*
X121515142Y-68048095D01*
X121419904Y-68095714D01*
X121229428Y-68095714D01*
X121134190Y-68048095D01*
X121086571Y-68000476D01*
X121038952Y-67905238D01*
X97004380Y-114101714D02*
X96004380Y-114101714D01*
X96004380Y-114339809D01*
X96052000Y-114482666D01*
X96147238Y-114577904D01*
X96242476Y-114625523D01*
X96432952Y-114673142D01*
X96575809Y-114673142D01*
X96766285Y-114625523D01*
X96861523Y-114577904D01*
X96956761Y-114482666D01*
X97004380Y-114339809D01*
X97004380Y-114101714D01*
X96099619Y-115054095D02*
X96052000Y-115101714D01*
X96004380Y-115196952D01*
X96004380Y-115435047D01*
X96052000Y-115530285D01*
X96099619Y-115577904D01*
X96194857Y-115625523D01*
X96290095Y-115625523D01*
X96432952Y-115577904D01*
X97004380Y-115006476D01*
X97004380Y-115625523D01*
X96099619Y-116006476D02*
X96052000Y-116054095D01*
X96004380Y-116149333D01*
X96004380Y-116387428D01*
X96052000Y-116482666D01*
X96099619Y-116530285D01*
X96194857Y-116577904D01*
X96290095Y-116577904D01*
X96432952Y-116530285D01*
X97004380Y-115958857D01*
X97004380Y-116577904D01*
X97004380Y-95051714D02*
X96004380Y-95051714D01*
X96004380Y-95289809D01*
X96052000Y-95432666D01*
X96147238Y-95527904D01*
X96242476Y-95575523D01*
X96432952Y-95623142D01*
X96575809Y-95623142D01*
X96766285Y-95575523D01*
X96861523Y-95527904D01*
X96956761Y-95432666D01*
X97004380Y-95289809D01*
X97004380Y-95051714D01*
X96099619Y-96004095D02*
X96052000Y-96051714D01*
X96004380Y-96146952D01*
X96004380Y-96385047D01*
X96052000Y-96480285D01*
X96099619Y-96527904D01*
X96194857Y-96575523D01*
X96290095Y-96575523D01*
X96432952Y-96527904D01*
X97004380Y-95956476D01*
X97004380Y-96575523D01*
X97004380Y-97527904D02*
X97004380Y-96956476D01*
X97004380Y-97242190D02*
X96004380Y-97242190D01*
X96147238Y-97146952D01*
X96242476Y-97051714D01*
X96290095Y-96956476D01*
X154154380Y-133151714D02*
X153154380Y-133151714D01*
X153154380Y-133389809D01*
X153202000Y-133532666D01*
X153297238Y-133627904D01*
X153392476Y-133675523D01*
X153582952Y-133723142D01*
X153725809Y-133723142D01*
X153916285Y-133675523D01*
X154011523Y-133627904D01*
X154106761Y-133532666D01*
X154154380Y-133389809D01*
X154154380Y-133151714D01*
X154154380Y-134675523D02*
X154154380Y-134104095D01*
X154154380Y-134389809D02*
X153154380Y-134389809D01*
X153297238Y-134294571D01*
X153392476Y-134199333D01*
X153440095Y-134104095D01*
X153154380Y-135580285D02*
X153154380Y-135104095D01*
X153630571Y-135056476D01*
X153582952Y-135104095D01*
X153535333Y-135199333D01*
X153535333Y-135437428D01*
X153582952Y-135532666D01*
X153630571Y-135580285D01*
X153725809Y-135627904D01*
X153963904Y-135627904D01*
X154059142Y-135580285D01*
X154106761Y-135532666D01*
X154154380Y-135437428D01*
X154154380Y-135199333D01*
X154106761Y-135104095D01*
X154059142Y-135056476D01*
X160758380Y-74477714D02*
X159758380Y-74477714D01*
X159758380Y-74715809D01*
X159806000Y-74858666D01*
X159901238Y-74953904D01*
X159996476Y-75001523D01*
X160186952Y-75049142D01*
X160329809Y-75049142D01*
X160520285Y-75001523D01*
X160615523Y-74953904D01*
X160710761Y-74858666D01*
X160758380Y-74715809D01*
X160758380Y-74477714D01*
X160758380Y-76001523D02*
X160758380Y-75430095D01*
X160758380Y-75715809D02*
X159758380Y-75715809D01*
X159901238Y-75620571D01*
X159996476Y-75525333D01*
X160044095Y-75430095D01*
X160091714Y-76858666D02*
X160758380Y-76858666D01*
X159710761Y-76620571D02*
X160425047Y-76382476D01*
X160425047Y-77001523D01*
X141708380Y-133151714D02*
X140708380Y-133151714D01*
X140708380Y-133389809D01*
X140756000Y-133532666D01*
X140851238Y-133627904D01*
X140946476Y-133675523D01*
X141136952Y-133723142D01*
X141279809Y-133723142D01*
X141470285Y-133675523D01*
X141565523Y-133627904D01*
X141660761Y-133532666D01*
X141708380Y-133389809D01*
X141708380Y-133151714D01*
X141708380Y-134675523D02*
X141708380Y-134104095D01*
X141708380Y-134389809D02*
X140708380Y-134389809D01*
X140851238Y-134294571D01*
X140946476Y-134199333D01*
X140994095Y-134104095D01*
X140803619Y-135056476D02*
X140756000Y-135104095D01*
X140708380Y-135199333D01*
X140708380Y-135437428D01*
X140756000Y-135532666D01*
X140803619Y-135580285D01*
X140898857Y-135627904D01*
X140994095Y-135627904D01*
X141136952Y-135580285D01*
X141708380Y-135008857D01*
X141708380Y-135627904D01*
X109958380Y-133151714D02*
X108958380Y-133151714D01*
X108958380Y-133389809D01*
X109006000Y-133532666D01*
X109101238Y-133627904D01*
X109196476Y-133675523D01*
X109386952Y-133723142D01*
X109529809Y-133723142D01*
X109720285Y-133675523D01*
X109815523Y-133627904D01*
X109910761Y-133532666D01*
X109958380Y-133389809D01*
X109958380Y-133151714D01*
X109958380Y-134675523D02*
X109958380Y-134104095D01*
X109958380Y-134389809D02*
X108958380Y-134389809D01*
X109101238Y-134294571D01*
X109196476Y-134199333D01*
X109244095Y-134104095D01*
X108958380Y-135294571D02*
X108958380Y-135389809D01*
X109006000Y-135485047D01*
X109053619Y-135532666D01*
X109148857Y-135580285D01*
X109339333Y-135627904D01*
X109577428Y-135627904D01*
X109767904Y-135580285D01*
X109863142Y-135532666D01*
X109910761Y-135485047D01*
X109958380Y-135389809D01*
X109958380Y-135294571D01*
X109910761Y-135199333D01*
X109863142Y-135151714D01*
X109767904Y-135104095D01*
X109577428Y-135056476D01*
X109339333Y-135056476D01*
X109148857Y-135104095D01*
X109053619Y-135151714D01*
X109006000Y-135199333D01*
X108958380Y-135294571D01*
X141708380Y-114577904D02*
X140708380Y-114577904D01*
X140708380Y-114816000D01*
X140756000Y-114958857D01*
X140851238Y-115054095D01*
X140946476Y-115101714D01*
X141136952Y-115149333D01*
X141279809Y-115149333D01*
X141470285Y-115101714D01*
X141565523Y-115054095D01*
X141660761Y-114958857D01*
X141708380Y-114816000D01*
X141708380Y-114577904D01*
X141708380Y-115625523D02*
X141708380Y-115816000D01*
X141660761Y-115911238D01*
X141613142Y-115958857D01*
X141470285Y-116054095D01*
X141279809Y-116101714D01*
X140898857Y-116101714D01*
X140803619Y-116054095D01*
X140756000Y-116006476D01*
X140708380Y-115911238D01*
X140708380Y-115720761D01*
X140756000Y-115625523D01*
X140803619Y-115577904D01*
X140898857Y-115530285D01*
X141136952Y-115530285D01*
X141232190Y-115577904D01*
X141279809Y-115625523D01*
X141327428Y-115720761D01*
X141327428Y-115911238D01*
X141279809Y-116006476D01*
X141232190Y-116054095D01*
X141136952Y-116101714D01*
X122658380Y-114577904D02*
X121658380Y-114577904D01*
X121658380Y-114816000D01*
X121706000Y-114958857D01*
X121801238Y-115054095D01*
X121896476Y-115101714D01*
X122086952Y-115149333D01*
X122229809Y-115149333D01*
X122420285Y-115101714D01*
X122515523Y-115054095D01*
X122610761Y-114958857D01*
X122658380Y-114816000D01*
X122658380Y-114577904D01*
X122086952Y-115720761D02*
X122039333Y-115625523D01*
X121991714Y-115577904D01*
X121896476Y-115530285D01*
X121848857Y-115530285D01*
X121753619Y-115577904D01*
X121706000Y-115625523D01*
X121658380Y-115720761D01*
X121658380Y-115911238D01*
X121706000Y-116006476D01*
X121753619Y-116054095D01*
X121848857Y-116101714D01*
X121896476Y-116101714D01*
X121991714Y-116054095D01*
X122039333Y-116006476D01*
X122086952Y-115911238D01*
X122086952Y-115720761D01*
X122134571Y-115625523D01*
X122182190Y-115577904D01*
X122277428Y-115530285D01*
X122467904Y-115530285D01*
X122563142Y-115577904D01*
X122610761Y-115625523D01*
X122658380Y-115720761D01*
X122658380Y-115911238D01*
X122610761Y-116006476D01*
X122563142Y-116054095D01*
X122467904Y-116101714D01*
X122277428Y-116101714D01*
X122182190Y-116054095D01*
X122134571Y-116006476D01*
X122086952Y-115911238D01*
X103608380Y-114577904D02*
X102608380Y-114577904D01*
X102608380Y-114816000D01*
X102656000Y-114958857D01*
X102751238Y-115054095D01*
X102846476Y-115101714D01*
X103036952Y-115149333D01*
X103179809Y-115149333D01*
X103370285Y-115101714D01*
X103465523Y-115054095D01*
X103560761Y-114958857D01*
X103608380Y-114816000D01*
X103608380Y-114577904D01*
X102608380Y-115482666D02*
X102608380Y-116149333D01*
X103608380Y-115720761D01*
X141708380Y-95527904D02*
X140708380Y-95527904D01*
X140708380Y-95766000D01*
X140756000Y-95908857D01*
X140851238Y-96004095D01*
X140946476Y-96051714D01*
X141136952Y-96099333D01*
X141279809Y-96099333D01*
X141470285Y-96051714D01*
X141565523Y-96004095D01*
X141660761Y-95908857D01*
X141708380Y-95766000D01*
X141708380Y-95527904D01*
X140708380Y-96956476D02*
X140708380Y-96766000D01*
X140756000Y-96670761D01*
X140803619Y-96623142D01*
X140946476Y-96527904D01*
X141136952Y-96480285D01*
X141517904Y-96480285D01*
X141613142Y-96527904D01*
X141660761Y-96575523D01*
X141708380Y-96670761D01*
X141708380Y-96861238D01*
X141660761Y-96956476D01*
X141613142Y-97004095D01*
X141517904Y-97051714D01*
X141279809Y-97051714D01*
X141184571Y-97004095D01*
X141136952Y-96956476D01*
X141089333Y-96861238D01*
X141089333Y-96670761D01*
X141136952Y-96575523D01*
X141184571Y-96527904D01*
X141279809Y-96480285D01*
X122658380Y-95527904D02*
X121658380Y-95527904D01*
X121658380Y-95766000D01*
X121706000Y-95908857D01*
X121801238Y-96004095D01*
X121896476Y-96051714D01*
X122086952Y-96099333D01*
X122229809Y-96099333D01*
X122420285Y-96051714D01*
X122515523Y-96004095D01*
X122610761Y-95908857D01*
X122658380Y-95766000D01*
X122658380Y-95527904D01*
X121658380Y-97004095D02*
X121658380Y-96527904D01*
X122134571Y-96480285D01*
X122086952Y-96527904D01*
X122039333Y-96623142D01*
X122039333Y-96861238D01*
X122086952Y-96956476D01*
X122134571Y-97004095D01*
X122229809Y-97051714D01*
X122467904Y-97051714D01*
X122563142Y-97004095D01*
X122610761Y-96956476D01*
X122658380Y-96861238D01*
X122658380Y-96623142D01*
X122610761Y-96527904D01*
X122563142Y-96480285D01*
X103608380Y-95527904D02*
X102608380Y-95527904D01*
X102608380Y-95766000D01*
X102656000Y-95908857D01*
X102751238Y-96004095D01*
X102846476Y-96051714D01*
X103036952Y-96099333D01*
X103179809Y-96099333D01*
X103370285Y-96051714D01*
X103465523Y-96004095D01*
X103560761Y-95908857D01*
X103608380Y-95766000D01*
X103608380Y-95527904D01*
X102941714Y-96956476D02*
X103608380Y-96956476D01*
X102560761Y-96718380D02*
X103275047Y-96480285D01*
X103275047Y-97099333D01*
X141708380Y-74953904D02*
X140708380Y-74953904D01*
X140708380Y-75192000D01*
X140756000Y-75334857D01*
X140851238Y-75430095D01*
X140946476Y-75477714D01*
X141136952Y-75525333D01*
X141279809Y-75525333D01*
X141470285Y-75477714D01*
X141565523Y-75430095D01*
X141660761Y-75334857D01*
X141708380Y-75192000D01*
X141708380Y-74953904D01*
X140708380Y-75858666D02*
X140708380Y-76477714D01*
X141089333Y-76144380D01*
X141089333Y-76287238D01*
X141136952Y-76382476D01*
X141184571Y-76430095D01*
X141279809Y-76477714D01*
X141517904Y-76477714D01*
X141613142Y-76430095D01*
X141660761Y-76382476D01*
X141708380Y-76287238D01*
X141708380Y-76001523D01*
X141660761Y-75906285D01*
X141613142Y-75858666D01*
X122658380Y-74953904D02*
X121658380Y-74953904D01*
X121658380Y-75192000D01*
X121706000Y-75334857D01*
X121801238Y-75430095D01*
X121896476Y-75477714D01*
X122086952Y-75525333D01*
X122229809Y-75525333D01*
X122420285Y-75477714D01*
X122515523Y-75430095D01*
X122610761Y-75334857D01*
X122658380Y-75192000D01*
X122658380Y-74953904D01*
X121753619Y-75906285D02*
X121706000Y-75953904D01*
X121658380Y-76049142D01*
X121658380Y-76287238D01*
X121706000Y-76382476D01*
X121753619Y-76430095D01*
X121848857Y-76477714D01*
X121944095Y-76477714D01*
X122086952Y-76430095D01*
X122658380Y-75858666D01*
X122658380Y-76477714D01*
X103608380Y-74953904D02*
X102608380Y-74953904D01*
X102608380Y-75192000D01*
X102656000Y-75334857D01*
X102751238Y-75430095D01*
X102846476Y-75477714D01*
X103036952Y-75525333D01*
X103179809Y-75525333D01*
X103370285Y-75477714D01*
X103465523Y-75430095D01*
X103560761Y-75334857D01*
X103608380Y-75192000D01*
X103608380Y-74953904D01*
X103608380Y-76477714D02*
X103608380Y-75906285D01*
X103608380Y-76192000D02*
X102608380Y-76192000D01*
X102751238Y-76096761D01*
X102846476Y-76001523D01*
X102894095Y-75906285D01*
X83521476Y-59797904D02*
X83521476Y-58997904D01*
X83331000Y-58997904D01*
X83216714Y-59036000D01*
X83140523Y-59112190D01*
X83102428Y-59188380D01*
X83064333Y-59340761D01*
X83064333Y-59455047D01*
X83102428Y-59607428D01*
X83140523Y-59683619D01*
X83216714Y-59759809D01*
X83331000Y-59797904D01*
X83521476Y-59797904D01*
X82759571Y-59074095D02*
X82721476Y-59036000D01*
X82645285Y-58997904D01*
X82454809Y-58997904D01*
X82378619Y-59036000D01*
X82340523Y-59074095D01*
X82302428Y-59150285D01*
X82302428Y-59226476D01*
X82340523Y-59340761D01*
X82797666Y-59797904D01*
X82302428Y-59797904D01*
X83521476Y-69957904D02*
X83521476Y-69157904D01*
X83331000Y-69157904D01*
X83216714Y-69196000D01*
X83140523Y-69272190D01*
X83102428Y-69348380D01*
X83064333Y-69500761D01*
X83064333Y-69615047D01*
X83102428Y-69767428D01*
X83140523Y-69843619D01*
X83216714Y-69919809D01*
X83331000Y-69957904D01*
X83521476Y-69957904D01*
X82569095Y-69157904D02*
X82492904Y-69157904D01*
X82416714Y-69196000D01*
X82378619Y-69234095D01*
X82340523Y-69310285D01*
X82302428Y-69462666D01*
X82302428Y-69653142D01*
X82340523Y-69805523D01*
X82378619Y-69881714D01*
X82416714Y-69919809D01*
X82492904Y-69957904D01*
X82569095Y-69957904D01*
X82645285Y-69919809D01*
X82683380Y-69881714D01*
X82721476Y-69805523D01*
X82759571Y-69653142D01*
X82759571Y-69462666D01*
X82721476Y-69310285D01*
X82683380Y-69234095D01*
X82645285Y-69196000D01*
X82569095Y-69157904D01*
X83521476Y-67417904D02*
X83521476Y-66617904D01*
X83331000Y-66617904D01*
X83216714Y-66656000D01*
X83140523Y-66732190D01*
X83102428Y-66808380D01*
X83064333Y-66960761D01*
X83064333Y-67075047D01*
X83102428Y-67227428D01*
X83140523Y-67303619D01*
X83216714Y-67379809D01*
X83331000Y-67417904D01*
X83521476Y-67417904D01*
X82302428Y-67417904D02*
X82759571Y-67417904D01*
X82531000Y-67417904D02*
X82531000Y-66617904D01*
X82607190Y-66732190D01*
X82683380Y-66808380D01*
X82759571Y-66846476D01*
X83540523Y-64116000D02*
X83616714Y-64077904D01*
X83731000Y-64077904D01*
X83845285Y-64116000D01*
X83921476Y-64192190D01*
X83959571Y-64268380D01*
X83997666Y-64420761D01*
X83997666Y-64535047D01*
X83959571Y-64687428D01*
X83921476Y-64763619D01*
X83845285Y-64839809D01*
X83731000Y-64877904D01*
X83654809Y-64877904D01*
X83540523Y-64839809D01*
X83502428Y-64801714D01*
X83502428Y-64535047D01*
X83654809Y-64535047D01*
X83159571Y-64877904D02*
X83159571Y-64077904D01*
X82702428Y-64877904D01*
X82702428Y-64077904D01*
X82321476Y-64877904D02*
X82321476Y-64077904D01*
X82131000Y-64077904D01*
X82016714Y-64116000D01*
X81940523Y-64192190D01*
X81902428Y-64268380D01*
X81864333Y-64420761D01*
X81864333Y-64535047D01*
X81902428Y-64687428D01*
X81940523Y-64763619D01*
X82016714Y-64839809D01*
X82131000Y-64877904D01*
X82321476Y-64877904D01*
X83540523Y-61576000D02*
X83616714Y-61537904D01*
X83731000Y-61537904D01*
X83845285Y-61576000D01*
X83921476Y-61652190D01*
X83959571Y-61728380D01*
X83997666Y-61880761D01*
X83997666Y-61995047D01*
X83959571Y-62147428D01*
X83921476Y-62223619D01*
X83845285Y-62299809D01*
X83731000Y-62337904D01*
X83654809Y-62337904D01*
X83540523Y-62299809D01*
X83502428Y-62261714D01*
X83502428Y-61995047D01*
X83654809Y-61995047D01*
X83159571Y-62337904D02*
X83159571Y-61537904D01*
X82702428Y-62337904D01*
X82702428Y-61537904D01*
X82321476Y-62337904D02*
X82321476Y-61537904D01*
X82131000Y-61537904D01*
X82016714Y-61576000D01*
X81940523Y-61652190D01*
X81902428Y-61728380D01*
X81864333Y-61880761D01*
X81864333Y-61995047D01*
X81902428Y-62147428D01*
X81940523Y-62223619D01*
X82016714Y-62299809D01*
X82131000Y-62337904D01*
X82321476Y-62337904D01*
X83521476Y-72497904D02*
X83521476Y-71697904D01*
X83331000Y-71697904D01*
X83216714Y-71736000D01*
X83140523Y-71812190D01*
X83102428Y-71888380D01*
X83064333Y-72040761D01*
X83064333Y-72155047D01*
X83102428Y-72307428D01*
X83140523Y-72383619D01*
X83216714Y-72459809D01*
X83331000Y-72497904D01*
X83521476Y-72497904D01*
X82378619Y-71964571D02*
X82378619Y-72497904D01*
X82569095Y-71659809D02*
X82759571Y-72231238D01*
X82264333Y-72231238D01*
X83064333Y-74961714D02*
X83102428Y-74999809D01*
X83216714Y-75037904D01*
X83292904Y-75037904D01*
X83407190Y-74999809D01*
X83483380Y-74923619D01*
X83521476Y-74847428D01*
X83559571Y-74695047D01*
X83559571Y-74580761D01*
X83521476Y-74428380D01*
X83483380Y-74352190D01*
X83407190Y-74276000D01*
X83292904Y-74237904D01*
X83216714Y-74237904D01*
X83102428Y-74276000D01*
X83064333Y-74314095D01*
X82378619Y-74237904D02*
X82531000Y-74237904D01*
X82607190Y-74276000D01*
X82645285Y-74314095D01*
X82721476Y-74428380D01*
X82759571Y-74580761D01*
X82759571Y-74885523D01*
X82721476Y-74961714D01*
X82683380Y-74999809D01*
X82607190Y-75037904D01*
X82454809Y-75037904D01*
X82378619Y-74999809D01*
X82340523Y-74961714D01*
X82302428Y-74885523D01*
X82302428Y-74695047D01*
X82340523Y-74618857D01*
X82378619Y-74580761D01*
X82454809Y-74542666D01*
X82607190Y-74542666D01*
X82683380Y-74580761D01*
X82721476Y-74618857D01*
X82759571Y-74695047D01*
X83521476Y-77577904D02*
X83521476Y-76777904D01*
X83331000Y-76777904D01*
X83216714Y-76816000D01*
X83140523Y-76892190D01*
X83102428Y-76968380D01*
X83064333Y-77120761D01*
X83064333Y-77235047D01*
X83102428Y-77387428D01*
X83140523Y-77463619D01*
X83216714Y-77539809D01*
X83331000Y-77577904D01*
X83521476Y-77577904D01*
X82797666Y-76777904D02*
X82264333Y-76777904D01*
X82607190Y-77577904D01*
X83483380Y-79698857D02*
X83216714Y-79698857D01*
X83102428Y-80117904D02*
X83483380Y-80117904D01*
X83483380Y-79317904D01*
X83102428Y-79317904D01*
X82416714Y-79317904D02*
X82569095Y-79317904D01*
X82645285Y-79356000D01*
X82683380Y-79394095D01*
X82759571Y-79508380D01*
X82797666Y-79660761D01*
X82797666Y-79965523D01*
X82759571Y-80041714D01*
X82721476Y-80079809D01*
X82645285Y-80117904D01*
X82492904Y-80117904D01*
X82416714Y-80079809D01*
X82378619Y-80041714D01*
X82340523Y-79965523D01*
X82340523Y-79775047D01*
X82378619Y-79698857D01*
X82416714Y-79660761D01*
X82492904Y-79622666D01*
X82645285Y-79622666D01*
X82721476Y-79660761D01*
X82759571Y-79698857D01*
X82797666Y-79775047D01*
X83254809Y-82238857D02*
X83140523Y-82276952D01*
X83102428Y-82315047D01*
X83064333Y-82391238D01*
X83064333Y-82505523D01*
X83102428Y-82581714D01*
X83140523Y-82619809D01*
X83216714Y-82657904D01*
X83521476Y-82657904D01*
X83521476Y-81857904D01*
X83254809Y-81857904D01*
X83178619Y-81896000D01*
X83140523Y-81934095D01*
X83102428Y-82010285D01*
X83102428Y-82086476D01*
X83140523Y-82162666D01*
X83178619Y-82200761D01*
X83254809Y-82238857D01*
X83521476Y-82238857D01*
X82378619Y-82124571D02*
X82378619Y-82657904D01*
X82569095Y-81819809D02*
X82759571Y-82391238D01*
X82264333Y-82391238D01*
X82227702Y-83730991D02*
X82133421Y-83683851D01*
X82086280Y-83683851D01*
X82015570Y-83707421D01*
X81944859Y-83778132D01*
X81921289Y-83848842D01*
X81921289Y-83895983D01*
X81944859Y-83966693D01*
X82133421Y-84155255D01*
X82628396Y-83660280D01*
X82463404Y-83495289D01*
X82392693Y-83471719D01*
X82345553Y-83471719D01*
X82274842Y-83495289D01*
X82227702Y-83542429D01*
X82204132Y-83613140D01*
X82204132Y-83660280D01*
X82227702Y-83730991D01*
X82392693Y-83895983D01*
X81897719Y-82929603D02*
X82133421Y-83165306D01*
X81921289Y-83424578D01*
X81921289Y-83377438D01*
X81897719Y-83306727D01*
X81779867Y-83188876D01*
X81709157Y-83165306D01*
X81662016Y-83165306D01*
X81591306Y-83188876D01*
X81473455Y-83306727D01*
X81449884Y-83377438D01*
X81449884Y-83424578D01*
X81473455Y-83495289D01*
X81591306Y-83613140D01*
X81662016Y-83636710D01*
X81709157Y-83636710D01*
X94176809Y-79698857D02*
X94062523Y-79736952D01*
X94024428Y-79775047D01*
X93986333Y-79851238D01*
X93986333Y-79965523D01*
X94024428Y-80041714D01*
X94062523Y-80079809D01*
X94138714Y-80117904D01*
X94443476Y-80117904D01*
X94443476Y-79317904D01*
X94176809Y-79317904D01*
X94100619Y-79356000D01*
X94062523Y-79394095D01*
X94024428Y-79470285D01*
X94024428Y-79546476D01*
X94062523Y-79622666D01*
X94100619Y-79660761D01*
X94176809Y-79698857D01*
X94443476Y-79698857D01*
X93719666Y-79317904D02*
X93224428Y-79317904D01*
X93491095Y-79622666D01*
X93376809Y-79622666D01*
X93300619Y-79660761D01*
X93262523Y-79698857D01*
X93224428Y-79775047D01*
X93224428Y-79965523D01*
X93262523Y-80041714D01*
X93300619Y-80079809D01*
X93376809Y-80117904D01*
X93605380Y-80117904D01*
X93681571Y-80079809D01*
X93719666Y-80041714D01*
X94176809Y-77158857D02*
X94062523Y-77196952D01*
X94024428Y-77235047D01*
X93986333Y-77311238D01*
X93986333Y-77425523D01*
X94024428Y-77501714D01*
X94062523Y-77539809D01*
X94138714Y-77577904D01*
X94443476Y-77577904D01*
X94443476Y-76777904D01*
X94176809Y-76777904D01*
X94100619Y-76816000D01*
X94062523Y-76854095D01*
X94024428Y-76930285D01*
X94024428Y-77006476D01*
X94062523Y-77082666D01*
X94100619Y-77120761D01*
X94176809Y-77158857D01*
X94443476Y-77158857D01*
X93224428Y-77577904D02*
X93681571Y-77577904D01*
X93453000Y-77577904D02*
X93453000Y-76777904D01*
X93529190Y-76892190D01*
X93605380Y-76968380D01*
X93681571Y-77006476D01*
X94119666Y-66998857D02*
X94386333Y-66998857D01*
X94386333Y-67417904D02*
X94386333Y-66617904D01*
X94005380Y-66617904D01*
X93357761Y-66884571D02*
X93357761Y-67417904D01*
X93548238Y-66579809D02*
X93738714Y-67151238D01*
X93243476Y-67151238D01*
X94919666Y-64077904D02*
X94653000Y-64877904D01*
X94386333Y-64077904D01*
X93662523Y-64801714D02*
X93700619Y-64839809D01*
X93814904Y-64877904D01*
X93891095Y-64877904D01*
X94005380Y-64839809D01*
X94081571Y-64763619D01*
X94119666Y-64687428D01*
X94157761Y-64535047D01*
X94157761Y-64420761D01*
X94119666Y-64268380D01*
X94081571Y-64192190D01*
X94005380Y-64116000D01*
X93891095Y-64077904D01*
X93814904Y-64077904D01*
X93700619Y-64116000D01*
X93662523Y-64154095D01*
X92862523Y-64801714D02*
X92900619Y-64839809D01*
X93014904Y-64877904D01*
X93091095Y-64877904D01*
X93205380Y-64839809D01*
X93281571Y-64763619D01*
X93319666Y-64687428D01*
X93357761Y-64535047D01*
X93357761Y-64420761D01*
X93319666Y-64268380D01*
X93281571Y-64192190D01*
X93205380Y-64116000D01*
X93091095Y-64077904D01*
X93014904Y-64077904D01*
X92900619Y-64116000D01*
X92862523Y-64154095D01*
X94462523Y-59036000D02*
X94538714Y-58997904D01*
X94653000Y-58997904D01*
X94767285Y-59036000D01*
X94843476Y-59112190D01*
X94881571Y-59188380D01*
X94919666Y-59340761D01*
X94919666Y-59455047D01*
X94881571Y-59607428D01*
X94843476Y-59683619D01*
X94767285Y-59759809D01*
X94653000Y-59797904D01*
X94576809Y-59797904D01*
X94462523Y-59759809D01*
X94424428Y-59721714D01*
X94424428Y-59455047D01*
X94576809Y-59455047D01*
X94081571Y-59797904D02*
X94081571Y-58997904D01*
X93624428Y-59797904D01*
X93624428Y-58997904D01*
X93243476Y-59797904D02*
X93243476Y-58997904D01*
X93053000Y-58997904D01*
X92938714Y-59036000D01*
X92862523Y-59112190D01*
X92824428Y-59188380D01*
X92786333Y-59340761D01*
X92786333Y-59455047D01*
X92824428Y-59607428D01*
X92862523Y-59683619D01*
X92938714Y-59759809D01*
X93053000Y-59797904D01*
X93243476Y-59797904D01*
X94176809Y-56838857D02*
X94062523Y-56876952D01*
X94024428Y-56915047D01*
X93986333Y-56991238D01*
X93986333Y-57105523D01*
X94024428Y-57181714D01*
X94062523Y-57219809D01*
X94138714Y-57257904D01*
X94443476Y-57257904D01*
X94443476Y-56457904D01*
X94176809Y-56457904D01*
X94100619Y-56496000D01*
X94062523Y-56534095D01*
X94024428Y-56610285D01*
X94024428Y-56686476D01*
X94062523Y-56762666D01*
X94100619Y-56800761D01*
X94176809Y-56838857D01*
X94443476Y-56838857D01*
X93491095Y-56457904D02*
X93414904Y-56457904D01*
X93338714Y-56496000D01*
X93300619Y-56534095D01*
X93262523Y-56610285D01*
X93224428Y-56762666D01*
X93224428Y-56953142D01*
X93262523Y-57105523D01*
X93300619Y-57181714D01*
X93338714Y-57219809D01*
X93414904Y-57257904D01*
X93491095Y-57257904D01*
X93567285Y-57219809D01*
X93605380Y-57181714D01*
X93643476Y-57105523D01*
X93681571Y-56953142D01*
X93681571Y-56762666D01*
X93643476Y-56610285D01*
X93605380Y-56534095D01*
X93567285Y-56496000D01*
X93491095Y-56457904D01*
X94119666Y-69538857D02*
X94386333Y-69538857D01*
X94386333Y-69957904D02*
X94386333Y-69157904D01*
X94005380Y-69157904D01*
X93319666Y-69157904D02*
X93700619Y-69157904D01*
X93738714Y-69538857D01*
X93700619Y-69500761D01*
X93624428Y-69462666D01*
X93433952Y-69462666D01*
X93357761Y-69500761D01*
X93319666Y-69538857D01*
X93281571Y-69615047D01*
X93281571Y-69805523D01*
X93319666Y-69881714D01*
X93357761Y-69919809D01*
X93433952Y-69957904D01*
X93624428Y-69957904D01*
X93700619Y-69919809D01*
X93738714Y-69881714D01*
X94119666Y-72078857D02*
X94386333Y-72078857D01*
X94386333Y-72497904D02*
X94386333Y-71697904D01*
X94005380Y-71697904D01*
X93357761Y-71697904D02*
X93510142Y-71697904D01*
X93586333Y-71736000D01*
X93624428Y-71774095D01*
X93700619Y-71888380D01*
X93738714Y-72040761D01*
X93738714Y-72345523D01*
X93700619Y-72421714D01*
X93662523Y-72459809D01*
X93586333Y-72497904D01*
X93433952Y-72497904D01*
X93357761Y-72459809D01*
X93319666Y-72421714D01*
X93281571Y-72345523D01*
X93281571Y-72155047D01*
X93319666Y-72078857D01*
X93357761Y-72040761D01*
X93433952Y-72002666D01*
X93586333Y-72002666D01*
X93662523Y-72040761D01*
X93700619Y-72078857D01*
X93738714Y-72155047D01*
X94119666Y-74618857D02*
X94386333Y-74618857D01*
X94386333Y-75037904D02*
X94386333Y-74237904D01*
X94005380Y-74237904D01*
X93776809Y-74237904D02*
X93243476Y-74237904D01*
X93586333Y-75037904D01*
X94176809Y-82238857D02*
X94062523Y-82276952D01*
X94024428Y-82315047D01*
X93986333Y-82391238D01*
X93986333Y-82505523D01*
X94024428Y-82581714D01*
X94062523Y-82619809D01*
X94138714Y-82657904D01*
X94443476Y-82657904D01*
X94443476Y-81857904D01*
X94176809Y-81857904D01*
X94100619Y-81896000D01*
X94062523Y-81934095D01*
X94024428Y-82010285D01*
X94024428Y-82086476D01*
X94062523Y-82162666D01*
X94100619Y-82200761D01*
X94176809Y-82238857D01*
X94443476Y-82238857D01*
X93681571Y-81934095D02*
X93643476Y-81896000D01*
X93567285Y-81857904D01*
X93376809Y-81857904D01*
X93300619Y-81896000D01*
X93262523Y-81934095D01*
X93224428Y-82010285D01*
X93224428Y-82086476D01*
X93262523Y-82200761D01*
X93719666Y-82657904D01*
X93224428Y-82657904D01*
X87010604Y-56457904D02*
X86553461Y-56457904D01*
X86782032Y-57257904D02*
X86782032Y-56457904D01*
X86362985Y-56457904D02*
X85829651Y-57257904D01*
X85829651Y-56457904D02*
X86362985Y-57257904D01*
X85372508Y-56457904D02*
X85296318Y-56457904D01*
X85220128Y-56496000D01*
X85182032Y-56534095D01*
X85143937Y-56610285D01*
X85105842Y-56762666D01*
X85105842Y-56953142D01*
X85143937Y-57105523D01*
X85182032Y-57181714D01*
X85220128Y-57219809D01*
X85296318Y-57257904D01*
X85372508Y-57257904D01*
X85448699Y-57219809D01*
X85486794Y-57181714D01*
X85524889Y-57105523D01*
X85562985Y-56953142D01*
X85562985Y-56762666D01*
X85524889Y-56610285D01*
X85486794Y-56534095D01*
X85448699Y-56496000D01*
X85372508Y-56457904D01*
X84191556Y-56419809D02*
X84877270Y-57448380D01*
X83924889Y-57257904D02*
X83924889Y-56457904D01*
X83734413Y-56457904D01*
X83620128Y-56496000D01*
X83543937Y-56572190D01*
X83505842Y-56648380D01*
X83467747Y-56800761D01*
X83467747Y-56915047D01*
X83505842Y-57067428D01*
X83543937Y-57143619D01*
X83620128Y-57219809D01*
X83734413Y-57257904D01*
X83924889Y-57257904D01*
X83201080Y-56457904D02*
X82705842Y-56457904D01*
X82972508Y-56762666D01*
X82858223Y-56762666D01*
X82782032Y-56800761D01*
X82743937Y-56838857D01*
X82705842Y-56915047D01*
X82705842Y-57105523D01*
X82743937Y-57181714D01*
X82782032Y-57219809D01*
X82858223Y-57257904D01*
X83086794Y-57257904D01*
X83162985Y-57219809D01*
X83201080Y-57181714D01*
X93965333Y-62279809D02*
X93851047Y-62317904D01*
X93660571Y-62317904D01*
X93584380Y-62279809D01*
X93546285Y-62241714D01*
X93508190Y-62165523D01*
X93508190Y-62089333D01*
X93546285Y-62013142D01*
X93584380Y-61975047D01*
X93660571Y-61936952D01*
X93812952Y-61898857D01*
X93889142Y-61860761D01*
X93927238Y-61822666D01*
X93965333Y-61746476D01*
X93965333Y-61670285D01*
X93927238Y-61594095D01*
X93889142Y-61556000D01*
X93812952Y-61517904D01*
X93622476Y-61517904D01*
X93508190Y-61556000D01*
X93279619Y-61517904D02*
X92822476Y-61517904D01*
X93051047Y-62317904D02*
X93051047Y-61517904D01*
X84175333Y-83416000D02*
X84075333Y-83449333D01*
X84042000Y-83482666D01*
X84008666Y-83549333D01*
X84008666Y-83649333D01*
X84042000Y-83716000D01*
X84075333Y-83749333D01*
X84142000Y-83782666D01*
X84408666Y-83782666D01*
X84408666Y-83082666D01*
X84175333Y-83082666D01*
X84108666Y-83116000D01*
X84075333Y-83149333D01*
X84042000Y-83216000D01*
X84042000Y-83282666D01*
X84075333Y-83349333D01*
X84108666Y-83382666D01*
X84175333Y-83416000D01*
X84408666Y-83416000D01*
X83775333Y-83082666D02*
X83308666Y-83082666D01*
X83608666Y-83782666D01*
X93125333Y-83416000D02*
X93358666Y-83416000D01*
X93358666Y-83782666D02*
X93358666Y-83082666D01*
X93025333Y-83082666D01*
X92625333Y-83082666D02*
X92558666Y-83082666D01*
X92492000Y-83116000D01*
X92458666Y-83149333D01*
X92425333Y-83216000D01*
X92392000Y-83349333D01*
X92392000Y-83516000D01*
X92425333Y-83649333D01*
X92458666Y-83716000D01*
X92492000Y-83749333D01*
X92558666Y-83782666D01*
X92625333Y-83782666D01*
X92692000Y-83749333D01*
X92725333Y-83716000D01*
X92758666Y-83649333D01*
X92792000Y-83516000D01*
X92792000Y-83349333D01*
X92758666Y-83216000D01*
X92725333Y-83149333D01*
X92692000Y-83116000D01*
X92625333Y-83082666D01*
X94956991Y-83330297D02*
X94909851Y-83424578D01*
X94909851Y-83471719D01*
X94933421Y-83542429D01*
X95004132Y-83613140D01*
X95074842Y-83636710D01*
X95121983Y-83636710D01*
X95192693Y-83613140D01*
X95381255Y-83424578D01*
X94886280Y-82929603D01*
X94721289Y-83094595D01*
X94697719Y-83165306D01*
X94697719Y-83212446D01*
X94721289Y-83283157D01*
X94768429Y-83330297D01*
X94839140Y-83353867D01*
X94886280Y-83353867D01*
X94956991Y-83330297D01*
X95121983Y-83165306D01*
X94179174Y-83636710D02*
X94273455Y-83542429D01*
X94344165Y-83518859D01*
X94391306Y-83518859D01*
X94509157Y-83542429D01*
X94627008Y-83613140D01*
X94815570Y-83801702D01*
X94839140Y-83872412D01*
X94839140Y-83919553D01*
X94815570Y-83990264D01*
X94721289Y-84084544D01*
X94650578Y-84108115D01*
X94603438Y-84108115D01*
X94532727Y-84084544D01*
X94414876Y-83966693D01*
X94391306Y-83895983D01*
X94391306Y-83848842D01*
X94414876Y-83778132D01*
X94509157Y-83683851D01*
X94579867Y-83660280D01*
X94627008Y-83660280D01*
X94697719Y-83683851D01*
X88525333Y-83551714D02*
X88563428Y-83589809D01*
X88677714Y-83627904D01*
X88753904Y-83627904D01*
X88868190Y-83589809D01*
X88944380Y-83513619D01*
X88982476Y-83437428D01*
X89020571Y-83285047D01*
X89020571Y-83170761D01*
X88982476Y-83018380D01*
X88944380Y-82942190D01*
X88868190Y-82866000D01*
X88753904Y-82827904D01*
X88677714Y-82827904D01*
X88563428Y-82866000D01*
X88525333Y-82904095D01*
X88258666Y-82827904D02*
X87725333Y-82827904D01*
X88068190Y-83627904D01*
X91198666Y-83208857D02*
X91465333Y-83208857D01*
X91465333Y-83627904D02*
X91465333Y-82827904D01*
X91084380Y-82827904D01*
X90360571Y-83627904D02*
X90817714Y-83627904D01*
X90589142Y-83627904D02*
X90589142Y-82827904D01*
X90665333Y-82942190D01*
X90741523Y-83018380D01*
X90817714Y-83056476D01*
X86442476Y-83627904D02*
X86442476Y-82827904D01*
X86252000Y-82827904D01*
X86137714Y-82866000D01*
X86061523Y-82942190D01*
X86023428Y-83018380D01*
X85985333Y-83170761D01*
X85985333Y-83285047D01*
X86023428Y-83437428D01*
X86061523Y-83513619D01*
X86137714Y-83589809D01*
X86252000Y-83627904D01*
X86442476Y-83627904D01*
X85261523Y-82827904D02*
X85642476Y-82827904D01*
X85680571Y-83208857D01*
X85642476Y-83170761D01*
X85566285Y-83132666D01*
X85375809Y-83132666D01*
X85299619Y-83170761D01*
X85261523Y-83208857D01*
X85223428Y-83285047D01*
X85223428Y-83475523D01*
X85261523Y-83551714D01*
X85299619Y-83589809D01*
X85375809Y-83627904D01*
X85566285Y-83627904D01*
X85642476Y-83589809D01*
X85680571Y-83551714D01*
X115482666Y-131388380D02*
X115816000Y-130912190D01*
X116054095Y-131388380D02*
X116054095Y-130388380D01*
X115673142Y-130388380D01*
X115577904Y-130436000D01*
X115530285Y-130483619D01*
X115482666Y-130578857D01*
X115482666Y-130721714D01*
X115530285Y-130816952D01*
X115577904Y-130864571D01*
X115673142Y-130912190D01*
X116054095Y-130912190D01*
X115149333Y-130388380D02*
X114482666Y-130388380D01*
X114911238Y-131388380D01*
D12*
X135040666Y-112338380D02*
X135374000Y-111862190D01*
X135612095Y-112338380D02*
X135612095Y-111338380D01*
X135231142Y-111338380D01*
X135135904Y-111386000D01*
X135088285Y-111433619D01*
X135040666Y-111528857D01*
X135040666Y-111671714D01*
X135088285Y-111766952D01*
X135135904Y-111814571D01*
X135231142Y-111862190D01*
X135612095Y-111862190D01*
X134183523Y-111338380D02*
X134374000Y-111338380D01*
X134469238Y-111386000D01*
X134516857Y-111433619D01*
X134612095Y-111576476D01*
X134659714Y-111766952D01*
X134659714Y-112147904D01*
X134612095Y-112243142D01*
X134564476Y-112290761D01*
X134469238Y-112338380D01*
X134278761Y-112338380D01*
X134183523Y-112290761D01*
X134135904Y-112243142D01*
X134088285Y-112147904D01*
X134088285Y-111909809D01*
X134135904Y-111814571D01*
X134183523Y-111766952D01*
X134278761Y-111719333D01*
X134469238Y-111719333D01*
X134564476Y-111766952D01*
X134612095Y-111814571D01*
X134659714Y-111909809D01*
D15*
X126150666Y-147138380D02*
X126484000Y-146662190D01*
X126722095Y-147138380D02*
X126722095Y-146138380D01*
X126341142Y-146138380D01*
X126245904Y-146186000D01*
X126198285Y-146233619D01*
X126150666Y-146328857D01*
X126150666Y-146471714D01*
X126198285Y-146566952D01*
X126245904Y-146614571D01*
X126341142Y-146662190D01*
X126722095Y-146662190D01*
X125245904Y-146138380D02*
X125722095Y-146138380D01*
X125769714Y-146614571D01*
X125722095Y-146566952D01*
X125626857Y-146519333D01*
X125388761Y-146519333D01*
X125293523Y-146566952D01*
X125245904Y-146614571D01*
X125198285Y-146709809D01*
X125198285Y-146947904D01*
X125245904Y-147043142D01*
X125293523Y-147090761D01*
X125388761Y-147138380D01*
X125626857Y-147138380D01*
X125722095Y-147090761D01*
X125769714Y-147043142D01*
D12*
X154090666Y-109038380D02*
X154424000Y-108562190D01*
X154662095Y-109038380D02*
X154662095Y-108038380D01*
X154281142Y-108038380D01*
X154185904Y-108086000D01*
X154138285Y-108133619D01*
X154090666Y-108228857D01*
X154090666Y-108371714D01*
X154138285Y-108466952D01*
X154185904Y-108514571D01*
X154281142Y-108562190D01*
X154662095Y-108562190D01*
X153233523Y-108371714D02*
X153233523Y-109038380D01*
X153471619Y-107990761D02*
X153709714Y-108705047D01*
X153090666Y-108705047D01*
D14*
X154090666Y-93288380D02*
X154424000Y-92812190D01*
X154662095Y-93288380D02*
X154662095Y-92288380D01*
X154281142Y-92288380D01*
X154185904Y-92336000D01*
X154138285Y-92383619D01*
X154090666Y-92478857D01*
X154090666Y-92621714D01*
X154138285Y-92716952D01*
X154185904Y-92764571D01*
X154281142Y-92812190D01*
X154662095Y-92812190D01*
X153757333Y-92288380D02*
X153138285Y-92288380D01*
X153471619Y-92669333D01*
X153328761Y-92669333D01*
X153233523Y-92716952D01*
X153185904Y-92764571D01*
X153138285Y-92859809D01*
X153138285Y-93097904D01*
X153185904Y-93193142D01*
X153233523Y-93240761D01*
X153328761Y-93288380D01*
X153614476Y-93288380D01*
X153709714Y-93240761D01*
X153757333Y-93193142D01*
X135040666Y-89988380D02*
X135374000Y-89512190D01*
X135612095Y-89988380D02*
X135612095Y-88988380D01*
X135231142Y-88988380D01*
X135135904Y-89036000D01*
X135088285Y-89083619D01*
X135040666Y-89178857D01*
X135040666Y-89321714D01*
X135088285Y-89416952D01*
X135135904Y-89464571D01*
X135231142Y-89512190D01*
X135612095Y-89512190D01*
X134659714Y-89083619D02*
X134612095Y-89036000D01*
X134516857Y-88988380D01*
X134278761Y-88988380D01*
X134183523Y-89036000D01*
X134135904Y-89083619D01*
X134088285Y-89178857D01*
X134088285Y-89274095D01*
X134135904Y-89416952D01*
X134707333Y-89988380D01*
X134088285Y-89988380D01*
X116244666Y-89988380D02*
X116578000Y-89512190D01*
X116816095Y-89988380D02*
X116816095Y-88988380D01*
X116435142Y-88988380D01*
X116339904Y-89036000D01*
X116292285Y-89083619D01*
X116244666Y-89178857D01*
X116244666Y-89321714D01*
X116292285Y-89416952D01*
X116339904Y-89464571D01*
X116435142Y-89512190D01*
X116816095Y-89512190D01*
X115292285Y-89988380D02*
X115863714Y-89988380D01*
X115578000Y-89988380D02*
X115578000Y-88988380D01*
X115673238Y-89131238D01*
X115768476Y-89226476D01*
X115863714Y-89274095D01*
%LPC*%
D16*
X80137000Y-102616000D03*
X80137000Y-107696000D03*
X94615000Y-102616000D03*
D17*
X87630000Y-98552000D03*
X87630000Y-111760000D03*
D16*
X94615000Y-107696000D03*
X80137000Y-105156000D03*
G36*
G01*
X124656002Y-64116000D02*
X123755998Y-64116000D01*
G75*
G02*
X123506000Y-63866002I0J249998D01*
G01*
X123506000Y-63340998D01*
G75*
G02*
X123755998Y-63091000I249998J0D01*
G01*
X124656002Y-63091000D01*
G75*
G02*
X124906000Y-63340998I0J-249998D01*
G01*
X124906000Y-63866002D01*
G75*
G02*
X124656002Y-64116000I-249998J0D01*
G01*
G37*
G36*
G01*
X124656002Y-65941000D02*
X123755998Y-65941000D01*
G75*
G02*
X123506000Y-65691002I0J249998D01*
G01*
X123506000Y-65165998D01*
G75*
G02*
X123755998Y-64916000I249998J0D01*
G01*
X124656002Y-64916000D01*
G75*
G02*
X124906000Y-65165998I0J-249998D01*
G01*
X124906000Y-65691002D01*
G75*
G02*
X124656002Y-65941000I-249998J0D01*
G01*
G37*
G36*
G01*
X121608002Y-64116000D02*
X120707998Y-64116000D01*
G75*
G02*
X120458000Y-63866002I0J249998D01*
G01*
X120458000Y-63340998D01*
G75*
G02*
X120707998Y-63091000I249998J0D01*
G01*
X121608002Y-63091000D01*
G75*
G02*
X121858000Y-63340998I0J-249998D01*
G01*
X121858000Y-63866002D01*
G75*
G02*
X121608002Y-64116000I-249998J0D01*
G01*
G37*
G36*
G01*
X121608002Y-65941000D02*
X120707998Y-65941000D01*
G75*
G02*
X120458000Y-65691002I0J249998D01*
G01*
X120458000Y-65165998D01*
G75*
G02*
X120707998Y-64916000I249998J0D01*
G01*
X121608002Y-64916000D01*
G75*
G02*
X121858000Y-65165998I0J-249998D01*
G01*
X121858000Y-65691002D01*
G75*
G02*
X121608002Y-65941000I-249998J0D01*
G01*
G37*
D18*
X84836000Y-93726000D03*
D19*
X157988000Y-83629500D03*
X157988000Y-107505500D03*
D20*
X173228000Y-107505500D03*
X173228000Y-83629500D03*
D21*
X166243000Y-95567500D03*
D22*
X166243000Y-100647500D03*
X166243000Y-90487500D03*
D23*
X171323000Y-96837500D03*
X171323000Y-94297500D03*
D24*
X163703000Y-99377500D03*
X161163000Y-93027500D03*
D19*
X157988000Y-121729500D03*
X157988000Y-145605500D03*
D20*
X173228000Y-145605500D03*
X173228000Y-121729500D03*
D21*
X166243000Y-133667500D03*
D22*
X166243000Y-138747500D03*
X166243000Y-128587500D03*
D23*
X171323000Y-134937500D03*
X171323000Y-132397500D03*
D24*
X163703000Y-137477500D03*
X161163000Y-131127500D03*
D19*
X106680000Y-134937500D03*
X130556000Y-134937500D03*
D20*
X130556000Y-150177500D03*
X106680000Y-150177500D03*
D24*
X121158000Y-138112500D03*
X114808000Y-140652500D03*
D23*
X119888000Y-148272500D03*
X117348000Y-148272500D03*
D22*
X123698000Y-143192500D03*
X113538000Y-143192500D03*
D21*
X118618000Y-143192500D03*
D25*
X98552000Y-116966000D03*
X98552000Y-113666000D03*
X98552000Y-97916000D03*
X98552000Y-94616000D03*
X155702000Y-136016000D03*
X155702000Y-132716000D03*
X162306000Y-77342000D03*
X162306000Y-74042000D03*
X143256000Y-136016000D03*
X143256000Y-132716000D03*
X111506000Y-136016000D03*
X111506000Y-132716000D03*
X143256000Y-116966000D03*
X143256000Y-113666000D03*
X124206000Y-116966000D03*
X124206000Y-113666000D03*
X105156000Y-116966000D03*
X105156000Y-113666000D03*
X143256000Y-97916000D03*
X143256000Y-94616000D03*
X124206000Y-97916000D03*
X124206000Y-94616000D03*
X105156000Y-97916000D03*
X105156000Y-94616000D03*
X143256000Y-77342000D03*
X143256000Y-74042000D03*
X124206000Y-77342000D03*
X124206000Y-74042000D03*
X105156000Y-77342000D03*
X105156000Y-74042000D03*
D26*
X118618000Y-114554000D03*
D27*
X83312000Y-84836000D03*
X85852000Y-84836000D03*
X88392000Y-84836000D03*
X90932000Y-84836000D03*
X93472000Y-84836000D03*
X96012000Y-56896000D03*
X81000600Y-84836000D03*
X96012000Y-59436000D03*
X96012000Y-61976000D03*
X96012000Y-64516000D03*
X96012000Y-67056000D03*
X96012000Y-69596000D03*
X96012000Y-72136000D03*
X96012000Y-74676000D03*
X96012000Y-77216000D03*
X96012000Y-79756000D03*
X96012000Y-82296000D03*
X96012000Y-84836000D03*
X80772000Y-82296000D03*
X80772000Y-79756000D03*
X80772000Y-77216000D03*
X80772000Y-74676000D03*
X80772000Y-72136000D03*
X80772000Y-69596000D03*
X80772000Y-67056000D03*
X80772000Y-64516000D03*
X80772000Y-61976000D03*
X80772000Y-59436000D03*
D28*
X80772000Y-56896000D03*
D26*
X118618000Y-75692000D03*
X121920000Y-56388000D03*
X172466000Y-58166000D03*
X81280000Y-147828000D03*
D18*
X172466000Y-114554000D03*
G36*
G01*
X115716000Y-129736001D02*
X115716000Y-128835999D01*
G75*
G02*
X115965999Y-128586000I249999J0D01*
G01*
X116666001Y-128586000D01*
G75*
G02*
X116916000Y-128835999I0J-249999D01*
G01*
X116916000Y-129736001D01*
G75*
G02*
X116666001Y-129986000I-249999J0D01*
G01*
X115965999Y-129986000D01*
G75*
G02*
X115716000Y-129736001I0J249999D01*
G01*
G37*
G36*
G01*
X113716000Y-129736001D02*
X113716000Y-128835999D01*
G75*
G02*
X113965999Y-128586000I249999J0D01*
G01*
X114666001Y-128586000D01*
G75*
G02*
X114916000Y-128835999I0J-249999D01*
G01*
X114916000Y-129736001D01*
G75*
G02*
X114666001Y-129986000I-249999J0D01*
G01*
X113965999Y-129986000D01*
G75*
G02*
X113716000Y-129736001I0J249999D01*
G01*
G37*
D24*
X111633000Y-100012500D03*
X105283000Y-102552500D03*
D23*
X110363000Y-110172500D03*
X107823000Y-110172500D03*
D22*
X114173000Y-105092500D03*
X104013000Y-105092500D03*
D21*
X109093000Y-105092500D03*
G36*
G01*
X135274000Y-110686001D02*
X135274000Y-109785999D01*
G75*
G02*
X135523999Y-109536000I249999J0D01*
G01*
X136224001Y-109536000D01*
G75*
G02*
X136474000Y-109785999I0J-249999D01*
G01*
X136474000Y-110686001D01*
G75*
G02*
X136224001Y-110936000I-249999J0D01*
G01*
X135523999Y-110936000D01*
G75*
G02*
X135274000Y-110686001I0J249999D01*
G01*
G37*
G36*
G01*
X133274000Y-110686001D02*
X133274000Y-109785999D01*
G75*
G02*
X133523999Y-109536000I249999J0D01*
G01*
X134224001Y-109536000D01*
G75*
G02*
X134474000Y-109785999I0J-249999D01*
G01*
X134474000Y-110686001D01*
G75*
G02*
X134224001Y-110936000I-249999J0D01*
G01*
X133523999Y-110936000D01*
G75*
G02*
X133274000Y-110686001I0J249999D01*
G01*
G37*
G36*
G01*
X125584000Y-147885999D02*
X125584000Y-148786001D01*
G75*
G02*
X125334001Y-149036000I-249999J0D01*
G01*
X124633999Y-149036000D01*
G75*
G02*
X124384000Y-148786001I0J249999D01*
G01*
X124384000Y-147885999D01*
G75*
G02*
X124633999Y-147636000I249999J0D01*
G01*
X125334001Y-147636000D01*
G75*
G02*
X125584000Y-147885999I0J-249999D01*
G01*
G37*
G36*
G01*
X127584000Y-147885999D02*
X127584000Y-148786001D01*
G75*
G02*
X127334001Y-149036000I-249999J0D01*
G01*
X126633999Y-149036000D01*
G75*
G02*
X126384000Y-148786001I0J249999D01*
G01*
X126384000Y-147885999D01*
G75*
G02*
X126633999Y-147636000I249999J0D01*
G01*
X127334001Y-147636000D01*
G75*
G02*
X127584000Y-147885999I0J-249999D01*
G01*
G37*
G36*
G01*
X153524000Y-109785999D02*
X153524000Y-110686001D01*
G75*
G02*
X153274001Y-110936000I-249999J0D01*
G01*
X152573999Y-110936000D01*
G75*
G02*
X152324000Y-110686001I0J249999D01*
G01*
X152324000Y-109785999D01*
G75*
G02*
X152573999Y-109536000I249999J0D01*
G01*
X153274001Y-109536000D01*
G75*
G02*
X153524000Y-109785999I0J-249999D01*
G01*
G37*
G36*
G01*
X155524000Y-109785999D02*
X155524000Y-110686001D01*
G75*
G02*
X155274001Y-110936000I-249999J0D01*
G01*
X154573999Y-110936000D01*
G75*
G02*
X154324000Y-110686001I0J249999D01*
G01*
X154324000Y-109785999D01*
G75*
G02*
X154573999Y-109536000I249999J0D01*
G01*
X155274001Y-109536000D01*
G75*
G02*
X155524000Y-109785999I0J-249999D01*
G01*
G37*
G36*
G01*
X154324000Y-91636001D02*
X154324000Y-90735999D01*
G75*
G02*
X154573999Y-90486000I249999J0D01*
G01*
X155274001Y-90486000D01*
G75*
G02*
X155524000Y-90735999I0J-249999D01*
G01*
X155524000Y-91636001D01*
G75*
G02*
X155274001Y-91886000I-249999J0D01*
G01*
X154573999Y-91886000D01*
G75*
G02*
X154324000Y-91636001I0J249999D01*
G01*
G37*
G36*
G01*
X152324000Y-91636001D02*
X152324000Y-90735999D01*
G75*
G02*
X152573999Y-90486000I249999J0D01*
G01*
X153274001Y-90486000D01*
G75*
G02*
X153524000Y-90735999I0J-249999D01*
G01*
X153524000Y-91636001D01*
G75*
G02*
X153274001Y-91886000I-249999J0D01*
G01*
X152573999Y-91886000D01*
G75*
G02*
X152324000Y-91636001I0J249999D01*
G01*
G37*
G36*
G01*
X134474000Y-90735999D02*
X134474000Y-91636001D01*
G75*
G02*
X134224001Y-91886000I-249999J0D01*
G01*
X133523999Y-91886000D01*
G75*
G02*
X133274000Y-91636001I0J249999D01*
G01*
X133274000Y-90735999D01*
G75*
G02*
X133523999Y-90486000I249999J0D01*
G01*
X134224001Y-90486000D01*
G75*
G02*
X134474000Y-90735999I0J-249999D01*
G01*
G37*
G36*
G01*
X136474000Y-90735999D02*
X136474000Y-91636001D01*
G75*
G02*
X136224001Y-91886000I-249999J0D01*
G01*
X135523999Y-91886000D01*
G75*
G02*
X135274000Y-91636001I0J249999D01*
G01*
X135274000Y-90735999D01*
G75*
G02*
X135523999Y-90486000I249999J0D01*
G01*
X136224001Y-90486000D01*
G75*
G02*
X136474000Y-90735999I0J-249999D01*
G01*
G37*
G36*
G01*
X115678000Y-90735999D02*
X115678000Y-91636001D01*
G75*
G02*
X115428001Y-91886000I-249999J0D01*
G01*
X114727999Y-91886000D01*
G75*
G02*
X114478000Y-91636001I0J249999D01*
G01*
X114478000Y-90735999D01*
G75*
G02*
X114727999Y-90486000I249999J0D01*
G01*
X115428001Y-90486000D01*
G75*
G02*
X115678000Y-90735999I0J-249999D01*
G01*
G37*
G36*
G01*
X117678000Y-90735999D02*
X117678000Y-91636001D01*
G75*
G02*
X117428001Y-91886000I-249999J0D01*
G01*
X116727999Y-91886000D01*
G75*
G02*
X116478000Y-91636001I0J249999D01*
G01*
X116478000Y-90735999D01*
G75*
G02*
X116727999Y-90486000I249999J0D01*
G01*
X117428001Y-90486000D01*
G75*
G02*
X117678000Y-90735999I0J-249999D01*
G01*
G37*
D29*
X103228000Y-60452000D03*
X103228000Y-55952000D03*
X109728000Y-60452000D03*
X109728000Y-55952000D03*
D30*
X116840000Y-68072000D03*
X116840000Y-65532000D03*
X116840000Y-62992000D03*
X116840000Y-60452000D03*
D24*
X149733000Y-138112500D03*
X143383000Y-140652500D03*
D23*
X148463000Y-148272500D03*
X145923000Y-148272500D03*
D22*
X152273000Y-143192500D03*
X142113000Y-143192500D03*
D21*
X147193000Y-143192500D03*
D24*
X130683000Y-80962500D03*
X124333000Y-83502500D03*
D23*
X129413000Y-91122500D03*
X126873000Y-91122500D03*
D22*
X133223000Y-86042500D03*
X123063000Y-86042500D03*
D21*
X128143000Y-86042500D03*
D16*
X80251300Y-122428000D03*
X80251300Y-127508000D03*
X94729300Y-122428000D03*
D17*
X87744300Y-118364000D03*
X87744300Y-131572000D03*
D16*
X94729300Y-127508000D03*
X80251300Y-124968000D03*
D24*
X149733000Y-80962500D03*
X143383000Y-83502500D03*
D23*
X148463000Y-91122500D03*
X145923000Y-91122500D03*
D22*
X152273000Y-86042500D03*
X142113000Y-86042500D03*
D21*
X147193000Y-86042500D03*
D24*
X130683000Y-100012500D03*
X124333000Y-102552500D03*
D23*
X129413000Y-110172500D03*
X126873000Y-110172500D03*
D22*
X133223000Y-105092500D03*
X123063000Y-105092500D03*
D21*
X128143000Y-105092500D03*
D24*
X149733000Y-100012500D03*
X143383000Y-102552500D03*
D23*
X148463000Y-110172500D03*
X145923000Y-110172500D03*
D22*
X152273000Y-105092500D03*
X142113000Y-105092500D03*
D21*
X147193000Y-105092500D03*
D24*
X111633000Y-119062500D03*
X105283000Y-121602500D03*
D23*
X110363000Y-129222500D03*
X107823000Y-129222500D03*
D22*
X114173000Y-124142500D03*
X104013000Y-124142500D03*
D21*
X109093000Y-124142500D03*
D24*
X130683000Y-119062500D03*
X124333000Y-121602500D03*
D23*
X129413000Y-129222500D03*
X126873000Y-129222500D03*
D22*
X133223000Y-124142500D03*
X123063000Y-124142500D03*
D21*
X128143000Y-124142500D03*
D24*
X149733000Y-119062500D03*
X143383000Y-121602500D03*
D23*
X148463000Y-129222500D03*
X145923000Y-129222500D03*
D22*
X152273000Y-124142500D03*
X142113000Y-124142500D03*
D21*
X147193000Y-124142500D03*
D24*
X111633000Y-80962500D03*
X105283000Y-83502500D03*
D23*
X110363000Y-91122500D03*
X107823000Y-91122500D03*
D22*
X114173000Y-86042500D03*
X104013000Y-86042500D03*
D21*
X109093000Y-86042500D03*
M02*
