%FSLAX45Y45*%
G04 Gerber Fmt 4.5, Leading zero omitted, Abs format (unit mm)*
G04 Created by KiCad (PCBNEW (5.1.9)-1) date 2021-06-17 16:54:11*
%MOMM*%
%LPD*%
G01*
G04 APERTURE LIST*
%TA.AperFunction,Profile*%
%ADD10C,0.150000*%
%TD*%
%ADD11C,0.200000*%
%ADD12C,0.300000*%
G04 APERTURE END LIST*
D10*
X17551400Y-5283200D02*
X7665720Y-5283200D01*
X17602200Y-15240000D02*
X17602200Y-5334000D01*
X17551400Y-15290800D02*
X7665720Y-15290800D01*
X7665720Y-15290800D02*
G75*
G02*
X7614920Y-15240000I0J50800D01*
G01*
X7614920Y-5334000D02*
X7614920Y-15240000D01*
X7614920Y-5334000D02*
G75*
G02*
X7665720Y-5283200I50800J0D01*
G01*
X17551400Y-5283200D02*
G75*
G02*
X17602200Y-5334000I0J-50800D01*
G01*
X17602200Y-15240000D02*
G75*
G02*
X17551400Y-15290800I-50800J0D01*
G01*
D11*
X7968000Y-14622800D02*
X8288000Y-14942800D01*
X8288000Y-14622800D02*
X7968000Y-14942800D01*
X8323600Y-9212600D02*
X8643600Y-9532600D01*
X8643600Y-9212600D02*
X8323600Y-9532600D01*
X11701800Y-7409200D02*
X12021800Y-7729200D01*
X12021800Y-7409200D02*
X11701800Y-7729200D01*
X11701800Y-11295400D02*
X12021800Y-11615400D01*
X12021800Y-11295400D02*
X11701800Y-11615400D01*
X12032000Y-5478800D02*
X12352000Y-5798800D01*
X12352000Y-5478800D02*
X12032000Y-5798800D01*
X17086600Y-5656600D02*
X17406600Y-5976600D01*
X17406600Y-5656600D02*
X17086600Y-5976600D01*
X17086600Y-11295400D02*
X17406600Y-11615400D01*
X17406600Y-11295400D02*
X17086600Y-11615400D01*
X9413200Y-7112000D02*
G75*
G03*
X9413200Y-7112000I-320000J0D01*
G01*
X16423600Y-7112000D02*
G75*
G03*
X16423600Y-7112000I-320000J0D01*
G01*
D12*
X7893848Y-15764014D02*
X7893848Y-15464014D01*
X7965277Y-15464014D01*
X8008134Y-15478300D01*
X8036706Y-15506871D01*
X8050991Y-15535443D01*
X8065277Y-15592586D01*
X8065277Y-15635443D01*
X8050991Y-15692586D01*
X8036706Y-15721157D01*
X8008134Y-15749729D01*
X7965277Y-15764014D01*
X7893848Y-15764014D01*
X8193848Y-15764014D02*
X8193848Y-15564014D01*
X8193848Y-15621157D02*
X8208134Y-15592586D01*
X8222420Y-15578300D01*
X8250991Y-15564014D01*
X8279563Y-15564014D01*
X8379563Y-15764014D02*
X8379563Y-15564014D01*
X8379563Y-15464014D02*
X8365277Y-15478300D01*
X8379563Y-15492586D01*
X8393848Y-15478300D01*
X8379563Y-15464014D01*
X8379563Y-15492586D01*
X8565277Y-15764014D02*
X8536706Y-15749729D01*
X8522420Y-15721157D01*
X8522420Y-15464014D01*
X8722420Y-15764014D02*
X8693848Y-15749729D01*
X8679563Y-15721157D01*
X8679563Y-15464014D01*
X9065277Y-15764014D02*
X9065277Y-15464014D01*
X9165277Y-15678300D01*
X9265277Y-15464014D01*
X9265277Y-15764014D01*
X9536706Y-15764014D02*
X9536706Y-15606871D01*
X9522420Y-15578300D01*
X9493848Y-15564014D01*
X9436706Y-15564014D01*
X9408134Y-15578300D01*
X9536706Y-15749729D02*
X9508134Y-15764014D01*
X9436706Y-15764014D01*
X9408134Y-15749729D01*
X9393848Y-15721157D01*
X9393848Y-15692586D01*
X9408134Y-15664014D01*
X9436706Y-15649729D01*
X9508134Y-15649729D01*
X9536706Y-15635443D01*
X9679563Y-15564014D02*
X9679563Y-15864014D01*
X9679563Y-15578300D02*
X9708134Y-15564014D01*
X9765277Y-15564014D01*
X9793848Y-15578300D01*
X9808134Y-15592586D01*
X9822420Y-15621157D01*
X9822420Y-15706871D01*
X9808134Y-15735443D01*
X9793848Y-15749729D01*
X9765277Y-15764014D01*
X9708134Y-15764014D01*
X9679563Y-15749729D01*
X9950991Y-15735443D02*
X9965277Y-15749729D01*
X9950991Y-15764014D01*
X9936706Y-15749729D01*
X9950991Y-15735443D01*
X9950991Y-15764014D01*
X9950991Y-15578300D02*
X9965277Y-15592586D01*
X9950991Y-15606871D01*
X9936706Y-15592586D01*
X9950991Y-15578300D01*
X9950991Y-15606871D01*
X7287420Y-16098300D02*
X7607420Y-16418300D01*
X7607420Y-16098300D02*
X7287420Y-16418300D01*
X7865277Y-16094014D02*
X8050991Y-16094014D01*
X7950991Y-16208300D01*
X7993848Y-16208300D01*
X8022420Y-16222586D01*
X8036706Y-16236871D01*
X8050991Y-16265443D01*
X8050991Y-16336871D01*
X8036706Y-16365443D01*
X8022420Y-16379729D01*
X7993848Y-16394014D01*
X7908134Y-16394014D01*
X7879563Y-16379729D01*
X7865277Y-16365443D01*
X8179563Y-16365443D02*
X8193848Y-16379729D01*
X8179563Y-16394014D01*
X8165277Y-16379729D01*
X8179563Y-16365443D01*
X8179563Y-16394014D01*
X8308134Y-16122586D02*
X8322420Y-16108300D01*
X8350991Y-16094014D01*
X8422420Y-16094014D01*
X8450991Y-16108300D01*
X8465277Y-16122586D01*
X8479563Y-16151157D01*
X8479563Y-16179729D01*
X8465277Y-16222586D01*
X8293848Y-16394014D01*
X8479563Y-16394014D01*
X8665277Y-16094014D02*
X8693848Y-16094014D01*
X8722420Y-16108300D01*
X8736706Y-16122586D01*
X8750991Y-16151157D01*
X8765277Y-16208300D01*
X8765277Y-16279729D01*
X8750991Y-16336871D01*
X8736706Y-16365443D01*
X8722420Y-16379729D01*
X8693848Y-16394014D01*
X8665277Y-16394014D01*
X8636706Y-16379729D01*
X8622420Y-16365443D01*
X8608134Y-16336871D01*
X8593848Y-16279729D01*
X8593848Y-16208300D01*
X8608134Y-16151157D01*
X8622420Y-16122586D01*
X8636706Y-16108300D01*
X8665277Y-16094014D01*
X8893848Y-16394014D02*
X8893848Y-16194014D01*
X8893848Y-16222586D02*
X8908134Y-16208300D01*
X8936706Y-16194014D01*
X8979563Y-16194014D01*
X9008134Y-16208300D01*
X9022420Y-16236871D01*
X9022420Y-16394014D01*
X9022420Y-16236871D02*
X9036706Y-16208300D01*
X9065277Y-16194014D01*
X9108134Y-16194014D01*
X9136706Y-16208300D01*
X9150991Y-16236871D01*
X9150991Y-16394014D01*
X9293848Y-16394014D02*
X9293848Y-16194014D01*
X9293848Y-16222586D02*
X9308134Y-16208300D01*
X9336706Y-16194014D01*
X9379563Y-16194014D01*
X9408134Y-16208300D01*
X9422420Y-16236871D01*
X9422420Y-16394014D01*
X9422420Y-16236871D02*
X9436706Y-16208300D01*
X9465277Y-16194014D01*
X9508134Y-16194014D01*
X9536706Y-16208300D01*
X9550991Y-16236871D01*
X9550991Y-16394014D01*
X10136706Y-16079729D02*
X9879563Y-16465443D01*
X10522420Y-16094014D02*
X10550991Y-16094014D01*
X10579563Y-16108300D01*
X10593848Y-16122586D01*
X10608134Y-16151157D01*
X10622420Y-16208300D01*
X10622420Y-16279729D01*
X10608134Y-16336871D01*
X10593848Y-16365443D01*
X10579563Y-16379729D01*
X10550991Y-16394014D01*
X10522420Y-16394014D01*
X10493848Y-16379729D01*
X10479563Y-16365443D01*
X10465277Y-16336871D01*
X10450991Y-16279729D01*
X10450991Y-16208300D01*
X10465277Y-16151157D01*
X10479563Y-16122586D01*
X10493848Y-16108300D01*
X10522420Y-16094014D01*
X10750991Y-16365443D02*
X10765277Y-16379729D01*
X10750991Y-16394014D01*
X10736706Y-16379729D01*
X10750991Y-16365443D01*
X10750991Y-16394014D01*
X11050991Y-16394014D02*
X10879563Y-16394014D01*
X10965277Y-16394014D02*
X10965277Y-16094014D01*
X10936706Y-16136871D01*
X10908134Y-16165443D01*
X10879563Y-16179729D01*
X11165277Y-16122586D02*
X11179563Y-16108300D01*
X11208134Y-16094014D01*
X11279563Y-16094014D01*
X11308134Y-16108300D01*
X11322420Y-16122586D01*
X11336706Y-16151157D01*
X11336706Y-16179729D01*
X11322420Y-16222586D01*
X11150991Y-16394014D01*
X11336706Y-16394014D01*
X11593848Y-16094014D02*
X11536706Y-16094014D01*
X11508134Y-16108300D01*
X11493848Y-16122586D01*
X11465277Y-16165443D01*
X11450991Y-16222586D01*
X11450991Y-16336871D01*
X11465277Y-16365443D01*
X11479563Y-16379729D01*
X11508134Y-16394014D01*
X11565277Y-16394014D01*
X11593848Y-16379729D01*
X11608134Y-16365443D01*
X11622420Y-16336871D01*
X11622420Y-16265443D01*
X11608134Y-16236871D01*
X11593848Y-16222586D01*
X11565277Y-16208300D01*
X11508134Y-16208300D01*
X11479563Y-16222586D01*
X11465277Y-16236871D01*
X11450991Y-16265443D01*
X11736706Y-16094014D02*
X11736706Y-16151157D01*
X11850991Y-16094014D02*
X11850991Y-16151157D01*
X12293848Y-16508300D02*
X12279563Y-16494014D01*
X12250991Y-16451157D01*
X12236706Y-16422586D01*
X12222420Y-16379729D01*
X12208134Y-16308300D01*
X12208134Y-16251157D01*
X12222420Y-16179729D01*
X12236706Y-16136871D01*
X12250991Y-16108300D01*
X12279563Y-16065443D01*
X12293848Y-16051157D01*
X12379563Y-16094014D02*
X12579563Y-16094014D01*
X12450991Y-16394014D01*
X12922420Y-16394014D02*
X12922420Y-16094014D01*
X13050991Y-16394014D02*
X13050991Y-16236871D01*
X13036706Y-16208300D01*
X13008134Y-16194014D01*
X12965277Y-16194014D01*
X12936706Y-16208300D01*
X12922420Y-16222586D01*
X13236706Y-16394014D02*
X13208134Y-16379729D01*
X13193848Y-16365443D01*
X13179563Y-16336871D01*
X13179563Y-16251157D01*
X13193848Y-16222586D01*
X13208134Y-16208300D01*
X13236706Y-16194014D01*
X13279563Y-16194014D01*
X13308134Y-16208300D01*
X13322420Y-16222586D01*
X13336706Y-16251157D01*
X13336706Y-16336871D01*
X13322420Y-16365443D01*
X13308134Y-16379729D01*
X13279563Y-16394014D01*
X13236706Y-16394014D01*
X13508134Y-16394014D02*
X13479563Y-16379729D01*
X13465277Y-16351157D01*
X13465277Y-16094014D01*
X13736706Y-16379729D02*
X13708134Y-16394014D01*
X13650991Y-16394014D01*
X13622420Y-16379729D01*
X13608134Y-16351157D01*
X13608134Y-16236871D01*
X13622420Y-16208300D01*
X13650991Y-16194014D01*
X13708134Y-16194014D01*
X13736706Y-16208300D01*
X13750991Y-16236871D01*
X13750991Y-16265443D01*
X13608134Y-16294014D01*
X13865277Y-16379729D02*
X13893848Y-16394014D01*
X13950991Y-16394014D01*
X13979563Y-16379729D01*
X13993848Y-16351157D01*
X13993848Y-16336871D01*
X13979563Y-16308300D01*
X13950991Y-16294014D01*
X13908134Y-16294014D01*
X13879563Y-16279729D01*
X13865277Y-16251157D01*
X13865277Y-16236871D01*
X13879563Y-16208300D01*
X13908134Y-16194014D01*
X13950991Y-16194014D01*
X13979563Y-16208300D01*
X14093848Y-16508300D02*
X14108134Y-16494014D01*
X14136706Y-16451157D01*
X14150991Y-16422586D01*
X14165277Y-16379729D01*
X14179563Y-16308300D01*
X14179563Y-16251157D01*
X14165277Y-16179729D01*
X14150991Y-16136871D01*
X14136706Y-16108300D01*
X14108134Y-16065443D01*
X14093848Y-16051157D01*
X7607420Y-16708300D02*
G75*
G03*
X7607420Y-16708300I-320000J0D01*
G01*
X8022420Y-16544014D02*
X7965277Y-16544014D01*
X7936706Y-16558300D01*
X7922420Y-16572586D01*
X7893848Y-16615443D01*
X7879563Y-16672586D01*
X7879563Y-16786872D01*
X7893848Y-16815443D01*
X7908134Y-16829729D01*
X7936706Y-16844014D01*
X7993848Y-16844014D01*
X8022420Y-16829729D01*
X8036706Y-16815443D01*
X8050991Y-16786872D01*
X8050991Y-16715443D01*
X8036706Y-16686871D01*
X8022420Y-16672586D01*
X7993848Y-16658300D01*
X7936706Y-16658300D01*
X7908134Y-16672586D01*
X7893848Y-16686871D01*
X7879563Y-16715443D01*
X8179563Y-16815443D02*
X8193848Y-16829729D01*
X8179563Y-16844014D01*
X8165277Y-16829729D01*
X8179563Y-16815443D01*
X8179563Y-16844014D01*
X8450991Y-16644014D02*
X8450991Y-16844014D01*
X8379563Y-16529729D02*
X8308134Y-16744014D01*
X8493848Y-16744014D01*
X8665277Y-16544014D02*
X8693848Y-16544014D01*
X8722420Y-16558300D01*
X8736706Y-16572586D01*
X8750991Y-16601157D01*
X8765277Y-16658300D01*
X8765277Y-16729729D01*
X8750991Y-16786872D01*
X8736706Y-16815443D01*
X8722420Y-16829729D01*
X8693848Y-16844014D01*
X8665277Y-16844014D01*
X8636706Y-16829729D01*
X8622420Y-16815443D01*
X8608134Y-16786872D01*
X8593848Y-16729729D01*
X8593848Y-16658300D01*
X8608134Y-16601157D01*
X8622420Y-16572586D01*
X8636706Y-16558300D01*
X8665277Y-16544014D01*
X8893848Y-16844014D02*
X8893848Y-16644014D01*
X8893848Y-16672586D02*
X8908134Y-16658300D01*
X8936706Y-16644014D01*
X8979563Y-16644014D01*
X9008134Y-16658300D01*
X9022420Y-16686871D01*
X9022420Y-16844014D01*
X9022420Y-16686871D02*
X9036706Y-16658300D01*
X9065277Y-16644014D01*
X9108134Y-16644014D01*
X9136706Y-16658300D01*
X9150991Y-16686871D01*
X9150991Y-16844014D01*
X9293848Y-16844014D02*
X9293848Y-16644014D01*
X9293848Y-16672586D02*
X9308134Y-16658300D01*
X9336706Y-16644014D01*
X9379563Y-16644014D01*
X9408134Y-16658300D01*
X9422420Y-16686871D01*
X9422420Y-16844014D01*
X9422420Y-16686871D02*
X9436706Y-16658300D01*
X9465277Y-16644014D01*
X9508134Y-16644014D01*
X9536706Y-16658300D01*
X9550991Y-16686871D01*
X9550991Y-16844014D01*
X10136706Y-16529729D02*
X9879563Y-16915443D01*
X10522420Y-16544014D02*
X10550991Y-16544014D01*
X10579563Y-16558300D01*
X10593848Y-16572586D01*
X10608134Y-16601157D01*
X10622420Y-16658300D01*
X10622420Y-16729729D01*
X10608134Y-16786872D01*
X10593848Y-16815443D01*
X10579563Y-16829729D01*
X10550991Y-16844014D01*
X10522420Y-16844014D01*
X10493848Y-16829729D01*
X10479563Y-16815443D01*
X10465277Y-16786872D01*
X10450991Y-16729729D01*
X10450991Y-16658300D01*
X10465277Y-16601157D01*
X10479563Y-16572586D01*
X10493848Y-16558300D01*
X10522420Y-16544014D01*
X10750991Y-16815443D02*
X10765277Y-16829729D01*
X10750991Y-16844014D01*
X10736706Y-16829729D01*
X10750991Y-16815443D01*
X10750991Y-16844014D01*
X10879563Y-16572586D02*
X10893848Y-16558300D01*
X10922420Y-16544014D01*
X10993848Y-16544014D01*
X11022420Y-16558300D01*
X11036706Y-16572586D01*
X11050991Y-16601157D01*
X11050991Y-16629729D01*
X11036706Y-16672586D01*
X10865277Y-16844014D01*
X11050991Y-16844014D01*
X11322420Y-16544014D02*
X11179563Y-16544014D01*
X11165277Y-16686871D01*
X11179563Y-16672586D01*
X11208134Y-16658300D01*
X11279563Y-16658300D01*
X11308134Y-16672586D01*
X11322420Y-16686871D01*
X11336706Y-16715443D01*
X11336706Y-16786872D01*
X11322420Y-16815443D01*
X11308134Y-16829729D01*
X11279563Y-16844014D01*
X11208134Y-16844014D01*
X11179563Y-16829729D01*
X11165277Y-16815443D01*
X11450991Y-16572586D02*
X11465277Y-16558300D01*
X11493848Y-16544014D01*
X11565277Y-16544014D01*
X11593848Y-16558300D01*
X11608134Y-16572586D01*
X11622420Y-16601157D01*
X11622420Y-16629729D01*
X11608134Y-16672586D01*
X11436706Y-16844014D01*
X11622420Y-16844014D01*
X11736706Y-16544014D02*
X11736706Y-16601157D01*
X11850991Y-16544014D02*
X11850991Y-16601157D01*
X12293848Y-16958300D02*
X12279563Y-16944014D01*
X12250991Y-16901157D01*
X12236706Y-16872586D01*
X12222420Y-16829729D01*
X12208134Y-16758300D01*
X12208134Y-16701157D01*
X12222420Y-16629729D01*
X12236706Y-16586871D01*
X12250991Y-16558300D01*
X12279563Y-16515443D01*
X12293848Y-16501157D01*
X12393848Y-16572586D02*
X12408134Y-16558300D01*
X12436706Y-16544014D01*
X12508134Y-16544014D01*
X12536706Y-16558300D01*
X12550991Y-16572586D01*
X12565277Y-16601157D01*
X12565277Y-16629729D01*
X12550991Y-16672586D01*
X12379563Y-16844014D01*
X12565277Y-16844014D01*
X12922420Y-16844014D02*
X12922420Y-16544014D01*
X13050991Y-16844014D02*
X13050991Y-16686871D01*
X13036706Y-16658300D01*
X13008134Y-16644014D01*
X12965277Y-16644014D01*
X12936706Y-16658300D01*
X12922420Y-16672586D01*
X13236706Y-16844014D02*
X13208134Y-16829729D01*
X13193848Y-16815443D01*
X13179563Y-16786872D01*
X13179563Y-16701157D01*
X13193848Y-16672586D01*
X13208134Y-16658300D01*
X13236706Y-16644014D01*
X13279563Y-16644014D01*
X13308134Y-16658300D01*
X13322420Y-16672586D01*
X13336706Y-16701157D01*
X13336706Y-16786872D01*
X13322420Y-16815443D01*
X13308134Y-16829729D01*
X13279563Y-16844014D01*
X13236706Y-16844014D01*
X13508134Y-16844014D02*
X13479563Y-16829729D01*
X13465277Y-16801157D01*
X13465277Y-16544014D01*
X13736706Y-16829729D02*
X13708134Y-16844014D01*
X13650991Y-16844014D01*
X13622420Y-16829729D01*
X13608134Y-16801157D01*
X13608134Y-16686871D01*
X13622420Y-16658300D01*
X13650991Y-16644014D01*
X13708134Y-16644014D01*
X13736706Y-16658300D01*
X13750991Y-16686871D01*
X13750991Y-16715443D01*
X13608134Y-16744014D01*
X13865277Y-16829729D02*
X13893848Y-16844014D01*
X13950991Y-16844014D01*
X13979563Y-16829729D01*
X13993848Y-16801157D01*
X13993848Y-16786872D01*
X13979563Y-16758300D01*
X13950991Y-16744014D01*
X13908134Y-16744014D01*
X13879563Y-16729729D01*
X13865277Y-16701157D01*
X13865277Y-16686871D01*
X13879563Y-16658300D01*
X13908134Y-16644014D01*
X13950991Y-16644014D01*
X13979563Y-16658300D01*
X14093848Y-16958300D02*
X14108134Y-16944014D01*
X14136706Y-16901157D01*
X14150991Y-16872586D01*
X14165277Y-16829729D01*
X14179563Y-16758300D01*
X14179563Y-16701157D01*
X14165277Y-16629729D01*
X14150991Y-16586871D01*
X14136706Y-16558300D01*
X14108134Y-16515443D01*
X14093848Y-16501157D01*
M02*
